<?xml version="1.0" encoding="utf-8" standalone="no"?>
<!DOCTYPE svg PUBLIC "-//W3C//DTD SVG 1.1//EN"
  "http://www.w3.org/Graphics/SVG/1.1/DTD/svg11.dtd">
<!-- Created with matplotlib (http://matplotlib.org/) -->
<svg height="462pt" version="1.1" viewBox="0 0 687 462" width="687pt" xmlns="http://www.w3.org/2000/svg" xmlns:xlink="http://www.w3.org/1999/xlink">
 <defs>
  <style type="text/css">
*{stroke-linecap:butt;stroke-linejoin:round;}
  </style>
 </defs>
 <g id="figure_1">
  <g id="patch_1">
   <path d="M 0 462.857656 
L 687.68 462.857656 
L 687.68 0 
L 0 0 
z
" style="fill:#ffffff;"/>
  </g>
  <g id="axes_1">
   <g id="patch_2">
    <path d="M 101.36 403.638281 
L 659.36 403.638281 
L 659.36 15.558281 
L 101.36 15.558281 
z
" style="fill:#ffffff;"/>
   </g>
   <g id="matplotlib.axis_1">
    <g id="xtick_1">
     <g id="line2d_1">
      <defs>
       <path d="M 0 0 
L 0 -6 
" id="m9db00fa949" style="stroke:#333333;stroke-width:0.8;"/>
      </defs>
      <g>
       <use style="fill:#333333;stroke:#333333;stroke-width:0.8;" x="101.36" xlink:href="#m9db00fa949" y="403.638281"/>
      </g>
     </g>
     <g id="text_1">
      <!-- $\mathdefault{10^{-1}}$ -->
      <defs>
       <path d="M 13.71875 0 
L 13.71875 5.90625 
L 27.390625 5.90625 
L 27.390625 64.890625 
L 12.203125 55.90625 
L 12.203125 63.1875 
L 30.515625 74.21875 
L 45.90625 74.21875 
L 45.90625 5.90625 
L 59.625 5.90625 
L 59.625 0 
z
" id="DejaVuSerif-Bold-31"/>
       <path d="M 34.8125 4.296875 
Q 40.671875 4.296875 42.84375 9.609375 
Q 45.015625 14.9375 45.015625 36.375 
Q 45.015625 57.671875 42.84375 63.078125 
Q 40.671875 68.5 34.8125 68.5 
Q 28.953125 68.5 26.78125 63.171875 
Q 24.609375 57.859375 24.609375 36.375 
Q 24.609375 14.9375 26.78125 9.609375 
Q 28.953125 4.296875 34.8125 4.296875 
z
M 34.8125 -1.421875 
Q 20.21875 -1.421875 12.453125 8.3125 
Q 4.6875 18.0625 4.6875 36.375 
Q 4.6875 54.6875 12.453125 64.453125 
Q 20.21875 74.21875 34.8125 74.21875 
Q 49.359375 74.21875 57.125 64.453125 
Q 64.890625 54.6875 64.890625 36.375 
Q 64.890625 18.0625 57.125 8.3125 
Q 49.359375 -1.421875 34.8125 -1.421875 
z
" id="DejaVuSerif-Bold-30"/>
       <path d="M 10.59375 36.921875 
L 73.1875 36.921875 
L 73.1875 25.6875 
L 10.59375 25.6875 
z
" id="DejaVuSerif-Bold-2212"/>
      </defs>
      <g style="fill:#333333;" transform="translate(73.75 423.854844)scale(0.22 -0.22)">
       <use transform="translate(0 0.7125)" xlink:href="#DejaVuSerif-Bold-31"/>
       <use transform="translate(69.580078 0.7125)" xlink:href="#DejaVuSerif-Bold-30"/>
       <use transform="translate(140.068516 37.046875)scale(0.7)" xlink:href="#DejaVuSerif-Bold-2212"/>
       <use transform="translate(198.720859 37.046875)scale(0.7)" xlink:href="#DejaVuSerif-Bold-31"/>
      </g>
     </g>
    </g>
    <g id="xtick_2">
     <g id="line2d_2">
      <g>
       <use style="fill:#333333;stroke:#333333;stroke-width:0.8;" x="380.36" xlink:href="#m9db00fa949" y="403.638281"/>
      </g>
     </g>
     <g id="text_2">
      <!-- $\mathdefault{10^{0}}$ -->
      <g style="fill:#333333;" transform="translate(359.24 423.854844)scale(0.22 -0.22)">
       <use transform="translate(0 0.7125)" xlink:href="#DejaVuSerif-Bold-31"/>
       <use transform="translate(69.580078 0.7125)" xlink:href="#DejaVuSerif-Bold-30"/>
       <use transform="translate(140.068516 37.046875)scale(0.7)" xlink:href="#DejaVuSerif-Bold-30"/>
      </g>
     </g>
    </g>
    <g id="xtick_3">
     <g id="line2d_3">
      <g>
       <use style="fill:#333333;stroke:#333333;stroke-width:0.8;" x="659.36" xlink:href="#m9db00fa949" y="403.638281"/>
      </g>
     </g>
     <g id="text_3">
      <!-- $\mathdefault{10^{1}}$ -->
      <g style="fill:#333333;" transform="translate(638.24 423.854844)scale(0.22 -0.22)">
       <use transform="translate(0 0.7125)" xlink:href="#DejaVuSerif-Bold-31"/>
       <use transform="translate(69.580078 0.7125)" xlink:href="#DejaVuSerif-Bold-30"/>
       <use transform="translate(140.068516 37.046875)scale(0.7)" xlink:href="#DejaVuSerif-Bold-31"/>
      </g>
     </g>
    </g>
    <g id="xtick_4">
     <g id="line2d_4">
      <defs>
       <path d="M 0 0 
L 0 -3 
" id="ma260fcb93f" style="stroke:#333333;stroke-width:0.6;"/>
      </defs>
      <g>
       <use style="fill:#333333;stroke:#333333;stroke-width:0.6;" x="185.347369" xlink:href="#ma260fcb93f" y="403.638281"/>
      </g>
     </g>
    </g>
    <g id="xtick_5">
     <g id="line2d_5">
      <g>
       <use style="fill:#333333;stroke:#333333;stroke-width:0.6;" x="234.47683" xlink:href="#ma260fcb93f" y="403.638281"/>
      </g>
     </g>
    </g>
    <g id="xtick_6">
     <g id="line2d_6">
      <g>
       <use style="fill:#333333;stroke:#333333;stroke-width:0.6;" x="269.334738" xlink:href="#ma260fcb93f" y="403.638281"/>
      </g>
     </g>
    </g>
    <g id="xtick_7">
     <g id="line2d_7">
      <g>
       <use style="fill:#333333;stroke:#333333;stroke-width:0.6;" x="296.372631" xlink:href="#ma260fcb93f" y="403.638281"/>
      </g>
     </g>
    </g>
    <g id="xtick_8">
     <g id="line2d_8">
      <g>
       <use style="fill:#333333;stroke:#333333;stroke-width:0.6;" x="318.464199" xlink:href="#ma260fcb93f" y="403.638281"/>
      </g>
     </g>
    </g>
    <g id="xtick_9">
     <g id="line2d_9">
      <g>
       <use style="fill:#333333;stroke:#333333;stroke-width:0.6;" x="337.142353" xlink:href="#ma260fcb93f" y="403.638281"/>
      </g>
     </g>
    </g>
    <g id="xtick_10">
     <g id="line2d_10">
      <g>
       <use style="fill:#333333;stroke:#333333;stroke-width:0.6;" x="353.322106" xlink:href="#ma260fcb93f" y="403.638281"/>
      </g>
     </g>
    </g>
    <g id="xtick_11">
     <g id="line2d_11">
      <g>
       <use style="fill:#333333;stroke:#333333;stroke-width:0.6;" x="367.59366" xlink:href="#ma260fcb93f" y="403.638281"/>
      </g>
     </g>
    </g>
    <g id="xtick_12">
     <g id="line2d_12">
      <g>
       <use style="fill:#333333;stroke:#333333;stroke-width:0.6;" x="464.347369" xlink:href="#ma260fcb93f" y="403.638281"/>
      </g>
     </g>
    </g>
    <g id="xtick_13">
     <g id="line2d_13">
      <g>
       <use style="fill:#333333;stroke:#333333;stroke-width:0.6;" x="513.47683" xlink:href="#ma260fcb93f" y="403.638281"/>
      </g>
     </g>
    </g>
    <g id="xtick_14">
     <g id="line2d_14">
      <g>
       <use style="fill:#333333;stroke:#333333;stroke-width:0.6;" x="548.334738" xlink:href="#ma260fcb93f" y="403.638281"/>
      </g>
     </g>
    </g>
    <g id="xtick_15">
     <g id="line2d_15">
      <g>
       <use style="fill:#333333;stroke:#333333;stroke-width:0.6;" x="575.372631" xlink:href="#ma260fcb93f" y="403.638281"/>
      </g>
     </g>
    </g>
    <g id="xtick_16">
     <g id="line2d_16">
      <g>
       <use style="fill:#333333;stroke:#333333;stroke-width:0.6;" x="597.464199" xlink:href="#ma260fcb93f" y="403.638281"/>
      </g>
     </g>
    </g>
    <g id="xtick_17">
     <g id="line2d_17">
      <g>
       <use style="fill:#333333;stroke:#333333;stroke-width:0.6;" x="616.142353" xlink:href="#ma260fcb93f" y="403.638281"/>
      </g>
     </g>
    </g>
    <g id="xtick_18">
     <g id="line2d_18">
      <g>
       <use style="fill:#333333;stroke:#333333;stroke-width:0.6;" x="632.322106" xlink:href="#ma260fcb93f" y="403.638281"/>
      </g>
     </g>
    </g>
    <g id="xtick_19">
     <g id="line2d_19">
      <g>
       <use style="fill:#333333;stroke:#333333;stroke-width:0.6;" x="646.59366" xlink:href="#ma260fcb93f" y="403.638281"/>
      </g>
     </g>
    </g>
    <g id="text_4">
     <!-- r [pc] -->
     <defs>
      <path d="M 53.71875 52.484375 
L 53.71875 37.015625 
L 48.1875 37.015625 
Q 47.90625 41.15625 45.953125 43.1875 
Q 44 45.21875 40.28125 45.21875 
Q 34.625 45.21875 31.34375 40.234375 
Q 28.078125 35.25 28.078125 26.421875 
L 28.078125 5.90625 
L 37.5 5.90625 
L 37.5 0 
L 3.421875 0 
L 3.421875 5.90625 
L 10.796875 5.90625 
L 10.796875 46 
L 2.875 46 
L 2.875 51.90625 
L 28.078125 51.90625 
L 28.078125 42.671875 
Q 30.609375 48.09375 34.78125 50.703125 
Q 38.96875 53.328125 45.015625 53.328125 
Q 46.53125 53.328125 48.703125 53.09375 
Q 50.875 52.875 53.71875 52.484375 
z
" id="DejaVuSerif-Bold-72"/>
      <path id="DejaVuSerif-Bold-20"/>
      <path d="M 12.5 75.984375 
L 40.1875 75.984375 
L 40.1875 70.125 
L 29.78125 70.125 
L 29.78125 -7.328125 
L 40.1875 -7.328125 
L 40.1875 -13.1875 
L 12.5 -13.1875 
z
" id="DejaVuSerif-Bold-5b"/>
      <path d="M 27 28.515625 
L 27 23.390625 
Q 27 14.3125 29.3125 10.25 
Q 31.640625 6.203125 36.8125 6.203125 
Q 42.140625 6.203125 44.3125 10.5 
Q 46.484375 14.796875 46.484375 25.984375 
Q 46.484375 37.15625 44.3125 41.421875 
Q 42.140625 45.703125 36.8125 45.703125 
Q 31.640625 45.703125 29.3125 41.640625 
Q 27 37.59375 27 28.515625 
z
M 9.71875 46 
L 2.296875 46 
L 2.296875 51.90625 
L 27 51.90625 
L 27 45.3125 
Q 29.203125 49.359375 32.90625 51.34375 
Q 36.625 53.328125 42.09375 53.328125 
Q 53.171875 53.328125 59.546875 46.015625 
Q 65.921875 38.71875 65.921875 25.984375 
Q 65.921875 13.234375 59.546875 5.90625 
Q 53.171875 -1.421875 42.09375 -1.421875 
Q 36.625 -1.421875 32.90625 0.5625 
Q 29.203125 2.546875 27 6.59375 
L 27 -14.890625 
L 35.015625 -14.890625 
L 35.015625 -20.796875 
L 2.296875 -20.796875 
L 2.296875 -14.890625 
L 9.71875 -14.890625 
z
" id="DejaVuSerif-Bold-70"/>
      <path d="M 56.390625 16.21875 
Q 54.546875 7.328125 48.796875 2.953125 
Q 43.0625 -1.421875 33.203125 -1.421875 
Q 19.34375 -1.421875 11.71875 5.75 
Q 4.109375 12.9375 4.109375 25.984375 
Q 4.109375 38.875 11.625 46.09375 
Q 19.140625 53.328125 32.515625 53.328125 
Q 37.9375 53.328125 43.453125 52.296875 
Q 48.96875 51.265625 54.6875 49.21875 
L 54.6875 34.8125 
L 49.21875 34.8125 
Q 48.4375 41.40625 45.359375 44.59375 
Q 42.28125 47.796875 36.71875 47.796875 
Q 29.5 47.796875 26.4375 42.90625 
Q 23.390625 38.03125 23.390625 25.984375 
Q 23.390625 14.203125 26.359375 9.15625 
Q 29.34375 4.109375 36.078125 4.109375 
Q 41.3125 4.109375 44.453125 7.234375 
Q 47.609375 10.359375 48.296875 16.21875 
z
" id="DejaVuSerif-Bold-63"/>
      <path d="M 34.8125 75.984375 
L 34.8125 -13.1875 
L 7.078125 -13.1875 
L 7.078125 -7.328125 
L 17.484375 -7.328125 
L 17.484375 70.125 
L 7.078125 70.125 
L 7.078125 75.984375 
z
" id="DejaVuSerif-Bold-5d"/>
     </defs>
     <g transform="translate(342.8075 450.666406)scale(0.24 -0.24)">
      <use xlink:href="#DejaVuSerif-Bold-72"/>
      <use x="52.685547" xlink:href="#DejaVuSerif-Bold-20"/>
      <use x="87.5" xlink:href="#DejaVuSerif-Bold-5b"/>
      <use x="134.814453" xlink:href="#DejaVuSerif-Bold-70"/>
      <use x="204.736328" xlink:href="#DejaVuSerif-Bold-63"/>
      <use x="265.625" xlink:href="#DejaVuSerif-Bold-5d"/>
     </g>
    </g>
   </g>
   <g id="matplotlib.axis_2">
    <g id="ytick_1">
     <g id="line2d_20">
      <defs>
       <path d="M 0 0 
L 6 0 
" id="mc0c60e3215" style="stroke:#333333;stroke-width:0.8;"/>
      </defs>
      <g>
       <use style="fill:#333333;stroke:#333333;stroke-width:0.8;" x="101.36" xlink:href="#mc0c60e3215" y="403.638281"/>
      </g>
     </g>
     <g id="text_5">
      <!-- $\mathdefault{10^{-9}}$ -->
      <defs>
       <path d="M 34.078125 68.5 
Q 29.046875 68.5 26.921875 64.234375 
Q 24.8125 59.96875 24.8125 49.421875 
Q 24.8125 38.875 26.921875 34.59375 
Q 29.046875 30.328125 34.078125 30.328125 
Q 39.109375 30.328125 41.25 34.59375 
Q 43.40625 38.875 43.40625 49.421875 
Q 43.40625 59.96875 41.25 64.234375 
Q 39.109375 68.5 34.078125 68.5 
z
M 44.96875 29.6875 
Q 41.75 27.09375 37.8125 25.796875 
Q 33.890625 24.515625 29.296875 24.515625 
Q 18.171875 24.515625 11.796875 31.03125 
Q 5.421875 37.546875 5.421875 49.03125 
Q 5.421875 61.140625 12.546875 67.671875 
Q 19.671875 74.21875 32.90625 74.21875 
Q 47.859375 74.21875 55.5625 65.1875 
Q 63.28125 56.15625 63.28125 38.71875 
Q 63.28125 18.84375 54.734375 8.703125 
Q 46.1875 -1.421875 29.390625 -1.421875 
Q 25 -1.421875 19.96875 -0.6875 
Q 14.9375 0.046875 9.1875 1.515625 
L 9.1875 14.40625 
L 15.09375 14.40625 
Q 16.3125 9.421875 19.703125 6.859375 
Q 23.09375 4.296875 28.515625 4.296875 
Q 37.109375 4.296875 41.015625 10.28125 
Q 44.921875 16.265625 44.96875 29.6875 
z
" id="DejaVuSerif-Bold-39"/>
      </defs>
      <g style="fill:#333333;" transform="translate(42.64 411.996563)scale(0.22 -0.22)">
       <use transform="translate(0 0.7125)" xlink:href="#DejaVuSerif-Bold-31"/>
       <use transform="translate(69.580078 0.7125)" xlink:href="#DejaVuSerif-Bold-30"/>
       <use transform="translate(140.068516 37.046875)scale(0.7)" xlink:href="#DejaVuSerif-Bold-2212"/>
       <use transform="translate(198.720859 37.046875)scale(0.7)" xlink:href="#DejaVuSerif-Bold-39"/>
      </g>
     </g>
    </g>
    <g id="ytick_2">
     <g id="line2d_21">
      <g>
       <use style="fill:#333333;stroke:#333333;stroke-width:0.8;" x="101.36" xlink:href="#mc0c60e3215" y="209.598281"/>
      </g>
     </g>
     <g id="text_6">
      <!-- $\mathdefault{10^{-8}}$ -->
      <defs>
       <path d="M 46.484375 38.8125 
Q 55.171875 37.40625 59.6875 32.421875 
Q 64.203125 27.4375 64.203125 19.390625 
Q 64.203125 9.328125 56.609375 3.953125 
Q 49.03125 -1.421875 34.71875 -1.421875 
Q 20.40625 -1.421875 12.78125 3.953125 
Q 5.171875 9.328125 5.171875 19.390625 
Q 5.171875 27.4375 9.71875 32.421875 
Q 14.265625 37.40625 22.90625 38.8125 
Q 15.234375 40.578125 11.421875 44.703125 
Q 7.625 48.828125 7.625 55.171875 
Q 7.625 64.453125 14.546875 69.328125 
Q 21.484375 74.21875 34.71875 74.21875 
Q 47.90625 74.21875 54.859375 69.328125 
Q 61.8125 64.453125 61.8125 55.171875 
Q 61.8125 48.828125 57.984375 44.703125 
Q 54.15625 40.578125 46.484375 38.8125 
z
M 42.921875 54.984375 
Q 42.921875 62.703125 41.0625 65.59375 
Q 39.203125 68.5 34.71875 68.5 
Q 30.171875 68.5 28.34375 65.59375 
Q 26.515625 62.703125 26.515625 54.984375 
Q 26.515625 47.3125 28.34375 44.453125 
Q 30.171875 41.609375 34.71875 41.609375 
Q 39.265625 41.609375 41.09375 44.453125 
Q 42.921875 47.3125 42.921875 54.984375 
z
M 44.828125 20.21875 
Q 44.828125 29.15625 42.546875 32.515625 
Q 40.28125 35.890625 34.71875 35.890625 
Q 29.109375 35.890625 26.859375 32.515625 
Q 24.609375 29.15625 24.609375 20.21875 
Q 24.609375 11.1875 26.875 7.734375 
Q 29.15625 4.296875 34.71875 4.296875 
Q 40.234375 4.296875 42.53125 7.734375 
Q 44.828125 11.1875 44.828125 20.21875 
z
" id="DejaVuSerif-Bold-38"/>
      </defs>
      <g style="fill:#333333;" transform="translate(42.64 217.956563)scale(0.22 -0.22)">
       <use transform="translate(0 0.7125)" xlink:href="#DejaVuSerif-Bold-31"/>
       <use transform="translate(69.580078 0.7125)" xlink:href="#DejaVuSerif-Bold-30"/>
       <use transform="translate(140.068516 37.046875)scale(0.7)" xlink:href="#DejaVuSerif-Bold-2212"/>
       <use transform="translate(198.720859 37.046875)scale(0.7)" xlink:href="#DejaVuSerif-Bold-38"/>
      </g>
     </g>
    </g>
    <g id="ytick_3">
     <g id="line2d_22">
      <g>
       <use style="fill:#333333;stroke:#333333;stroke-width:0.8;" x="101.36" xlink:href="#mc0c60e3215" y="15.558281"/>
      </g>
     </g>
     <g id="text_7">
      <!-- $\mathdefault{10^{-7}}$ -->
      <defs>
       <path d="M 61.28125 60.5 
L 31.203125 0 
L 21.296875 0 
L 50.59375 59.078125 
L 14.59375 59.078125 
L 14.59375 49.21875 
L 7.90625 49.21875 
L 7.90625 72.90625 
L 61.28125 72.90625 
z
" id="DejaVuSerif-Bold-37"/>
      </defs>
      <g style="fill:#333333;" transform="translate(42.64 23.916563)scale(0.22 -0.22)">
       <use transform="translate(0 0.63125)" xlink:href="#DejaVuSerif-Bold-31"/>
       <use transform="translate(69.580078 0.63125)" xlink:href="#DejaVuSerif-Bold-30"/>
       <use transform="translate(140.068516 36.965625)scale(0.7)" xlink:href="#DejaVuSerif-Bold-2212"/>
       <use transform="translate(198.720859 36.965625)scale(0.7)" xlink:href="#DejaVuSerif-Bold-37"/>
      </g>
     </g>
    </g>
    <g id="ytick_4">
     <g id="line2d_23">
      <defs>
       <path d="M 0 0 
L 3 0 
" id="m48bc2a3701" style="stroke:#333333;stroke-width:0.6;"/>
      </defs>
      <g>
       <use style="fill:#333333;stroke:#333333;stroke-width:0.6;" x="101.36" xlink:href="#m48bc2a3701" y="345.226421"/>
      </g>
     </g>
    </g>
    <g id="ytick_5">
     <g id="line2d_24">
      <g>
       <use style="fill:#333333;stroke:#333333;stroke-width:0.6;" x="101.36" xlink:href="#m48bc2a3701" y="311.057673"/>
      </g>
     </g>
    </g>
    <g id="ytick_6">
     <g id="line2d_25">
      <g>
       <use style="fill:#333333;stroke:#333333;stroke-width:0.6;" x="101.36" xlink:href="#m48bc2a3701" y="286.814561"/>
      </g>
     </g>
    </g>
    <g id="ytick_7">
     <g id="line2d_26">
      <g>
       <use style="fill:#333333;stroke:#333333;stroke-width:0.6;" x="101.36" xlink:href="#m48bc2a3701" y="268.010142"/>
      </g>
     </g>
    </g>
    <g id="ytick_8">
     <g id="line2d_27">
      <g>
       <use style="fill:#333333;stroke:#333333;stroke-width:0.6;" x="101.36" xlink:href="#m48bc2a3701" y="252.645813"/>
      </g>
     </g>
    </g>
    <g id="ytick_9">
     <g id="line2d_28">
      <g>
       <use style="fill:#333333;stroke:#333333;stroke-width:0.6;" x="101.36" xlink:href="#m48bc2a3701" y="239.655458"/>
      </g>
     </g>
    </g>
    <g id="ytick_10">
     <g id="line2d_29">
      <g>
       <use style="fill:#333333;stroke:#333333;stroke-width:0.6;" x="101.36" xlink:href="#m48bc2a3701" y="228.4027"/>
      </g>
     </g>
    </g>
    <g id="ytick_11">
     <g id="line2d_30">
      <g>
       <use style="fill:#333333;stroke:#333333;stroke-width:0.6;" x="101.36" xlink:href="#m48bc2a3701" y="218.477065"/>
      </g>
     </g>
    </g>
    <g id="ytick_12">
     <g id="line2d_31">
      <g>
       <use style="fill:#333333;stroke:#333333;stroke-width:0.6;" x="101.36" xlink:href="#m48bc2a3701" y="151.186421"/>
      </g>
     </g>
    </g>
    <g id="ytick_13">
     <g id="line2d_32">
      <g>
       <use style="fill:#333333;stroke:#333333;stroke-width:0.6;" x="101.36" xlink:href="#m48bc2a3701" y="117.017673"/>
      </g>
     </g>
    </g>
    <g id="ytick_14">
     <g id="line2d_33">
      <g>
       <use style="fill:#333333;stroke:#333333;stroke-width:0.6;" x="101.36" xlink:href="#m48bc2a3701" y="92.774561"/>
      </g>
     </g>
    </g>
    <g id="ytick_15">
     <g id="line2d_34">
      <g>
       <use style="fill:#333333;stroke:#333333;stroke-width:0.6;" x="101.36" xlink:href="#m48bc2a3701" y="73.970142"/>
      </g>
     </g>
    </g>
    <g id="ytick_16">
     <g id="line2d_35">
      <g>
       <use style="fill:#333333;stroke:#333333;stroke-width:0.6;" x="101.36" xlink:href="#m48bc2a3701" y="58.605813"/>
      </g>
     </g>
    </g>
    <g id="ytick_17">
     <g id="line2d_36">
      <g>
       <use style="fill:#333333;stroke:#333333;stroke-width:0.6;" x="101.36" xlink:href="#m48bc2a3701" y="45.615458"/>
      </g>
     </g>
    </g>
    <g id="ytick_18">
     <g id="line2d_37">
      <g>
       <use style="fill:#333333;stroke:#333333;stroke-width:0.6;" x="101.36" xlink:href="#m48bc2a3701" y="34.3627"/>
      </g>
     </g>
    </g>
    <g id="ytick_19">
     <g id="line2d_38">
      <g>
       <use style="fill:#333333;stroke:#333333;stroke-width:0.6;" x="101.36" xlink:href="#m48bc2a3701" y="24.437065"/>
      </g>
     </g>
    </g>
    <g id="text_8">
     <!-- $\dot{N}_{capt} (&lt;r) [yr^{-1}]$ -->
     <defs>
      <path d="M -32.171875 71.6875 
Q -32.171875 74.609375 -30.046875 76.703125 
Q -27.9375 78.8125 -25 78.8125 
Q -22.078125 78.8125 -19.953125 76.703125 
Q -17.828125 74.609375 -17.828125 71.6875 
Q -17.828125 68.796875 -19.953125 66.640625 
Q -22.078125 64.5 -25 64.5 
Q -27.9375 64.5 -30.046875 66.640625 
Q -32.171875 68.796875 -32.171875 71.6875 
z
" id="DejaVuSerif-Bold-307"/>
      <path d="M 4.390625 0 
L 4.390625 5.90625 
L 13.71875 5.90625 
L 13.71875 67 
L 4.390625 67 
L 4.390625 72.90625 
L 27.203125 72.90625 
L 71.1875 21.296875 
L 71.1875 67 
L 61.921875 67 
L 61.921875 72.90625 
L 87.40625 72.90625 
L 87.40625 67 
L 78.078125 67 
L 78.078125 0 
L 65.28125 0 
L 20.609375 52.6875 
L 20.609375 5.90625 
L 29.890625 5.90625 
L 29.890625 0 
z
" id="DejaVuSerif-Bold-4e"/>
      <path d="M 55.078125 31.890625 
L 55.078125 5.90625 
L 62.5 5.90625 
L 62.5 0 
L 37.796875 0 
L 37.796875 6.59375 
Q 34.375 2.484375 30.171875 0.53125 
Q 25.984375 -1.421875 20.609375 -1.421875 
Q 12.640625 -1.421875 8.375 2.84375 
Q 4.109375 7.125 4.109375 15.09375 
Q 4.109375 23.828125 10.234375 28.171875 
Q 16.359375 32.515625 28.71875 32.515625 
L 37.796875 32.515625 
L 37.796875 35.59375 
Q 37.796875 41.890625 34.8125 44.890625 
Q 31.84375 47.90625 25.59375 47.90625 
Q 20.40625 47.90625 17.59375 45.78125 
Q 14.796875 43.65625 13.625 38.8125 
L 8.109375 38.8125 
L 8.109375 50 
Q 12.75 51.65625 17.71875 52.484375 
Q 22.703125 53.328125 28.21875 53.328125 
Q 42.140625 53.328125 48.609375 48.140625 
Q 55.078125 42.96875 55.078125 31.890625 
z
M 37.796875 16.3125 
L 37.796875 26.703125 
L 31.296875 26.703125 
Q 26.46875 26.703125 23.875 24.0625 
Q 21.296875 21.4375 21.296875 16.5 
Q 21.296875 11.578125 23.171875 9.125 
Q 25.046875 6.6875 28.90625 6.6875 
Q 32.90625 6.6875 35.34375 9.328125 
Q 37.796875 11.96875 37.796875 16.3125 
z
" id="DejaVuSerif-Bold-61"/>
      <path d="M 9.90625 46 
L 2.390625 46 
L 2.390625 51.90625 
L 9.90625 51.90625 
L 9.90625 68.015625 
L 27.203125 68.015625 
L 27.203125 51.90625 
L 41.609375 51.90625 
L 41.609375 46 
L 27.203125 46 
L 27.203125 14.203125 
Q 27.203125 7.421875 28.265625 5.765625 
Q 29.34375 4.109375 32.171875 4.109375 
Q 35.296875 4.109375 36.8125 6.203125 
Q 38.328125 8.296875 38.421875 12.703125 
L 45.703125 12.703125 
Q 45.265625 4.890625 41.421875 1.734375 
Q 37.59375 -1.421875 28.21875 -1.421875 
Q 17.53125 -1.421875 13.71875 1.921875 
Q 9.90625 5.28125 9.90625 14.203125 
z
" id="DejaVuSerif-Bold-74"/>
      <path d="M 42.09375 -15.578125 
Q 25.640625 -9.46875 17.53125 1.90625 
Q 9.421875 13.28125 9.421875 30.171875 
Q 9.421875 47.078125 17.421875 58.296875 
Q 25.4375 69.53125 42.09375 75.984375 
L 42.09375 70.125 
Q 34.375 65.4375 30.984375 56.21875 
Q 27.59375 47.015625 27.59375 30.171875 
Q 27.59375 13.375 30.984375 4.171875 
Q 34.375 -5.03125 42.09375 -9.71875 
z
" id="DejaVuSerif-Bold-28"/>
      <path d="M 73.1875 47.796875 
L 25.390625 31.296875 
L 73.1875 14.890625 
L 73.1875 3.21875 
L 10.59375 25.875 
L 10.59375 36.921875 
L 73.1875 59.515625 
z
" id="DejaVuSerif-Bold-3c"/>
      <path d="M 5.078125 -15.578125 
L 5.078125 -9.71875 
Q 12.796875 -5.03125 16.1875 4.171875 
Q 19.578125 13.375 19.578125 30.171875 
Q 19.578125 47.015625 16.1875 56.21875 
Q 12.796875 65.4375 5.078125 70.125 
L 5.078125 75.984375 
Q 21.734375 69.53125 29.765625 58.296875 
Q 37.796875 47.078125 37.796875 30.171875 
Q 37.796875 13.28125 29.65625 1.90625 
Q 21.53125 -9.46875 5.078125 -15.578125 
z
" id="DejaVuSerif-Bold-29"/>
      <path d="M 31.203125 -11.71875 
Q 28.859375 -17.4375 25.53125 -19.828125 
Q 22.21875 -22.21875 16.609375 -22.21875 
Q 14.203125 -22.21875 11.265625 -21.671875 
Q 8.34375 -21.140625 4.890625 -20.125 
L 4.890625 -9.28125 
L 10.40625 -9.328125 
Q 10.546875 -13.09375 12.171875 -14.890625 
Q 13.8125 -16.703125 17.09375 -16.703125 
Q 20.265625 -16.703125 22.21875 -14.96875 
Q 24.171875 -13.234375 26.125 -8.40625 
L 26.90625 -6.59375 
L 4.296875 46 
L -1.3125 46 
L -1.3125 51.90625 
L 28.609375 51.90625 
L 28.609375 46 
L 22.40625 46 
L 35.59375 15.28125 
L 47.90625 46 
L 41.015625 46 
L 41.015625 51.90625 
L 60.5 51.90625 
L 60.5 46 
L 54.203125 46 
z
" id="DejaVuSerif-Bold-79"/>
     </defs>
     <g transform="translate(31.2 312.078281)rotate(-90)scale(0.24 -0.24)">
      <use transform="translate(82.023438 21.1875)" xlink:href="#DejaVuSerif-Bold-307"/>
      <use transform="translate(0 0.28125)" xlink:href="#DejaVuSerif-Bold-4e"/>
      <use transform="translate(92.314609 -15.290625)scale(0.7)" xlink:href="#DejaVuSerif-Bold-63"/>
      <use transform="translate(134.93668 -15.290625)scale(0.7)" xlink:href="#DejaVuSerif-Bold-61"/>
      <use transform="translate(180.293125 -15.290625)scale(0.7)" xlink:href="#DejaVuSerif-Bold-70"/>
      <use transform="translate(229.238437 -15.290625)scale(0.7)" xlink:href="#DejaVuSerif-Bold-74"/>
      <use transform="translate(264.167734 0.28125)" xlink:href="#DejaVuSerif-Bold-28"/>
      <use transform="translate(332.644297 0.28125)" xlink:href="#DejaVuSerif-Bold-3c"/>
      <use transform="translate(437.595469 0.28125)" xlink:href="#DejaVuSerif-Bold-72"/>
      <use transform="translate(490.281016 0.28125)" xlink:href="#DejaVuSerif-Bold-29"/>
      <use transform="translate(537.595469 0.28125)" xlink:href="#DejaVuSerif-Bold-5b"/>
      <use transform="translate(584.909922 0.28125)" xlink:href="#DejaVuSerif-Bold-79"/>
      <use transform="translate(643.015391 0.28125)" xlink:href="#DejaVuSerif-Bold-72"/>
      <use transform="translate(696.609297 36.615625)scale(0.7)" xlink:href="#DejaVuSerif-Bold-2212"/>
      <use transform="translate(755.261641 36.615625)scale(0.7)" xlink:href="#DejaVuSerif-Bold-31"/>
      <use transform="translate(806.563008 0.28125)" xlink:href="#DejaVuSerif-Bold-5d"/>
     </g>
    </g>
   </g>
   <g id="line2d_39">
    <path clip-path="url(#pc8ea91d76f)" d="M -1 365.517519 
L 23.24 346.341171 
L 51.14 324.580586 
L 73.46 307.435505 
L 95.78 290.552877 
L 118.1 273.967428 
L 140.42 257.724469 
L 157.16 245.802261 
L 173.9 234.138055 
L 190.64 222.770213 
L 207.38 211.744737 
L 218.54 204.609328 
L 229.7 197.663041 
L 240.86 190.91749 
L 252.02 184.378193 
L 263.18 178.044041 
L 274.34 171.90917 
L 285.5 165.965951 
L 296.66 160.20795 
L 307.82 154.631228 
L 318.98 149.233831 
L 330.14 144.016089 
L 341.3 138.980742 
L 352.46 134.133104 
L 363.62 129.480641 
L 374.78 125.03324 
L 385.94 120.803268 
L 397.1 116.805512 
L 408.26 113.056967 
L 419.42 109.576428 
L 430.58 106.383789 
L 441.74 103.498958 
L 452.9 100.940302 
L 464.06 98.722527 
L 475.22 96.854045 
L 486.38 95.334149 
L 497.54 94.14998 
L 508.7 93.274989 
L 519.86 92.668907 
L 531.02 92.280713 
L 547.76 91.984752 
L 570.08 91.868382 
L 653.78 91.850301 
L 688.68 91.850301 
L 688.68 91.850301 
" style="fill:none;opacity:0.5;stroke:#000000;stroke-linecap:square;stroke-width:2;"/>
   </g>
   <g id="line2d_40">
    <path clip-path="url(#pc8ea91d76f)" d="M 161.415507 463.857656 
L 173.9 452.310282 
L 190.64 437.159758 
L 201.8 427.297871 
L 212.96 417.650067 
L 224.12 408.234593 
L 235.28 399.064252 
L 246.44 390.140381 
L 257.6 381.449717 
L 268.76 372.966939 
L 285.5 360.565023 
L 302.24 348.464539 
L 324.56 332.672826 
L 346.88 317.166931 
L 369.2 301.892972 
L 391.52 286.862158 
L 408.26 275.796559 
L 425 264.980113 
L 436.16 257.953504 
L 447.32 251.115331 
L 458.48 244.507484 
L 469.64 238.177423 
L 480.8 232.177249 
L 491.96 226.561897 
L 503.12 221.38653 
L 508.7 218.980316 
L 514.28 216.703052 
L 519.86 214.559954 
L 525.44 212.555378 
L 531.02 210.692652 
L 536.6 208.973918 
L 542.18 207.39993 
L 547.76 205.969973 
L 553.34 204.681738 
L 558.92 203.531318 
L 564.5 202.513224 
L 570.08 201.620503 
L 581.24 200.177208 
L 592.4 199.125062 
L 603.56 198.381551 
L 614.72 197.86821 
L 631.46 197.387747 
L 653.78 197.05413 
L 688.68 196.834451 
L 688.68 196.834451 
" style="fill:none;opacity:0.5;stroke:#0000ff;stroke-linecap:square;stroke-width:2;"/>
   </g>
   <g id="line2d_41">
    <path clip-path="url(#pc8ea91d76f)" d="M -1 314.065145 
L 23.24 294.911948 
L 51.14 273.183928 
L 73.46 256.07028 
L 95.78 239.224683 
L 118.1 222.682674 
L 134.84 210.502613 
L 151.58 198.54362 
L 168.32 186.835826 
L 185.06 175.415771 
L 201.8 164.326995 
L 212.96 157.142775 
L 224.12 150.142585 
L 235.28 143.340003 
L 246.44 136.743704 
L 257.6 130.355712 
L 268.76 124.172231 
L 279.92 118.18606 
L 291.08 112.389907 
L 302.24 106.778533 
L 313.4 101.348966 
L 324.56 96.100251 
L 335.72 91.033758 
L 346.88 86.153348 
L 358.04 81.465183 
L 369.2 76.977615 
L 380.36 72.701417 
L 391.52 68.649761 
L 402.68 64.83808 
L 413.84 61.283767 
L 425 58.005624 
L 436.16 55.022986 
L 447.32 52.354423 
L 458.48 50.015928 
L 469.64 48.018565 
L 480.8 46.36579 
L 491.96 45.050516 
L 503.12 44.052795 
L 514.28 43.339101 
L 525.44 42.863725 
L 542.18 42.479929 
L 564.5 42.313587 
L 620.3 42.283321 
L 688.68 42.283303 
L 688.68 42.283303 
" style="fill:none;opacity:0.5;stroke:#000000;stroke-linecap:square;stroke-width:2;"/>
   </g>
   <g id="line2d_42">
    <path clip-path="url(#pc8ea91d76f)" d="M 78.22614 463.857656 
L 95.78 446.386401 
L 118.1 424.448369 
L 140.42 402.884338 
L 157.16 387.010944 
L 173.9 371.447685 
L 190.64 356.251932 
L 201.8 346.35786 
L 212.96 336.676364 
L 224.12 327.225827 
L 235.28 318.019197 
L 246.44 309.057928 
L 257.6 300.328804 
L 274.34 287.613196 
L 291.08 275.259117 
L 307.82 263.176111 
L 330.14 247.373076 
L 352.46 231.831841 
L 374.78 216.515425 
L 397.1 201.453925 
L 413.84 190.386164 
L 430.58 179.597001 
L 441.74 172.610506 
L 452.9 165.83399 
L 464.06 159.312644 
L 475.22 153.096846 
L 486.38 147.240896 
L 497.54 141.800657 
L 503.12 139.253634 
L 508.7 136.830665 
L 514.28 134.537649 
L 519.86 132.379845 
L 525.44 130.361642 
L 531.02 128.486389 
L 536.6 126.756241 
L 542.18 125.171949 
L 547.76 123.732784 
L 553.34 122.436405 
L 558.92 121.278862 
L 564.5 120.254605 
L 570.08 119.356615 
L 581.24 117.905138 
L 592.4 116.847382 
L 603.56 116.10016 
L 614.72 115.584432 
L 631.46 115.101938 
L 653.78 114.767135 
L 688.68 114.546979 
L 688.68 114.546979 
" style="fill:none;opacity:0.5;stroke:#0000ff;stroke-linecap:square;stroke-width:2;"/>
   </g>
   <g id="line2d_43">
    <path clip-path="url(#pc8ea91d76f)" d="M -1 332.764302 
L 23.24 313.622544 
L 45.56 296.224002 
L 67.88 279.062551 
L 90.2 262.16425 
L 112.52 245.562586 
L 134.84 229.300921 
L 151.58 217.361513 
L 168.32 205.67527 
L 185.06 194.278754 
L 201.8 183.21545 
L 212.96 176.04922 
L 224.12 169.067755 
L 235.28 162.284555 
L 246.44 155.708219 
L 257.6 149.340704 
L 268.76 143.178169 
L 279.92 137.21337 
L 291.08 131.438972 
L 302.24 125.849677 
L 313.4 120.442441 
L 324.56 115.216219 
L 335.72 110.17228 
L 346.88 105.314366 
L 358.04 100.648507 
L 369.2 96.182909 
L 380.36 91.928187 
L 391.52 87.897343 
L 402.68 84.105631 
L 413.84 80.570256 
L 425 77.309831 
L 436.16 74.343502 
L 447.32 71.689661 
L 458.48 69.364147 
L 469.64 67.377906 
L 480.8 65.734329 
L 491.96 64.426342 
L 503.12 63.434094 
L 514.28 62.724253 
L 525.44 62.251384 
L 542.18 61.869531 
L 564.5 61.703966 
L 620.3 61.673821 
L 688.68 61.673803 
L 688.68 61.673803 
" style="fill:none;stroke:#000000;stroke-linecap:square;stroke-width:2;"/>
   </g>
   <g id="line2d_44">
    <path clip-path="url(#pc8ea91d76f)" d="M 114.603212 463.857656 
L 134.84 444.313367 
L 151.58 428.427776 
L 168.32 412.843789 
L 185.06 397.61619 
L 196.22 387.69331 
L 207.38 377.976828 
L 218.54 368.486061 
L 229.7 359.23707 
L 240.86 350.23749 
L 252.02 341.481394 
L 263.18 332.948852 
L 279.92 320.505297 
L 296.66 308.398447 
L 313.4 296.546085 
L 335.72 281.037418 
L 358.04 265.790341 
L 380.36 250.782613 
L 402.68 236.059989 
L 419.42 225.276411 
L 436.16 214.80564 
L 447.32 208.054203 
L 458.48 201.533429 
L 469.64 195.290156 
L 480.8 189.375748 
L 491.96 183.844278 
L 503.12 178.749909 
L 508.7 176.38277 
L 514.28 174.143433 
L 519.86 172.036963 
L 525.44 170.067563 
L 531.02 168.238413 
L 536.6 166.551509 
L 542.18 165.007478 
L 547.76 163.605491 
L 553.34 162.343147 
L 558.92 161.216477 
L 564.5 160.219961 
L 570.08 159.346653 
L 581.24 157.935884 
L 592.4 156.908542 
L 603.56 156.183278 
L 614.72 155.682994 
L 631.46 155.215251 
L 653.78 154.890976 
L 688.68 154.67803 
L 688.68 154.67803 
" style="fill:none;stroke:#0000ff;stroke-linecap:square;stroke-width:2;"/>
   </g>
   <g id="text_9">
    <g id="patch_3">
     <path d="M 510.148558 98.821331 
L 587.456486 95.047168 
L 586.122546 67.72346 
L 508.814618 71.497623 
z
" style="fill:#ffffff;opacity:0.5;"/>
    </g>
    <!-- 0.2$M_{\odot}$ -->
    <defs>
     <path d="M 8.109375 7.90625 
Q 8.109375 11.71875 10.84375 14.453125 
Q 13.578125 17.1875 17.390625 17.1875 
Q 21.234375 17.1875 23.96875 14.453125 
Q 26.703125 11.71875 26.703125 7.90625 
Q 26.703125 4.046875 23.96875 1.3125 
Q 21.234375 -1.421875 17.390625 -1.421875 
Q 13.578125 -1.421875 10.84375 1.3125 
Q 8.109375 4.046875 8.109375 7.90625 
z
" id="DejaVuSerif-Bold-2e"/>
     <path d="M 13.1875 54.890625 
L 7.328125 54.890625 
L 7.328125 70.609375 
Q 13.28125 72.40625 19.109375 73.3125 
Q 24.953125 74.21875 30.90625 74.21875 
Q 44.828125 74.21875 52.609375 68.53125 
Q 60.40625 62.84375 60.40625 52.6875 
Q 60.40625 45.453125 56.109375 39.71875 
Q 51.8125 33.984375 39.703125 26.125 
L 19.390625 12.796875 
L 53.90625 12.796875 
L 53.90625 21.390625 
L 60.59375 21.390625 
L 60.59375 0 
L 6.6875 0 
L 6.6875 11.921875 
L 17.484375 19.390625 
Q 31.296875 28.90625 35.890625 35.59375 
Q 40.484375 42.28125 40.484375 51.21875 
Q 40.484375 59.671875 36.984375 64.078125 
Q 33.5 68.5 26.8125 68.5 
Q 21.046875 68.5 17.578125 65.015625 
Q 14.109375 61.53125 13.1875 54.890625 
z
" id="DejaVuSerif-Bold-32"/>
     <path d="M 4.203125 0 
L 4.203125 5.90625 
L 13.484375 5.90625 
L 13.484375 67 
L 4.203125 67 
L 4.203125 72.90625 
L 34.28125 72.90625 
L 55.078125 26.125 
L 75.984375 72.90625 
L 106 72.90625 
L 106 67 
L 96.6875 67 
L 96.6875 5.90625 
L 106 5.90625 
L 106 0 
L 68.5 0 
L 68.5 5.90625 
L 77.78125 5.90625 
L 77.78125 61.53125 
L 55.171875 10.6875 
L 42.828125 10.6875 
L 20.3125 61.53125 
L 20.3125 5.90625 
L 29.59375 5.90625 
L 29.59375 0 
z
" id="DejaVuSerif-Bold-4d"/>
     <path d="M 38.09375 22.125 
Q 32.625 27.546875 32.625 31.34375 
Q 32.625 35.15625 35.359375 37.890625 
Q 38.09375 40.625 41.890625 40.625 
Q 45.75 40.625 48.484375 37.890625 
Q 51.21875 35.15625 51.21875 31.34375 
Q 51.21875 27.546875 48.484375 24.828125 
Q 45.75 22.125 41.890625 22.125 
Q 38.09375 22.125 32.625 27.546875 
z
M 27.203125 46.046875 
Q 21.78125 36.765625 21.78125 31.34375 
Q 21.78125 25.921875 24.484375 21.28125 
Q 27.203125 16.65625 31.828125 13.9375 
Q 36.46875 11.234375 41.890625 11.234375 
Q 47.3125 11.234375 51.953125 13.9375 
Q 56.59375 16.65625 59.296875 21.28125 
Q 62.015625 25.921875 62.015625 31.34375 
Q 62.015625 36.765625 59.296875 41.40625 
Q 56.59375 46.046875 51.953125 48.75 
Q 47.3125 51.46875 41.890625 51.46875 
Q 36.46875 51.46875 31.828125 48.75 
Q 27.203125 46.046875 21.78125 36.765625 
z
M 18.953125 8.40625 
Q 10.546875 22.859375 10.546875 31.34375 
Q 10.546875 39.84375 14.75 47.0625 
Q 18.953125 54.296875 26.171875 58.5 
Q 33.40625 62.703125 41.890625 62.703125 
Q 50.390625 62.703125 57.609375 58.5 
Q 64.84375 54.296875 69.046875 47.0625 
Q 73.25 39.84375 73.25 31.34375 
Q 73.25 22.859375 69.046875 15.625 
Q 64.84375 8.40625 57.609375 4.203125 
Q 50.390625 0 41.890625 0 
Q 33.40625 0 26.171875 4.203125 
Q 18.953125 8.40625 10.546875 22.859375 
z
" id="DejaVuSerif-Bold-2299"/>
    </defs>
    <g transform="translate(513.745934 90.476615)rotate(-2.794954)scale(0.2 -0.2)">
     <use transform="translate(0 0.78125)" xlink:href="#DejaVuSerif-Bold-30"/>
     <use transform="translate(69.580078 0.78125)" xlink:href="#DejaVuSerif-Bold-2e"/>
     <use transform="translate(104.363281 0.78125)" xlink:href="#DejaVuSerif-Bold-32"/>
     <use transform="translate(173.943359 0.78125)" xlink:href="#DejaVuSerif-Bold-4d"/>
     <use transform="translate(285.545078 -14.790625)scale(0.7)" xlink:href="#DejaVuSerif-Bold-2299"/>
    </g>
   </g>
   <g id="text_10">
    <g id="patch_4">
     <path d="M 510.128325 49.212668 
L 566.664966 46.535313 
L 565.370931 19.209686 
L 508.83429 21.887042 
z
" style="fill:#ffffff;opacity:0.5;"/>
    </g>
    <!-- 1$M_{\odot}$ -->
    <g transform="translate(513.737884 40.873215)rotate(-2.71128)scale(0.2 -0.2)">
     <use transform="translate(0 0.78125)" xlink:href="#DejaVuSerif-Bold-31"/>
     <use transform="translate(69.580078 0.78125)" xlink:href="#DejaVuSerif-Bold-4d"/>
     <use transform="translate(181.181797 -14.790625)scale(0.7)" xlink:href="#DejaVuSerif-Bold-2299"/>
    </g>
   </g>
   <g id="text_11">
    <g id="patch_5">
     <path d="M 238.022795 161.213806 
L 275.680915 138.846285 
L 261.71079 115.326081 
L 224.05267 137.693601 
z
" style="fill:#ffffff;opacity:0.5;"/>
    </g>
    <!-- BH -->
    <defs>
     <path d="M 4.6875 0 
L 4.6875 5.90625 
L 14.015625 5.90625 
L 14.015625 67 
L 4.6875 67 
L 4.6875 72.90625 
L 47.90625 72.90625 
Q 61.234375 72.90625 67.921875 68.40625 
Q 74.609375 63.921875 74.609375 54.890625 
Q 74.609375 48.390625 69.984375 44.578125 
Q 65.375 40.765625 56.296875 39.796875 
Q 67.28125 38.765625 73.140625 33.9375 
Q 79 29.109375 79 21.09375 
Q 79 10.25 70.8125 5.125 
Q 62.640625 0 45.21875 0 
z
M 32.8125 42.484375 
L 39.203125 42.484375 
Q 47.609375 42.484375 51.65625 45.53125 
Q 55.71875 48.578125 55.71875 54.890625 
Q 55.71875 61.234375 51.78125 64.109375 
Q 47.859375 67 39.203125 67 
L 32.8125 67 
z
M 32.8125 5.90625 
L 39.796875 5.90625 
Q 49.125 5.90625 53.609375 9.609375 
Q 58.109375 13.328125 58.109375 21.09375 
Q 58.109375 28.90625 53.5625 32.765625 
Q 49.03125 36.625 39.796875 36.625 
L 32.8125 36.625 
z
" id="DejaVuSerif-Bold-42"/>
     <path d="M 4.6875 0 
L 4.6875 5.90625 
L 14.015625 5.90625 
L 14.015625 67 
L 4.6875 67 
L 4.6875 72.90625 
L 42.1875 72.90625 
L 42.1875 67 
L 32.8125 67 
L 32.8125 42.484375 
L 61.8125 42.484375 
L 61.8125 67 
L 52.484375 67 
L 52.484375 72.90625 
L 89.984375 72.90625 
L 89.984375 67 
L 80.609375 67 
L 80.609375 5.90625 
L 89.984375 5.90625 
L 89.984375 0 
L 52.484375 0 
L 52.484375 5.90625 
L 61.8125 5.90625 
L 61.8125 35.796875 
L 32.8125 35.796875 
L 32.8125 5.90625 
L 42.1875 5.90625 
L 42.1875 0 
z
" id="DejaVuSerif-Bold-48"/>
    </defs>
    <g transform="translate(237.295112 152.155888)rotate(-30.708734)scale(0.2 -0.2)">
     <use xlink:href="#DejaVuSerif-Bold-42"/>
     <use x="84.521484" xlink:href="#DejaVuSerif-Bold-48"/>
    </g>
   </g>
   <g id="text_12">
    <g id="patch_6">
     <path d="M 433.278639 217.317234 
L 467.920201 195.904905 
L 453.536874 172.63509 
L 418.895311 194.047418 
z
" style="fill:#ffffff;opacity:0.5;"/>
    </g>
    <!-- NS -->
    <defs>
     <path d="M 7.71875 3.515625 
L 7.71875 20.796875 
L 13.921875 20.796875 
Q 15.328125 12.59375 20.59375 8.546875 
Q 25.875 4.5 35.203125 4.5 
Q 42.78125 4.5 46.734375 7.375 
Q 50.6875 10.25 50.6875 15.828125 
Q 50.6875 20.21875 48 22.65625 
Q 45.3125 25.09375 36.921875 27.203125 
L 25.984375 29.890625 
Q 15.28125 32.625 10.9375 37.46875 
Q 6.59375 42.328125 6.59375 51.3125 
Q 6.59375 62.15625 13.796875 68.1875 
Q 21 74.21875 33.984375 74.21875 
Q 40.375 74.21875 47.28125 73.140625 
Q 54.203125 72.078125 61.625 69.921875 
L 61.625 53.8125 
L 55.421875 53.8125 
Q 54 61.328125 49.21875 64.8125 
Q 44.4375 68.3125 35.59375 68.3125 
Q 28.375 68.3125 24.6875 65.796875 
Q 21 63.28125 21 58.296875 
Q 21 53.765625 23.53125 51.390625 
Q 26.078125 49.03125 35.984375 46.484375 
L 46.921875 43.796875 
Q 57.078125 41.265625 61.640625 35.890625 
Q 66.21875 30.515625 66.21875 21.09375 
Q 66.21875 10.0625 58.59375 4.3125 
Q 50.984375 -1.421875 36.1875 -1.421875 
Q 29.046875 -1.421875 22.015625 -0.1875 
Q 14.984375 1.03125 7.71875 3.515625 
z
" id="DejaVuSerif-Bold-53"/>
    </defs>
    <g style="fill:#0000ff;" transform="translate(432.391101 208.27358)rotate(-31.720664)scale(0.2 -0.2)">
     <use xlink:href="#DejaVuSerif-Bold-4e"/>
     <use x="91.40625" xlink:href="#DejaVuSerif-Bold-53"/>
    </g>
   </g>
   <g id="patch_7">
    <path d="M 101.36 403.638281 
L 101.36 15.558281 
" style="fill:none;stroke:#333333;stroke-linecap:square;stroke-linejoin:miter;stroke-width:0.8;"/>
   </g>
   <g id="patch_8">
    <path d="M 659.36 403.638281 
L 659.36 15.558281 
" style="fill:none;stroke:#333333;stroke-linecap:square;stroke-linejoin:miter;stroke-width:0.8;"/>
   </g>
   <g id="patch_9">
    <path d="M 101.36 403.638281 
L 659.36 403.638281 
" style="fill:none;stroke:#333333;stroke-linecap:square;stroke-linejoin:miter;stroke-width:0.8;"/>
   </g>
   <g id="patch_10">
    <path d="M 101.36 15.558281 
L 659.36 15.558281 
" style="fill:none;stroke:#333333;stroke-linecap:square;stroke-linejoin:miter;stroke-width:0.8;"/>
   </g>
  </g>
 </g>
 <defs>
  <clipPath id="pc8ea91d76f">
   <rect height="388.08" width="558" x="101.36" y="15.558281"/>
  </clipPath>
 </defs>
</svg>
