<?xml version="1.0" encoding="utf-8" standalone="no"?>
<!DOCTYPE svg PUBLIC "-//W3C//DTD SVG 1.1//EN"
  "http://www.w3.org/Graphics/SVG/1.1/DTD/svg11.dtd">
<!-- Created with matplotlib (http://matplotlib.org/) -->
<svg height="379pt" version="1.1" viewBox="0 0 645 379" width="645pt" xmlns="http://www.w3.org/2000/svg" xmlns:xlink="http://www.w3.org/1999/xlink">
 <defs>
  <style type="text/css">
*{stroke-linecap:butt;stroke-linejoin:round;}
  </style>
 </defs>
 <g id="figure_1">
  <g id="patch_1">
   <path d="M 0 379.697656 
L 645.2675 379.697656 
L 645.2675 0 
L 0 0 
z
" style="fill:#ffffff;"/>
  </g>
  <g id="axes_1">
   <g id="patch_2">
    <path d="M 80.0675 320.478281 
L 638.0675 320.478281 
L 638.0675 15.558281 
L 80.0675 15.558281 
z
" style="fill:#ffffff;"/>
   </g>
   <g id="matplotlib.axis_1">
    <g id="xtick_1">
     <g id="line2d_1">
      <defs>
       <path d="M 0 0 
L 0 -6 
" id="m26369464d3" style="stroke:#333333;stroke-width:0.8;"/>
      </defs>
      <g>
       <use style="fill:#333333;stroke:#333333;stroke-width:0.8;" x="359.0675" xlink:href="#m26369464d3" y="320.478281"/>
      </g>
     </g>
     <g id="text_1">
      <!-- $\mathdefault{10^{0}}$ -->
      <defs>
       <path d="M 13.71875 0 
L 13.71875 5.90625 
L 27.390625 5.90625 
L 27.390625 64.890625 
L 12.203125 55.90625 
L 12.203125 63.1875 
L 30.515625 74.21875 
L 45.90625 74.21875 
L 45.90625 5.90625 
L 59.625 5.90625 
L 59.625 0 
z
" id="DejaVuSerif-Bold-31"/>
       <path d="M 34.8125 4.296875 
Q 40.671875 4.296875 42.84375 9.609375 
Q 45.015625 14.9375 45.015625 36.375 
Q 45.015625 57.671875 42.84375 63.078125 
Q 40.671875 68.5 34.8125 68.5 
Q 28.953125 68.5 26.78125 63.171875 
Q 24.609375 57.859375 24.609375 36.375 
Q 24.609375 14.9375 26.78125 9.609375 
Q 28.953125 4.296875 34.8125 4.296875 
z
M 34.8125 -1.421875 
Q 20.21875 -1.421875 12.453125 8.3125 
Q 4.6875 18.0625 4.6875 36.375 
Q 4.6875 54.6875 12.453125 64.453125 
Q 20.21875 74.21875 34.8125 74.21875 
Q 49.359375 74.21875 57.125 64.453125 
Q 64.890625 54.6875 64.890625 36.375 
Q 64.890625 18.0625 57.125 8.3125 
Q 49.359375 -1.421875 34.8125 -1.421875 
z
" id="DejaVuSerif-Bold-30"/>
      </defs>
      <g style="fill:#333333;" transform="translate(337.9475 340.694844)scale(0.22 -0.22)">
       <use transform="translate(0 0.7125)" xlink:href="#DejaVuSerif-Bold-31"/>
       <use transform="translate(69.580078 0.7125)" xlink:href="#DejaVuSerif-Bold-30"/>
       <use transform="translate(140.068516 37.046875)scale(0.7)" xlink:href="#DejaVuSerif-Bold-30"/>
      </g>
     </g>
    </g>
    <g id="xtick_2">
     <g id="line2d_2">
      <defs>
       <path d="M 0 0 
L 0 -3 
" id="m359c2211c8" style="stroke:#333333;stroke-width:0.6;"/>
      </defs>
      <g>
       <use style="fill:#333333;stroke:#333333;stroke-width:0.6;" x="80.0675" xlink:href="#m359c2211c8" y="320.478281"/>
      </g>
     </g>
    </g>
    <g id="xtick_3">
     <g id="line2d_3">
      <g>
       <use style="fill:#333333;stroke:#333333;stroke-width:0.6;" x="150.355869" xlink:href="#m359c2211c8" y="320.478281"/>
      </g>
     </g>
    </g>
    <g id="xtick_4">
     <g id="line2d_4">
      <g>
       <use style="fill:#333333;stroke:#333333;stroke-width:0.6;" x="200.22626" xlink:href="#m359c2211c8" y="320.478281"/>
      </g>
     </g>
    </g>
    <g id="xtick_5">
     <g id="line2d_5">
      <g>
       <use style="fill:#333333;stroke:#333333;stroke-width:0.6;" x="238.90874" xlink:href="#m359c2211c8" y="320.478281"/>
      </g>
     </g>
    </g>
    <g id="xtick_6">
     <g id="line2d_6">
      <g>
       <use style="fill:#333333;stroke:#333333;stroke-width:0.6;" x="270.514628" xlink:href="#m359c2211c8" y="320.478281"/>
      </g>
     </g>
    </g>
    <g id="xtick_7">
     <g id="line2d_7">
      <g>
       <use style="fill:#333333;stroke:#333333;stroke-width:0.6;" x="297.237026" xlink:href="#m359c2211c8" y="320.478281"/>
      </g>
     </g>
    </g>
    <g id="xtick_8">
     <g id="line2d_8">
      <g>
       <use style="fill:#333333;stroke:#333333;stroke-width:0.6;" x="320.385019" xlink:href="#m359c2211c8" y="320.478281"/>
      </g>
     </g>
    </g>
    <g id="xtick_9">
     <g id="line2d_9">
      <g>
       <use style="fill:#333333;stroke:#333333;stroke-width:0.6;" x="340.802997" xlink:href="#m359c2211c8" y="320.478281"/>
      </g>
     </g>
    </g>
    <g id="xtick_10">
     <g id="line2d_10">
      <g>
       <use style="fill:#333333;stroke:#333333;stroke-width:0.6;" x="479.22626" xlink:href="#m359c2211c8" y="320.478281"/>
      </g>
     </g>
    </g>
    <g id="xtick_11">
     <g id="line2d_11">
      <g>
       <use style="fill:#333333;stroke:#333333;stroke-width:0.6;" x="549.514628" xlink:href="#m359c2211c8" y="320.478281"/>
      </g>
     </g>
    </g>
    <g id="xtick_12">
     <g id="line2d_12">
      <g>
       <use style="fill:#333333;stroke:#333333;stroke-width:0.6;" x="599.385019" xlink:href="#m359c2211c8" y="320.478281"/>
      </g>
     </g>
    </g>
    <g id="xtick_13">
     <g id="line2d_13">
      <g>
       <use style="fill:#333333;stroke:#333333;stroke-width:0.6;" x="638.0675" xlink:href="#m359c2211c8" y="320.478281"/>
      </g>
     </g>
    </g>
    <g id="text_2">
     <!-- $m_*\,\, [M_{\odot}]$ -->
     <defs>
      <path d="M 60.6875 43.40625 
Q 64.3125 48.578125 68.5 50.953125 
Q 72.703125 53.328125 78.328125 53.328125 
Q 87.25 53.328125 91.671875 48.265625 
Q 96.09375 43.21875 96.09375 33.015625 
L 96.09375 5.90625 
L 103.515625 5.90625 
L 103.515625 0 
L 72.609375 0 
L 72.609375 5.90625 
L 78.8125 5.90625 
L 78.8125 30.421875 
Q 78.8125 40.140625 77.3125 42.671875 
Q 75.828125 45.21875 71.78125 45.21875 
Q 67.1875 45.21875 64.640625 41.671875 
Q 62.109375 38.140625 62.109375 31.59375 
L 62.109375 5.90625 
L 68.3125 5.90625 
L 68.3125 0 
L 38.625 0 
L 38.625 5.90625 
L 44.828125 5.90625 
L 44.828125 30.421875 
Q 44.828125 40.140625 43.3125 42.671875 
Q 41.796875 45.21875 37.796875 45.21875 
Q 33.15625 45.21875 30.609375 41.671875 
Q 28.078125 38.140625 28.078125 31.59375 
L 28.078125 5.90625 
L 34.28125 5.90625 
L 34.28125 0 
L 3.421875 0 
L 3.421875 5.90625 
L 10.796875 5.90625 
L 10.796875 46 
L 3.421875 46 
L 3.421875 51.90625 
L 28.078125 51.90625 
L 28.078125 44.578125 
Q 31.109375 49.125 35.015625 51.21875 
Q 38.921875 53.328125 44.28125 53.328125 
Q 50.640625 53.328125 54.59375 50.90625 
Q 58.546875 48.484375 60.6875 43.40625 
z
" id="DejaVuSerif-Bold-6d"/>
      <path d="M 50.09375 59.1875 
L 32.515625 50.984375 
L 50.09375 42.671875 
L 45.3125 35.109375 
L 29.296875 46.78125 
L 30.609375 27.78125 
L 21.6875 27.78125 
L 23 46.78125 
L 6.984375 35.109375 
L 2.203125 42.671875 
L 19.828125 50.984375 
L 2.203125 59.1875 
L 6.984375 66.890625 
L 23 55.078125 
L 21.6875 74.21875 
L 30.609375 74.21875 
L 29.296875 55.078125 
L 45.3125 66.890625 
z
" id="DejaVuSerif-Bold-2a"/>
      <path d="M 12.5 75.984375 
L 40.1875 75.984375 
L 40.1875 70.125 
L 29.78125 70.125 
L 29.78125 -7.328125 
L 40.1875 -7.328125 
L 40.1875 -13.1875 
L 12.5 -13.1875 
z
" id="DejaVuSerif-Bold-5b"/>
      <path d="M 4.203125 0 
L 4.203125 5.90625 
L 13.484375 5.90625 
L 13.484375 67 
L 4.203125 67 
L 4.203125 72.90625 
L 34.28125 72.90625 
L 55.078125 26.125 
L 75.984375 72.90625 
L 106 72.90625 
L 106 67 
L 96.6875 67 
L 96.6875 5.90625 
L 106 5.90625 
L 106 0 
L 68.5 0 
L 68.5 5.90625 
L 77.78125 5.90625 
L 77.78125 61.53125 
L 55.171875 10.6875 
L 42.828125 10.6875 
L 20.3125 61.53125 
L 20.3125 5.90625 
L 29.59375 5.90625 
L 29.59375 0 
z
" id="DejaVuSerif-Bold-4d"/>
      <path d="M 38.09375 22.125 
Q 32.625 27.546875 32.625 31.34375 
Q 32.625 35.15625 35.359375 37.890625 
Q 38.09375 40.625 41.890625 40.625 
Q 45.75 40.625 48.484375 37.890625 
Q 51.21875 35.15625 51.21875 31.34375 
Q 51.21875 27.546875 48.484375 24.828125 
Q 45.75 22.125 41.890625 22.125 
Q 38.09375 22.125 32.625 27.546875 
z
M 27.203125 46.046875 
Q 21.78125 36.765625 21.78125 31.34375 
Q 21.78125 25.921875 24.484375 21.28125 
Q 27.203125 16.65625 31.828125 13.9375 
Q 36.46875 11.234375 41.890625 11.234375 
Q 47.3125 11.234375 51.953125 13.9375 
Q 56.59375 16.65625 59.296875 21.28125 
Q 62.015625 25.921875 62.015625 31.34375 
Q 62.015625 36.765625 59.296875 41.40625 
Q 56.59375 46.046875 51.953125 48.75 
Q 47.3125 51.46875 41.890625 51.46875 
Q 36.46875 51.46875 31.828125 48.75 
Q 27.203125 46.046875 21.78125 36.765625 
z
M 18.953125 8.40625 
Q 10.546875 22.859375 10.546875 31.34375 
Q 10.546875 39.84375 14.75 47.0625 
Q 18.953125 54.296875 26.171875 58.5 
Q 33.40625 62.703125 41.890625 62.703125 
Q 50.390625 62.703125 57.609375 58.5 
Q 64.84375 54.296875 69.046875 47.0625 
Q 73.25 39.84375 73.25 31.34375 
Q 73.25 22.859375 69.046875 15.625 
Q 64.84375 8.40625 57.609375 4.203125 
Q 50.390625 0 41.890625 0 
Q 33.40625 0 26.171875 4.203125 
Q 18.953125 8.40625 10.546875 22.859375 
z
" id="DejaVuSerif-Bold-2299"/>
      <path d="M 34.8125 75.984375 
L 34.8125 -13.1875 
L 7.078125 -13.1875 
L 7.078125 -7.328125 
L 17.484375 -7.328125 
L 17.484375 70.125 
L 7.078125 70.125 
L 7.078125 75.984375 
z
" id="DejaVuSerif-Bold-5d"/>
     </defs>
     <g transform="translate(301.5875 367.506406)scale(0.24 -0.24)">
      <use transform="translate(0 0.015625)" xlink:href="#DejaVuSerif-Bold-6d"/>
      <use transform="translate(121.532383 -15.55625)scale(0.7)" xlink:href="#DejaVuSerif-Bold-2a"/>
      <use transform="translate(210.818505 0.015625)" xlink:href="#DejaVuSerif-Bold-5b"/>
      <use transform="translate(258.132958 0.015625)" xlink:href="#DejaVuSerif-Bold-4d"/>
      <use transform="translate(369.734677 -15.55625)scale(0.7)" xlink:href="#DejaVuSerif-Bold-2299"/>
      <use transform="translate(430.982333 0.015625)" xlink:href="#DejaVuSerif-Bold-5d"/>
     </g>
    </g>
   </g>
   <g id="matplotlib.axis_2">
    <g id="ytick_1">
     <g id="line2d_14">
      <defs>
       <path d="M 0 0 
L 3 0 
" id="mf87326a164" style="stroke:#333333;stroke-width:0.6;"/>
      </defs>
      <g>
       <use style="fill:#333333;stroke:#333333;stroke-width:0.6;" x="80.0675" xlink:href="#mf87326a164" y="320.478281"/>
      </g>
     </g>
     <g id="text_3">
      <!-- $\mathdefault{10^{0}}$ -->
      <g style="fill:#333333;" transform="translate(34.4275 328.836562)scale(0.22 -0.22)">
       <use transform="translate(0 0.7125)" xlink:href="#DejaVuSerif-Bold-31"/>
       <use transform="translate(69.580078 0.7125)" xlink:href="#DejaVuSerif-Bold-30"/>
       <use transform="translate(140.068516 37.046875)scale(0.7)" xlink:href="#DejaVuSerif-Bold-30"/>
      </g>
     </g>
    </g>
    <g id="ytick_2">
     <g id="line2d_15">
      <g>
       <use style="fill:#333333;stroke:#333333;stroke-width:0.6;" x="80.0675" xlink:href="#mf87326a164" y="15.558281"/>
      </g>
     </g>
     <g id="text_4">
      <!-- $\mathdefault{10^{1}}$ -->
      <g style="fill:#333333;" transform="translate(34.4275 23.916562)scale(0.22 -0.22)">
       <use transform="translate(0 0.7125)" xlink:href="#DejaVuSerif-Bold-31"/>
       <use transform="translate(69.580078 0.7125)" xlink:href="#DejaVuSerif-Bold-30"/>
       <use transform="translate(140.068516 37.046875)scale(0.7)" xlink:href="#DejaVuSerif-Bold-31"/>
      </g>
     </g>
    </g>
    <g id="text_5">
     <!-- $m_c\,\, [M_{\odot}]$ -->
     <defs>
      <path d="M 56.390625 16.21875 
Q 54.546875 7.328125 48.796875 2.953125 
Q 43.0625 -1.421875 33.203125 -1.421875 
Q 19.34375 -1.421875 11.71875 5.75 
Q 4.109375 12.9375 4.109375 25.984375 
Q 4.109375 38.875 11.625 46.09375 
Q 19.140625 53.328125 32.515625 53.328125 
Q 37.9375 53.328125 43.453125 52.296875 
Q 48.96875 51.265625 54.6875 49.21875 
L 54.6875 34.8125 
L 49.21875 34.8125 
Q 48.4375 41.40625 45.359375 44.59375 
Q 42.28125 47.796875 36.71875 47.796875 
Q 29.5 47.796875 26.4375 42.90625 
Q 23.390625 38.03125 23.390625 25.984375 
Q 23.390625 14.203125 26.359375 9.15625 
Q 29.34375 4.109375 36.078125 4.109375 
Q 41.3125 4.109375 44.453125 7.234375 
Q 47.609375 10.359375 48.296875 16.21875 
z
" id="DejaVuSerif-Bold-63"/>
     </defs>
     <g transform="translate(25.43625 222.618281)rotate(-90)scale(0.24 -0.24)">
      <use transform="translate(0 0.015625)" xlink:href="#DejaVuSerif-Bold-6d"/>
      <use transform="translate(106.718906 -15.55625)scale(0.7)" xlink:href="#DejaVuSerif-Bold-63"/>
      <use transform="translate(187.207177 0.015625)" xlink:href="#DejaVuSerif-Bold-5b"/>
      <use transform="translate(234.52163 0.015625)" xlink:href="#DejaVuSerif-Bold-4d"/>
      <use transform="translate(346.123349 -15.55625)scale(0.7)" xlink:href="#DejaVuSerif-Bold-2299"/>
      <use transform="translate(407.371005 0.015625)" xlink:href="#DejaVuSerif-Bold-5d"/>
     </g>
    </g>
   </g>
   <g id="LineCollection_1">
    <path clip-path="url(#p4f12e175c0)" d="M 591.96154 320.478281 
L 591.96154 296.334336 
L 591.96154 275.920921 
L 591.96154 258.238016 
L 591.96154 242.640589 
L 591.96154 228.688215 
L 591.96154 216.066757 
L 591.96154 204.544269 
L 591.96154 193.944608 
L 591.96154 184.130854 
L 591.96154 174.994468 
L 591.96154 166.44795 
L 591.96154 158.41973 
L 591.96154 150.850523 
L 591.96154 143.690667 
L 591.96154 136.898149 
L 591.96154 130.746954 
" style="fill:none;stroke:#000000;stroke-width:2;"/>
    <path clip-path="url(#p4f12e175c0)" d="M 591.96154 94.732311 
L 591.96154 92.340788 
L 591.96154 87.693817 
L 591.96154 83.204402 
L 591.96154 78.862207 
L 591.96154 74.657884 
L 591.96154 70.582944 
L 591.96154 66.629664 
L 591.96154 62.790987 
L 591.96154 59.060456 
L 591.96154 55.432145 
L 591.96154 51.900601 
L 591.96154 48.460795 
L 591.96154 45.108082 
L 591.96154 41.838161 
L 591.96154 38.647041 
L 591.96154 35.531013 
L 591.96154 32.486625 
L 591.96154 29.510655 
L 591.96154 26.600097 
L 591.96154 23.752136 
L 591.96154 20.964137 
L 591.96154 18.233626 
L 591.96154 15.558281 
" style="fill:none;stroke:#000000;stroke-width:2;"/>
   </g>
   <g id="LineCollection_2">
    <path clip-path="url(#p4f12e175c0)" d="M 531.90386 320.478281 
L 531.90386 296.334336 
L 531.90386 275.920921 
L 531.90386 258.238016 
L 531.90386 242.640589 
L 531.90386 228.688215 
L 531.90386 216.066757 
L 531.90386 204.544269 
L 531.90386 193.944608 
L 531.90386 184.130854 
L 531.90386 174.994468 
L 531.90386 166.44795 
L 531.90386 158.41973 
L 531.90386 150.850523 
L 531.90386 143.690667 
L 531.90386 136.898149 
L 531.90386 130.746954 
" style="fill:none;stroke:#000000;stroke-width:2;"/>
    <path clip-path="url(#p4f12e175c0)" d="M 531.90386 94.732311 
L 531.90386 92.340788 
L 531.90386 87.693817 
L 531.90386 83.204402 
L 531.90386 78.862207 
L 531.90386 74.657884 
L 531.90386 70.582944 
L 531.90386 66.629664 
L 531.90386 62.790987 
L 531.90386 59.060456 
L 531.90386 55.432145 
L 531.90386 51.900601 
L 531.90386 48.460795 
L 531.90386 45.108082 
L 531.90386 41.838161 
L 531.90386 38.647041 
L 531.90386 35.531013 
L 531.90386 32.486625 
L 531.90386 29.510655 
L 531.90386 26.600097 
L 531.90386 23.752136 
L 531.90386 20.964137 
L 531.90386 18.233626 
L 531.90386 15.558281 
" style="fill:none;stroke:#000000;stroke-width:2;"/>
   </g>
   <g id="LineCollection_3">
    <path clip-path="url(#p4f12e175c0)" d="M 489.160908 320.478281 
L 489.160908 296.334336 
L 489.160908 275.920921 
L 489.160908 258.238016 
L 489.160908 242.640589 
L 489.160908 228.688215 
L 489.160908 216.066757 
L 489.160908 204.544269 
L 489.160908 193.944608 
L 489.160908 184.130854 
L 489.160908 174.994468 
L 489.160908 166.44795 
L 489.160908 158.41973 
L 489.160908 150.850523 
L 489.160908 143.690667 
L 489.160908 136.898149 
L 489.160908 130.746954 
" style="fill:none;stroke:#000000;stroke-width:2;"/>
    <path clip-path="url(#p4f12e175c0)" d="M 489.160908 94.732311 
L 489.160908 92.340788 
L 489.160908 87.693817 
L 489.160908 83.204402 
L 489.160908 78.862207 
L 489.160908 74.657884 
L 489.160908 70.582944 
L 489.160908 66.629664 
L 489.160908 62.790987 
L 489.160908 59.060456 
L 489.160908 55.432145 
L 489.160908 51.900601 
L 489.160908 48.460795 
L 489.160908 45.108082 
L 489.160908 41.838161 
L 489.160908 38.647041 
L 489.160908 35.531013 
L 489.160908 32.486625 
L 489.160908 29.510655 
L 489.160908 26.600097 
L 489.160908 23.752136 
L 489.160908 20.964137 
L 489.160908 18.233626 
L 489.160908 15.558281 
" style="fill:none;stroke:#000000;stroke-width:2;"/>
    <path clip-path="url(#p4f12e175c0)" d="M 91.05664 15.558281 
L 89.707451 18.233626 
L 88.257311 20.964137 
L 86.980415 23.752136 
L 85.578827 26.600097 
L 84.15277 29.510655 
L 82.709741 32.486625 
L 81.137139 35.531013 
L 80.0675 37.742136 
" style="fill:none;stroke:#000000;stroke-width:2;"/>
   </g>
   <g id="LineCollection_4">
    <path clip-path="url(#p4f12e175c0)" d="M 448.388878 320.478281 
L 448.388878 296.334336 
L 448.388878 275.920921 
L 448.388878 258.238016 
L 448.388878 242.640589 
L 448.388878 228.688215 
L 448.388878 216.066757 
L 448.388878 204.544269 
L 448.388878 193.944608 
L 448.388878 184.130854 
L 448.388878 174.994468 
L 448.388878 166.44795 
L 448.388878 158.41973 
L 448.388878 150.850523 
L 448.388878 143.690667 
L 448.388878 136.898149 
L 448.388878 130.746954 
" style="fill:none;stroke:#000000;stroke-width:2;"/>
    <path clip-path="url(#p4f12e175c0)" d="M 448.388878 94.732311 
L 448.388878 92.340788 
L 448.388878 87.693817 
L 448.388878 83.204402 
L 448.388878 78.862207 
L 448.388878 74.657884 
L 448.388878 70.582944 
L 448.388878 66.629664 
L 448.388878 62.790987 
L 448.388878 59.060456 
L 448.388878 55.432145 
L 448.388878 51.900601 
L 448.388878 48.460795 
L 448.388878 45.108082 
L 448.388878 41.838161 
L 448.388878 38.647041 
L 448.388878 35.531013 
L 448.388878 32.486625 
L 448.388878 29.510655 
L 448.388878 26.600097 
L 448.388878 23.752136 
L 448.388878 20.964137 
L 448.388878 18.233626 
L 448.388878 15.558281 
" style="fill:none;stroke:#000000;stroke-width:2;"/>
    <path clip-path="url(#p4f12e175c0)" d="M 170.949152 15.558281 
L 169.1987 18.233626 
L 167.481904 20.964137 
L 165.860302 23.752136 
L 164.104608 26.600097 
L 162.243362 29.510655 
L 160.501293 32.486625 
L 158.548486 35.531013 
L 156.731829 38.647041 
L 154.838015 41.838161 
L 152.844842 45.108082 
L 150.876317 48.460795 
L 148.733254 51.900601 
L 146.683543 55.432145 
L 144.616602 59.060456 
L 144.606606 59.077147 
" style="fill:none;stroke:#000000;stroke-width:2;"/>
    <path clip-path="url(#p4f12e175c0)" d="M 126.740106 90.306556 
L 125.633866 92.340788 
L 122.872885 97.156776 
L 120.22985 102.154542 
L 117.367246 107.348348 
L 114.491798 112.754203 
L 111.384559 118.390163 
L 108.367649 124.276691 
L 105.071704 130.437108 
L 101.772202 136.898149 
L 98.314882 143.690667 
L 94.688194 150.850523 
L 90.816454 158.41973 
L 86.931563 166.44795 
L 82.764345 174.994468 
L 80.0675 180.347213 
" style="fill:none;stroke:#000000;stroke-width:2;"/>
   </g>
   <g id="LineCollection_5">
    <path clip-path="url(#p4f12e175c0)" d="M 410.317534 320.478281 
L 410.317534 296.334336 
L 410.317534 275.920921 
L 410.317534 258.238016 
L 410.317534 242.640589 
L 410.317534 228.688215 
L 410.317534 216.066757 
L 410.317534 204.544269 
L 410.317534 193.944608 
L 410.317534 184.130854 
L 410.317534 174.994468 
L 410.317534 166.44795 
L 410.317534 158.41973 
L 410.317534 150.850523 
L 410.317534 143.690667 
L 410.317534 136.898149 
L 410.317534 130.746954 
" style="fill:none;stroke:#000000;stroke-width:2;"/>
    <path clip-path="url(#p4f12e175c0)" d="M 410.317534 94.732311 
L 410.317534 92.340788 
L 410.317534 87.693817 
L 410.317534 83.204402 
L 410.317534 78.862207 
L 410.317534 74.657884 
L 410.317534 70.582944 
L 410.317534 66.629664 
L 410.317534 62.790987 
L 410.317534 59.060456 
L 410.317534 55.432145 
L 410.317534 51.900601 
L 410.317534 48.460795 
L 410.317534 45.108082 
L 410.317534 41.838161 
L 410.317534 38.647041 
L 410.317534 35.531013 
L 410.317534 32.486625 
L 410.317534 29.510655 
L 410.317534 26.600097 
L 410.317534 23.752136 
L 410.317534 20.964137 
L 410.317534 18.233626 
L 410.317534 15.558281 
" style="fill:none;stroke:#000000;stroke-width:2;"/>
    <path clip-path="url(#p4f12e175c0)" d="M 272.339817 15.558281 
L 270.514628 17.822976 
L 270.210684 18.233626 
L 268.166726 20.964137 
L 265.979779 23.752136 
L 263.859603 26.600097 
L 261.783233 29.510655 
L 259.485639 32.486625 
L 257.305221 35.531013 
L 255.014694 38.647041 
L 252.655569 41.838161 
L 250.239358 45.108082 
L 247.769232 48.460795 
L 245.203445 51.900601 
L 242.606518 55.432145 
L 239.983226 59.060456 
L 239.214383 60.10665 
" style="fill:none;stroke:#000000;stroke-width:2;"/>
    <path clip-path="url(#p4f12e175c0)" d="M 217.992301 89.176129 
L 215.784286 92.340788 
L 212.220059 97.156776 
L 208.703282 102.154542 
L 204.854497 107.348348 
L 201.074698 112.754203 
L 200.22626 113.872744 
L 197.301204 118.390163 
L 193.690102 124.276691 
L 189.834456 130.437108 
L 185.752995 136.898149 
L 181.678603 143.690667 
L 177.335145 150.850523 
L 172.780119 158.41973 
L 168.036935 166.44795 
L 163.038057 174.994468 
L 157.744064 184.130854 
L 152.196417 193.944608 
L 146.276022 204.544269 
L 139.955071 216.066757 
L 132.926308 228.688215 
L 125.825246 242.640589 
L 117.614771 258.238016 
L 108.938578 275.920921 
L 98.95701 296.334336 
L 87.415139 320.478281 
" style="fill:none;stroke:#000000;stroke-width:2;"/>
   </g>
   <g id="LineCollection_6">
    <path clip-path="url(#p4f12e175c0)" d="M 377.390049 320.478281 
L 377.390049 296.334336 
L 377.390049 275.920921 
L 377.390049 258.238016 
L 377.390049 242.640589 
L 377.390049 228.688215 
L 377.390049 216.066757 
L 377.390049 204.544269 
L 377.390049 193.944608 
L 377.390049 184.130854 
L 377.390049 174.994468 
L 377.390049 166.44795 
L 377.390049 158.41973 
L 377.390049 150.850523 
L 377.390049 143.690667 
L 377.390049 136.898149 
L 377.082229 130.58815 
" style="fill:none;stroke:#000000;stroke-width:2;"/>
    <path clip-path="url(#p4f12e175c0)" d="M 371.499851 95.025371 
L 370.83818 92.340788 
L 369.732082 87.693817 
L 368.727574 83.204402 
L 367.305458 78.862207 
L 365.970142 74.657884 
L 364.762365 70.582944 
L 363.008636 66.629664 
L 361.361673 62.790987 
L 359.583608 59.060456 
L 359.0675 58.032383 
L 358.249384 59.060456 
L 355.232637 62.790987 
L 352.128395 66.629664 
L 348.561123 70.582944 
L 345.618053 74.657884 
L 342.201605 78.862207 
L 338.168295 83.204402 
L 334.997386 87.693817 
L 330.833239 92.340788 
L 327.133671 97.156776 
L 323.104612 102.154542 
L 320.385019 105.400453 
L 318.919838 107.348348 
L 314.797203 112.754203 
L 310.092622 118.390163 
L 305.997573 124.276691 
L 300.964621 130.437108 
L 296.345823 136.898149 
L 291.13673 143.690667 
L 285.627058 150.850523 
L 279.77833 158.41973 
L 273.534517 166.44795 
L 270.514628 170.214843 
L 267.284834 174.994468 
L 261.023466 184.130854 
L 254.334693 193.944608 
L 247.150623 204.544269 
L 239.376154 216.066757 
L 230.599925 228.688215 
L 221.51124 242.640589 
L 210.469574 258.238016 
L 200.22626 273.724165 
L 199.187545 275.920921 
L 188.611582 296.334336 
L 176.887547 320.478281 
" style="fill:none;stroke:#000000;stroke-width:2;"/>
   </g>
   <g id="LineCollection_7">
    <path clip-path="url(#p4f12e175c0)" d="M 365.405601 320.478281 
L 365.405601 296.334336 
L 365.405601 275.920921 
L 365.405601 258.238016 
L 365.405601 242.640589 
L 365.405601 228.688215 
L 365.405601 216.066757 
L 365.405601 204.544269 
L 365.405601 193.944608 
L 365.405601 184.130854 
L 365.405601 174.994468 
L 365.405601 166.44795 
L 365.405601 158.41973 
L 365.405601 150.850523 
L 365.405601 143.690667 
L 365.405601 136.898149 
L 364.78364 130.437108 
L 363.283188 124.276691 
L 361.700267 118.390163 
L 360.026294 112.754203 
L 359.0675 109.305401 
L 356.729241 112.754203 
L 352.229248 118.390163 
L 347.695845 124.276691 
L 342.621951 130.437108 
L 339.187729 136.898149 
L 335.680265 143.690667 
L 330.216835 150.850523 
L 320.528043 158.41973 
L 320.385019 158.499183 
L 314.587766 166.44795 
L 307.912434 174.994468 
L 305.296042 178.793443 
" style="fill:none;stroke:#000000;stroke-width:2;"/>
    <path clip-path="url(#p4f12e175c0)" d="M 284.8308 206.980903 
L 278.087439 216.066757 
L 270.514628 225.969874 
L 268.84152 228.688215 
L 260.009274 242.640589 
L 250.10935 258.238016 
L 239.358193 275.920921 
L 227.236801 296.334336 
L 215.577451 320.478281 
" style="fill:none;stroke:#000000;stroke-width:2;"/>
   </g>
   <g id="patch_3">
    <path d="M 80.0675 320.478281 
L 80.0675 15.558281 
" style="fill:none;stroke:#333333;stroke-linecap:square;stroke-linejoin:miter;stroke-width:0.8;"/>
   </g>
   <g id="patch_4">
    <path d="M 638.0675 320.478281 
L 638.0675 15.558281 
" style="fill:none;stroke:#333333;stroke-linecap:square;stroke-linejoin:miter;stroke-width:0.8;"/>
   </g>
   <g id="patch_5">
    <path d="M 80.0675 320.478281 
L 638.0675 320.478281 
" style="fill:none;stroke:#333333;stroke-linecap:square;stroke-linejoin:miter;stroke-width:0.8;"/>
   </g>
   <g id="patch_6">
    <path d="M 80.0675 15.558281 
L 638.0675 15.558281 
" style="fill:none;stroke:#333333;stroke-linecap:square;stroke-linejoin:miter;stroke-width:0.8;"/>
   </g>
   <g id="text_6">
    <g id="patch_7">
     <path d="M 366.538122 47.915487 
L 631.301247 47.915487 
L 631.301247 18.3908 
L 366.538122 18.3908 
z
" style="fill:#ffffff;"/>
    </g>
    <!-- Binary lifetime [Gyr] -->
    <defs>
     <path d="M 4.6875 0 
L 4.6875 5.90625 
L 14.015625 5.90625 
L 14.015625 67 
L 4.6875 67 
L 4.6875 72.90625 
L 47.90625 72.90625 
Q 61.234375 72.90625 67.921875 68.40625 
Q 74.609375 63.921875 74.609375 54.890625 
Q 74.609375 48.390625 69.984375 44.578125 
Q 65.375 40.765625 56.296875 39.796875 
Q 67.28125 38.765625 73.140625 33.9375 
Q 79 29.109375 79 21.09375 
Q 79 10.25 70.8125 5.125 
Q 62.640625 0 45.21875 0 
z
M 32.8125 42.484375 
L 39.203125 42.484375 
Q 47.609375 42.484375 51.65625 45.53125 
Q 55.71875 48.578125 55.71875 54.890625 
Q 55.71875 61.234375 51.78125 64.109375 
Q 47.859375 67 39.203125 67 
L 32.8125 67 
z
M 32.8125 5.90625 
L 39.796875 5.90625 
Q 49.125 5.90625 53.609375 9.609375 
Q 58.109375 13.328125 58.109375 21.09375 
Q 58.109375 28.90625 53.5625 32.765625 
Q 49.03125 36.625 39.796875 36.625 
L 32.8125 36.625 
z
" id="DejaVuSerif-Bold-42"/>
     <path d="M 9.1875 66.609375 
Q 9.1875 70.5625 11.921875 73.265625 
Q 14.65625 75.984375 18.609375 75.984375 
Q 22.46875 75.984375 25.171875 73.265625 
Q 27.875 70.5625 27.875 66.609375 
Q 27.875 62.75 25.171875 60.03125 
Q 22.46875 57.328125 18.609375 57.328125 
Q 14.65625 57.328125 11.921875 60.015625 
Q 9.1875 62.703125 9.1875 66.609375 
z
M 28.078125 5.90625 
L 35.5 5.90625 
L 35.5 0 
L 3.421875 0 
L 3.421875 5.90625 
L 10.796875 5.90625 
L 10.796875 46 
L 3.421875 46 
L 3.421875 51.90625 
L 28.078125 51.90625 
z
" id="DejaVuSerif-Bold-69"/>
     <path d="M 3.421875 0 
L 3.421875 5.90625 
L 10.796875 5.90625 
L 10.796875 46 
L 3.421875 46 
L 3.421875 51.90625 
L 28.078125 51.90625 
L 28.078125 44.578125 
Q 31.203125 49.21875 35.203125 51.265625 
Q 39.203125 53.328125 45.3125 53.328125 
Q 54.046875 53.328125 58.515625 48.171875 
Q 62.984375 43.015625 62.984375 33.015625 
L 62.984375 5.90625 
L 70.40625 5.90625 
L 70.40625 0 
L 39.40625 0 
L 39.40625 5.90625 
L 45.703125 5.90625 
L 45.703125 33.5 
Q 45.703125 40.09375 44.015625 42.65625 
Q 42.328125 45.21875 38.1875 45.21875 
Q 32.953125 45.21875 30.515625 41.375 
Q 28.078125 37.546875 28.078125 29.203125 
L 28.078125 5.90625 
L 34.421875 5.90625 
L 34.421875 0 
z
" id="DejaVuSerif-Bold-6e"/>
     <path d="M 55.078125 31.890625 
L 55.078125 5.90625 
L 62.5 5.90625 
L 62.5 0 
L 37.796875 0 
L 37.796875 6.59375 
Q 34.375 2.484375 30.171875 0.53125 
Q 25.984375 -1.421875 20.609375 -1.421875 
Q 12.640625 -1.421875 8.375 2.84375 
Q 4.109375 7.125 4.109375 15.09375 
Q 4.109375 23.828125 10.234375 28.171875 
Q 16.359375 32.515625 28.71875 32.515625 
L 37.796875 32.515625 
L 37.796875 35.59375 
Q 37.796875 41.890625 34.8125 44.890625 
Q 31.84375 47.90625 25.59375 47.90625 
Q 20.40625 47.90625 17.59375 45.78125 
Q 14.796875 43.65625 13.625 38.8125 
L 8.109375 38.8125 
L 8.109375 50 
Q 12.75 51.65625 17.71875 52.484375 
Q 22.703125 53.328125 28.21875 53.328125 
Q 42.140625 53.328125 48.609375 48.140625 
Q 55.078125 42.96875 55.078125 31.890625 
z
M 37.796875 16.3125 
L 37.796875 26.703125 
L 31.296875 26.703125 
Q 26.46875 26.703125 23.875 24.0625 
Q 21.296875 21.4375 21.296875 16.5 
Q 21.296875 11.578125 23.171875 9.125 
Q 25.046875 6.6875 28.90625 6.6875 
Q 32.90625 6.6875 35.34375 9.328125 
Q 37.796875 11.96875 37.796875 16.3125 
z
" id="DejaVuSerif-Bold-61"/>
     <path d="M 53.71875 52.484375 
L 53.71875 37.015625 
L 48.1875 37.015625 
Q 47.90625 41.15625 45.953125 43.1875 
Q 44 45.21875 40.28125 45.21875 
Q 34.625 45.21875 31.34375 40.234375 
Q 28.078125 35.25 28.078125 26.421875 
L 28.078125 5.90625 
L 37.5 5.90625 
L 37.5 0 
L 3.421875 0 
L 3.421875 5.90625 
L 10.796875 5.90625 
L 10.796875 46 
L 2.875 46 
L 2.875 51.90625 
L 28.078125 51.90625 
L 28.078125 42.671875 
Q 30.609375 48.09375 34.78125 50.703125 
Q 38.96875 53.328125 45.015625 53.328125 
Q 46.53125 53.328125 48.703125 53.09375 
Q 50.875 52.875 53.71875 52.484375 
z
" id="DejaVuSerif-Bold-72"/>
     <path d="M 31.203125 -11.71875 
Q 28.859375 -17.4375 25.53125 -19.828125 
Q 22.21875 -22.21875 16.609375 -22.21875 
Q 14.203125 -22.21875 11.265625 -21.671875 
Q 8.34375 -21.140625 4.890625 -20.125 
L 4.890625 -9.28125 
L 10.40625 -9.328125 
Q 10.546875 -13.09375 12.171875 -14.890625 
Q 13.8125 -16.703125 17.09375 -16.703125 
Q 20.265625 -16.703125 22.21875 -14.96875 
Q 24.171875 -13.234375 26.125 -8.40625 
L 26.90625 -6.59375 
L 4.296875 46 
L -1.3125 46 
L -1.3125 51.90625 
L 28.609375 51.90625 
L 28.609375 46 
L 22.40625 46 
L 35.59375 15.28125 
L 47.90625 46 
L 41.015625 46 
L 41.015625 51.90625 
L 60.5 51.90625 
L 60.5 46 
L 54.203125 46 
z
" id="DejaVuSerif-Bold-79"/>
     <path id="DejaVuSerif-Bold-20"/>
     <path d="M 28.078125 5.90625 
L 35.5 5.90625 
L 35.5 0 
L 3.421875 0 
L 3.421875 5.90625 
L 10.796875 5.90625 
L 10.796875 70.125 
L 3.421875 70.125 
L 3.421875 75.984375 
L 28.078125 75.984375 
z
" id="DejaVuSerif-Bold-6c"/>
     <path d="M 48.390625 62.984375 
L 42.921875 62.984375 
Q 42.53125 66.796875 40.703125 68.65625 
Q 38.875 70.515625 35.5 70.515625 
Q 31.59375 70.515625 29.828125 67.703125 
Q 28.078125 64.890625 28.078125 58.59375 
L 28.078125 51.90625 
L 41.109375 51.90625 
L 41.109375 46 
L 28.078125 46 
L 28.078125 5.90625 
L 38.09375 5.90625 
L 38.09375 0 
L 3.421875 0 
L 3.421875 5.90625 
L 10.796875 5.90625 
L 10.796875 46 
L 3.078125 46 
L 3.078125 51.90625 
L 10.796875 51.90625 
L 10.796875 58.40625 
Q 10.796875 67.046875 16.3125 71.515625 
Q 21.828125 75.984375 32.515625 75.984375 
Q 36.671875 75.984375 40.625 75.515625 
Q 44.578125 75.046875 48.390625 74.125 
z
" id="DejaVuSerif-Bold-66"/>
     <path d="M 40.09375 29.296875 
Q 40.09375 39.546875 38.1875 43.671875 
Q 36.28125 47.796875 31.6875 47.796875 
Q 27.25 47.796875 25.3125 43.75 
Q 23.390625 39.703125 23.390625 30.171875 
L 23.390625 29.296875 
z
M 59.078125 23.484375 
L 23.390625 23.484375 
L 23.390625 23.09375 
Q 23.390625 13.03125 26.40625 8.5625 
Q 29.4375 4.109375 36.1875 4.109375 
Q 41.796875 4.109375 45.265625 7.078125 
Q 48.734375 10.0625 49.703125 15.71875 
L 57.8125 15.71875 
Q 55.71875 6.890625 49.46875 2.734375 
Q 43.21875 -1.421875 31.984375 -1.421875 
Q 18.5 -1.421875 11.296875 5.6875 
Q 4.109375 12.796875 4.109375 25.984375 
Q 4.109375 38.875 11.46875 46.09375 
Q 18.84375 53.328125 31.984375 53.328125 
Q 44.875 53.328125 51.75 45.734375 
Q 58.640625 38.140625 59.078125 23.484375 
z
" id="DejaVuSerif-Bold-65"/>
     <path d="M 9.90625 46 
L 2.390625 46 
L 2.390625 51.90625 
L 9.90625 51.90625 
L 9.90625 68.015625 
L 27.203125 68.015625 
L 27.203125 51.90625 
L 41.609375 51.90625 
L 41.609375 46 
L 27.203125 46 
L 27.203125 14.203125 
Q 27.203125 7.421875 28.265625 5.765625 
Q 29.34375 4.109375 32.171875 4.109375 
Q 35.296875 4.109375 36.8125 6.203125 
Q 38.328125 8.296875 38.421875 12.703125 
L 45.703125 12.703125 
Q 45.265625 4.890625 41.421875 1.734375 
Q 37.59375 -1.421875 28.21875 -1.421875 
Q 17.53125 -1.421875 13.71875 1.921875 
Q 9.90625 5.28125 9.90625 14.203125 
z
" id="DejaVuSerif-Bold-74"/>
     <path d="M 68.796875 50 
Q 66.609375 59.671875 61.46875 63.984375 
Q 56.34375 68.3125 47.015625 68.3125 
Q 35.6875 68.3125 30.390625 60.625 
Q 25.09375 52.9375 25.09375 36.375 
Q 25.09375 19.96875 30.171875 12.234375 
Q 35.25 4.5 46 4.5 
Q 50.09375 4.5 53.609375 5.421875 
Q 57.125 6.34375 60.015625 8.203125 
L 60.015625 28.21875 
L 51.21875 28.21875 
L 51.21875 34.078125 
L 77.484375 34.078125 
L 77.484375 6.109375 
Q 69.28125 2.296875 61.109375 0.4375 
Q 52.9375 -1.421875 44.390625 -1.421875 
Q 25.640625 -1.421875 14.921875 8.6875 
Q 4.203125 18.796875 4.203125 36.375 
Q 4.203125 54 14.921875 64.109375 
Q 25.640625 74.21875 44.390625 74.21875 
Q 52.203125 74.21875 59.765625 72.65625 
Q 67.328125 71.09375 75 67.921875 
L 75 50 
z
" id="DejaVuSerif-Bold-47"/>
    </defs>
    <g transform="translate(370.498122 39.067362)scale(0.22 -0.22)">
     <use xlink:href="#DejaVuSerif-Bold-42"/>
     <use x="84.521484" xlink:href="#DejaVuSerif-Bold-69"/>
     <use x="122.509766" xlink:href="#DejaVuSerif-Bold-6e"/>
     <use x="195.214844" xlink:href="#DejaVuSerif-Bold-61"/>
     <use x="260.009766" xlink:href="#DejaVuSerif-Bold-72"/>
     <use x="312.695312" xlink:href="#DejaVuSerif-Bold-79"/>
     <use x="370.800781" xlink:href="#DejaVuSerif-Bold-20"/>
     <use x="405.615234" xlink:href="#DejaVuSerif-Bold-6c"/>
     <use x="443.603516" xlink:href="#DejaVuSerif-Bold-69"/>
     <use x="481.591797" xlink:href="#DejaVuSerif-Bold-66"/>
     <use x="524.609375" xlink:href="#DejaVuSerif-Bold-65"/>
     <use x="588.232422" xlink:href="#DejaVuSerif-Bold-74"/>
     <use x="634.423828" xlink:href="#DejaVuSerif-Bold-69"/>
     <use x="672.412109" xlink:href="#DejaVuSerif-Bold-6d"/>
     <use x="778.222656" xlink:href="#DejaVuSerif-Bold-65"/>
     <use x="841.845703" xlink:href="#DejaVuSerif-Bold-20"/>
     <use x="876.660156" xlink:href="#DejaVuSerif-Bold-5b"/>
     <use x="923.974609" xlink:href="#DejaVuSerif-Bold-47"/>
     <use x="1009.375" xlink:href="#DejaVuSerif-Bold-79"/>
     <use x="1067.480469" xlink:href="#DejaVuSerif-Bold-72"/>
     <use x="1120.166016" xlink:href="#DejaVuSerif-Bold-5d"/>
    </g>
   </g>
   <g id="text_7">
    <g clip-path="url(#p4f12e175c0)">
     <!-- 0.2 -->
     <defs>
      <path d="M 8.109375 7.90625 
Q 8.109375 11.71875 10.84375 14.453125 
Q 13.578125 17.1875 17.390625 17.1875 
Q 21.234375 17.1875 23.96875 14.453125 
Q 26.703125 11.71875 26.703125 7.90625 
Q 26.703125 4.046875 23.96875 1.3125 
Q 21.234375 -1.421875 17.390625 -1.421875 
Q 13.578125 -1.421875 10.84375 1.3125 
Q 8.109375 4.046875 8.109375 7.90625 
z
" id="DejaVuSerif-Bold-2e"/>
      <path d="M 13.1875 54.890625 
L 7.328125 54.890625 
L 7.328125 70.609375 
Q 13.28125 72.40625 19.109375 73.3125 
Q 24.953125 74.21875 30.90625 74.21875 
Q 44.828125 74.21875 52.609375 68.53125 
Q 60.40625 62.84375 60.40625 52.6875 
Q 60.40625 45.453125 56.109375 39.71875 
Q 51.8125 33.984375 39.703125 26.125 
L 19.390625 12.796875 
L 53.90625 12.796875 
L 53.90625 21.390625 
L 60.59375 21.390625 
L 60.59375 0 
L 6.6875 0 
L 6.6875 11.921875 
L 17.484375 19.390625 
Q 31.296875 28.90625 35.890625 35.59375 
Q 40.484375 42.28125 40.484375 51.21875 
Q 40.484375 59.671875 36.984375 64.078125 
Q 33.5 68.5 26.8125 68.5 
Q 21.046875 68.5 17.578125 65.015625 
Q 14.109375 61.53125 13.1875 54.890625 
z
" id="DejaVuSerif-Bold-32"/>
     </defs>
     <g transform="translate(596.37654 126.671703)rotate(-90)scale(0.16 -0.16)">
      <use xlink:href="#DejaVuSerif-Bold-30"/>
      <use x="69.580078" xlink:href="#DejaVuSerif-Bold-2e"/>
      <use x="104.394531" xlink:href="#DejaVuSerif-Bold-32"/>
     </g>
    </g>
   </g>
   <g id="text_8">
    <g clip-path="url(#p4f12e175c0)">
     <!-- 0.5 -->
     <defs>
      <path d="M 56.390625 72.90625 
L 56.390625 60.109375 
L 17.390625 60.109375 
L 17.390625 44.09375 
Q 20.609375 46.578125 24.5625 47.84375 
Q 28.515625 49.125 32.90625 49.125 
Q 46.390625 49.125 54.203125 42.3125 
Q 62.015625 35.5 62.015625 23.78125 
Q 62.015625 11.859375 54.203125 5.21875 
Q 46.390625 -1.421875 32.328125 -1.421875 
Q 26.375 -1.421875 20.484375 -0.4375 
Q 14.59375 0.53125 8.203125 2.59375 
L 8.203125 18.5 
L 14.0625 18.5 
Q 14.359375 11.328125 17.796875 7.8125 
Q 21.234375 4.296875 27.984375 4.296875 
Q 35.15625 4.296875 38.625 9.109375 
Q 42.09375 13.921875 42.09375 23.78125 
Q 42.09375 33.5 38.6875 38.296875 
Q 35.296875 43.109375 28.421875 43.109375 
Q 24.703125 43.109375 21.796875 41.578125 
Q 18.890625 40.046875 16.40625 36.8125 
L 11.53125 36.8125 
L 11.53125 72.90625 
z
" id="DejaVuSerif-Bold-35"/>
     </defs>
     <g transform="translate(536.31886 126.671703)rotate(-90)scale(0.16 -0.16)">
      <use xlink:href="#DejaVuSerif-Bold-30"/>
      <use x="69.580078" xlink:href="#DejaVuSerif-Bold-2e"/>
      <use x="104.394531" xlink:href="#DejaVuSerif-Bold-35"/>
     </g>
    </g>
   </g>
   <g id="text_9">
    <g clip-path="url(#p4f12e175c0)">
     <!-- 1.0 -->
     <g transform="translate(493.575908 126.671703)rotate(-90)scale(0.16 -0.16)">
      <use xlink:href="#DejaVuSerif-Bold-31"/>
      <use x="69.580078" xlink:href="#DejaVuSerif-Bold-2e"/>
      <use x="104.394531" xlink:href="#DejaVuSerif-Bold-30"/>
     </g>
    </g>
   </g>
   <g id="text_10">
    <g clip-path="url(#p4f12e175c0)">
     <!-- 2.0 -->
     <g transform="translate(452.803878 126.671703)rotate(-90)scale(0.16 -0.16)">
      <use xlink:href="#DejaVuSerif-Bold-32"/>
      <use x="69.580078" xlink:href="#DejaVuSerif-Bold-2e"/>
      <use x="104.394531" xlink:href="#DejaVuSerif-Bold-30"/>
     </g>
    </g>
   </g>
   <g id="text_11">
    <g clip-path="url(#p4f12e175c0)">
     <!-- 2.0 -->
     <g transform="translate(132.516167 88.930876)rotate(-60.232101)scale(0.16 -0.16)">
      <use xlink:href="#DejaVuSerif-Bold-32"/>
      <use x="69.580078" xlink:href="#DejaVuSerif-Bold-2e"/>
      <use x="104.394531" xlink:href="#DejaVuSerif-Bold-30"/>
     </g>
    </g>
   </g>
   <g id="text_12">
    <g clip-path="url(#p4f12e175c0)">
     <!-- 4.0 -->
     <defs>
      <path d="M 63.8125 0 
L 23.6875 0 
L 23.6875 5.90625 
L 34.515625 5.90625 
L 34.515625 19.1875 
L 4.109375 19.1875 
L 4.109375 24.8125 
L 34.625 74.21875 
L 52.984375 74.21875 
L 52.984375 25.484375 
L 65.484375 25.484375 
L 65.484375 19.1875 
L 52.984375 19.1875 
L 52.984375 5.90625 
L 63.8125 5.90625 
z
M 34.515625 25.484375 
L 34.515625 60.890625 
L 12.796875 25.484375 
z
" id="DejaVuSerif-Bold-34"/>
     </defs>
     <g transform="translate(414.732534 126.671703)rotate(-90)scale(0.16 -0.16)">
      <use xlink:href="#DejaVuSerif-Bold-34"/>
      <use x="69.580078" xlink:href="#DejaVuSerif-Bold-2e"/>
      <use x="104.394531" xlink:href="#DejaVuSerif-Bold-30"/>
     </g>
    </g>
   </g>
   <g id="text_13">
    <g clip-path="url(#p4f12e175c0)">
     <!-- 4.0 -->
     <g transform="translate(223.948703 88.497883)rotate(-53.81976)scale(0.16 -0.16)">
      <use xlink:href="#DejaVuSerif-Bold-34"/>
      <use x="69.580078" xlink:href="#DejaVuSerif-Bold-2e"/>
      <use x="104.394531" xlink:href="#DejaVuSerif-Bold-30"/>
     </g>
    </g>
   </g>
   <g id="text_14">
    <g clip-path="url(#p4f12e175c0)">
     <!-- 8.0 -->
     <defs>
      <path d="M 46.484375 38.8125 
Q 55.171875 37.40625 59.6875 32.421875 
Q 64.203125 27.4375 64.203125 19.390625 
Q 64.203125 9.328125 56.609375 3.953125 
Q 49.03125 -1.421875 34.71875 -1.421875 
Q 20.40625 -1.421875 12.78125 3.953125 
Q 5.171875 9.328125 5.171875 19.390625 
Q 5.171875 27.4375 9.71875 32.421875 
Q 14.265625 37.40625 22.90625 38.8125 
Q 15.234375 40.578125 11.421875 44.703125 
Q 7.625 48.828125 7.625 55.171875 
Q 7.625 64.453125 14.546875 69.328125 
Q 21.484375 74.21875 34.71875 74.21875 
Q 47.90625 74.21875 54.859375 69.328125 
Q 61.8125 64.453125 61.8125 55.171875 
Q 61.8125 48.828125 57.984375 44.703125 
Q 54.15625 40.578125 46.484375 38.8125 
z
M 42.921875 54.984375 
Q 42.921875 62.703125 41.0625 65.59375 
Q 39.203125 68.5 34.71875 68.5 
Q 30.171875 68.5 28.34375 65.59375 
Q 26.515625 62.703125 26.515625 54.984375 
Q 26.515625 47.3125 28.34375 44.453125 
Q 30.171875 41.609375 34.71875 41.609375 
Q 39.265625 41.609375 41.09375 44.453125 
Q 42.921875 47.3125 42.921875 54.984375 
z
M 44.828125 20.21875 
Q 44.828125 29.15625 42.546875 32.515625 
Q 40.28125 35.890625 34.71875 35.890625 
Q 29.109375 35.890625 26.859375 32.515625 
Q 24.609375 29.15625 24.609375 20.21875 
Q 24.609375 11.1875 26.875 7.734375 
Q 29.15625 4.296875 34.71875 4.296875 
Q 40.234375 4.296875 42.53125 7.734375 
Q 44.828125 11.1875 44.828125 20.21875 
z
" id="DejaVuSerif-Bold-38"/>
     </defs>
     <g transform="translate(368.190881 99.674845)rotate(-278.790091)scale(0.16 -0.16)">
      <use xlink:href="#DejaVuSerif-Bold-38"/>
      <use x="69.580078" xlink:href="#DejaVuSerif-Bold-2e"/>
      <use x="104.394531" xlink:href="#DejaVuSerif-Bold-30"/>
     </g>
    </g>
   </g>
   <g id="text_15">
    <g clip-path="url(#p4f12e175c0)">
     <!-- 10.0 -->
     <g transform="translate(287.225883 211.389332)rotate(-53.882019)scale(0.16 -0.16)">
      <use xlink:href="#DejaVuSerif-Bold-31"/>
      <use x="69.580078" xlink:href="#DejaVuSerif-Bold-30"/>
      <use x="139.160156" xlink:href="#DejaVuSerif-Bold-2e"/>
      <use x="173.974609" xlink:href="#DejaVuSerif-Bold-30"/>
     </g>
    </g>
   </g>
  </g>
 </g>
 <defs>
  <clipPath id="p4f12e175c0">
   <rect height="304.92" width="558" x="80.0675" y="15.558281"/>
  </clipPath>
 </defs>
</svg>
