<?xml version="1.0" encoding="utf-8" standalone="no"?>
<!DOCTYPE svg PUBLIC "-//W3C//DTD SVG 1.1//EN"
  "http://www.w3.org/Graphics/SVG/1.1/DTD/svg11.dtd">
<!-- Created with matplotlib (http://matplotlib.org/) -->
<svg height="446pt" version="1.1" viewBox="0 0 670 446" width="670pt" xmlns="http://www.w3.org/2000/svg" xmlns:xlink="http://www.w3.org/1999/xlink">
 <defs>
  <style type="text/css">
*{stroke-linecap:butt;stroke-linejoin:round;}
  </style>
 </defs>
 <g id="figure_1">
  <g id="patch_1">
   <path d="M 0 446.939375 
L 670.564062 446.939375 
L 670.564062 0 
L 0 0 
z
" style="fill:#ffffff;"/>
  </g>
  <g id="axes_1">
   <g id="patch_2">
    <path d="M 86.2275 387.72 
L 644.2275 387.72 
L 644.2275 7.2 
L 86.2275 7.2 
z
" style="fill:#ffffff;"/>
   </g>
   <g id="matplotlib.axis_1">
    <g id="xtick_1">
     <g id="line2d_1">
      <defs>
       <path d="M 0 0 
L 0 -6 
" id="mb838697b40" style="stroke:#333333;stroke-width:0.8;"/>
      </defs>
      <g>
       <use style="fill:#333333;stroke:#333333;stroke-width:0.8;" x="86.2275" xlink:href="#mb838697b40" y="387.72"/>
      </g>
     </g>
     <g id="text_1">
      <!-- 0.0 -->
      <defs>
       <path d="M 34.8125 4.296875 
Q 40.671875 4.296875 42.84375 9.609375 
Q 45.015625 14.9375 45.015625 36.375 
Q 45.015625 57.671875 42.84375 63.078125 
Q 40.671875 68.5 34.8125 68.5 
Q 28.953125 68.5 26.78125 63.171875 
Q 24.609375 57.859375 24.609375 36.375 
Q 24.609375 14.9375 26.78125 9.609375 
Q 28.953125 4.296875 34.8125 4.296875 
z
M 34.8125 -1.421875 
Q 20.21875 -1.421875 12.453125 8.3125 
Q 4.6875 18.0625 4.6875 36.375 
Q 4.6875 54.6875 12.453125 64.453125 
Q 20.21875 74.21875 34.8125 74.21875 
Q 49.359375 74.21875 57.125 64.453125 
Q 64.890625 54.6875 64.890625 36.375 
Q 64.890625 18.0625 57.125 8.3125 
Q 49.359375 -1.421875 34.8125 -1.421875 
z
" id="DejaVuSerif-Bold-30"/>
       <path d="M 8.109375 7.90625 
Q 8.109375 11.71875 10.84375 14.453125 
Q 13.578125 17.1875 17.390625 17.1875 
Q 21.234375 17.1875 23.96875 14.453125 
Q 26.703125 11.71875 26.703125 7.90625 
Q 26.703125 4.046875 23.96875 1.3125 
Q 21.234375 -1.421875 17.390625 -1.421875 
Q 13.578125 -1.421875 10.84375 1.3125 
Q 8.109375 4.046875 8.109375 7.90625 
z
" id="DejaVuSerif-Bold-2e"/>
      </defs>
      <g style="fill:#333333;" transform="translate(67.090938 407.936562)scale(0.22 -0.22)">
       <use xlink:href="#DejaVuSerif-Bold-30"/>
       <use x="69.580078" xlink:href="#DejaVuSerif-Bold-2e"/>
       <use x="104.394531" xlink:href="#DejaVuSerif-Bold-30"/>
      </g>
     </g>
    </g>
    <g id="xtick_2">
     <g id="line2d_2">
      <g>
       <use style="fill:#333333;stroke:#333333;stroke-width:0.8;" x="197.8275" xlink:href="#mb838697b40" y="387.72"/>
      </g>
     </g>
     <g id="text_2">
      <!-- 0.2 -->
      <defs>
       <path d="M 13.1875 54.890625 
L 7.328125 54.890625 
L 7.328125 70.609375 
Q 13.28125 72.40625 19.109375 73.3125 
Q 24.953125 74.21875 30.90625 74.21875 
Q 44.828125 74.21875 52.609375 68.53125 
Q 60.40625 62.84375 60.40625 52.6875 
Q 60.40625 45.453125 56.109375 39.71875 
Q 51.8125 33.984375 39.703125 26.125 
L 19.390625 12.796875 
L 53.90625 12.796875 
L 53.90625 21.390625 
L 60.59375 21.390625 
L 60.59375 0 
L 6.6875 0 
L 6.6875 11.921875 
L 17.484375 19.390625 
Q 31.296875 28.90625 35.890625 35.59375 
Q 40.484375 42.28125 40.484375 51.21875 
Q 40.484375 59.671875 36.984375 64.078125 
Q 33.5 68.5 26.8125 68.5 
Q 21.046875 68.5 17.578125 65.015625 
Q 14.109375 61.53125 13.1875 54.890625 
z
" id="DejaVuSerif-Bold-32"/>
      </defs>
      <g style="fill:#333333;" transform="translate(178.690938 407.936562)scale(0.22 -0.22)">
       <use xlink:href="#DejaVuSerif-Bold-30"/>
       <use x="69.580078" xlink:href="#DejaVuSerif-Bold-2e"/>
       <use x="104.394531" xlink:href="#DejaVuSerif-Bold-32"/>
      </g>
     </g>
    </g>
    <g id="xtick_3">
     <g id="line2d_3">
      <g>
       <use style="fill:#333333;stroke:#333333;stroke-width:0.8;" x="309.4275" xlink:href="#mb838697b40" y="387.72"/>
      </g>
     </g>
     <g id="text_3">
      <!-- 0.4 -->
      <defs>
       <path d="M 63.8125 0 
L 23.6875 0 
L 23.6875 5.90625 
L 34.515625 5.90625 
L 34.515625 19.1875 
L 4.109375 19.1875 
L 4.109375 24.8125 
L 34.625 74.21875 
L 52.984375 74.21875 
L 52.984375 25.484375 
L 65.484375 25.484375 
L 65.484375 19.1875 
L 52.984375 19.1875 
L 52.984375 5.90625 
L 63.8125 5.90625 
z
M 34.515625 25.484375 
L 34.515625 60.890625 
L 12.796875 25.484375 
z
" id="DejaVuSerif-Bold-34"/>
      </defs>
      <g style="fill:#333333;" transform="translate(290.290937 407.936562)scale(0.22 -0.22)">
       <use xlink:href="#DejaVuSerif-Bold-30"/>
       <use x="69.580078" xlink:href="#DejaVuSerif-Bold-2e"/>
       <use x="104.394531" xlink:href="#DejaVuSerif-Bold-34"/>
      </g>
     </g>
    </g>
    <g id="xtick_4">
     <g id="line2d_4">
      <g>
       <use style="fill:#333333;stroke:#333333;stroke-width:0.8;" x="421.0275" xlink:href="#mb838697b40" y="387.72"/>
      </g>
     </g>
     <g id="text_4">
      <!-- 0.6 -->
      <defs>
       <path d="M 24.609375 43.21875 
Q 27.78125 45.75 31.703125 47.015625 
Q 35.640625 48.296875 40.28125 48.296875 
Q 51.46875 48.296875 57.828125 41.75 
Q 64.203125 35.203125 64.203125 23.78125 
Q 64.203125 11.71875 57.03125 5.140625 
Q 49.859375 -1.421875 36.625 -1.421875 
Q 21.6875 -1.421875 13.984375 7.59375 
Q 6.296875 16.609375 6.296875 34.078125 
Q 6.296875 53.953125 14.84375 64.078125 
Q 23.390625 74.21875 40.1875 74.21875 
Q 44.578125 74.21875 49.609375 73.484375 
Q 54.640625 72.75 60.40625 71.296875 
L 60.40625 58.40625 
L 54.5 58.40625 
Q 53.265625 63.375 49.875 65.9375 
Q 46.484375 68.5 41.109375 68.5 
Q 32.421875 68.5 28.53125 62.546875 
Q 24.65625 56.59375 24.609375 43.21875 
z
M 35.5 4.296875 
Q 40.53125 4.296875 42.671875 8.5625 
Q 44.828125 12.84375 44.828125 23.390625 
Q 44.828125 33.9375 42.671875 38.203125 
Q 40.53125 42.484375 35.5 42.484375 
Q 30.46875 42.484375 28.34375 38.203125 
Q 26.21875 33.9375 26.21875 23.390625 
Q 26.21875 12.84375 28.34375 8.5625 
Q 30.46875 4.296875 35.5 4.296875 
z
" id="DejaVuSerif-Bold-36"/>
      </defs>
      <g style="fill:#333333;" transform="translate(401.890938 407.936562)scale(0.22 -0.22)">
       <use xlink:href="#DejaVuSerif-Bold-30"/>
       <use x="69.580078" xlink:href="#DejaVuSerif-Bold-2e"/>
       <use x="104.394531" xlink:href="#DejaVuSerif-Bold-36"/>
      </g>
     </g>
    </g>
    <g id="xtick_5">
     <g id="line2d_5">
      <g>
       <use style="fill:#333333;stroke:#333333;stroke-width:0.8;" x="532.6275" xlink:href="#mb838697b40" y="387.72"/>
      </g>
     </g>
     <g id="text_5">
      <!-- 0.8 -->
      <defs>
       <path d="M 46.484375 38.8125 
Q 55.171875 37.40625 59.6875 32.421875 
Q 64.203125 27.4375 64.203125 19.390625 
Q 64.203125 9.328125 56.609375 3.953125 
Q 49.03125 -1.421875 34.71875 -1.421875 
Q 20.40625 -1.421875 12.78125 3.953125 
Q 5.171875 9.328125 5.171875 19.390625 
Q 5.171875 27.4375 9.71875 32.421875 
Q 14.265625 37.40625 22.90625 38.8125 
Q 15.234375 40.578125 11.421875 44.703125 
Q 7.625 48.828125 7.625 55.171875 
Q 7.625 64.453125 14.546875 69.328125 
Q 21.484375 74.21875 34.71875 74.21875 
Q 47.90625 74.21875 54.859375 69.328125 
Q 61.8125 64.453125 61.8125 55.171875 
Q 61.8125 48.828125 57.984375 44.703125 
Q 54.15625 40.578125 46.484375 38.8125 
z
M 42.921875 54.984375 
Q 42.921875 62.703125 41.0625 65.59375 
Q 39.203125 68.5 34.71875 68.5 
Q 30.171875 68.5 28.34375 65.59375 
Q 26.515625 62.703125 26.515625 54.984375 
Q 26.515625 47.3125 28.34375 44.453125 
Q 30.171875 41.609375 34.71875 41.609375 
Q 39.265625 41.609375 41.09375 44.453125 
Q 42.921875 47.3125 42.921875 54.984375 
z
M 44.828125 20.21875 
Q 44.828125 29.15625 42.546875 32.515625 
Q 40.28125 35.890625 34.71875 35.890625 
Q 29.109375 35.890625 26.859375 32.515625 
Q 24.609375 29.15625 24.609375 20.21875 
Q 24.609375 11.1875 26.875 7.734375 
Q 29.15625 4.296875 34.71875 4.296875 
Q 40.234375 4.296875 42.53125 7.734375 
Q 44.828125 11.1875 44.828125 20.21875 
z
" id="DejaVuSerif-Bold-38"/>
      </defs>
      <g style="fill:#333333;" transform="translate(513.490938 407.936562)scale(0.22 -0.22)">
       <use xlink:href="#DejaVuSerif-Bold-30"/>
       <use x="69.580078" xlink:href="#DejaVuSerif-Bold-2e"/>
       <use x="104.394531" xlink:href="#DejaVuSerif-Bold-38"/>
      </g>
     </g>
    </g>
    <g id="xtick_6">
     <g id="line2d_6">
      <g>
       <use style="fill:#333333;stroke:#333333;stroke-width:0.8;" x="644.2275" xlink:href="#mb838697b40" y="387.72"/>
      </g>
     </g>
     <g id="text_6">
      <!-- 1.0 -->
      <defs>
       <path d="M 13.71875 0 
L 13.71875 5.90625 
L 27.390625 5.90625 
L 27.390625 64.890625 
L 12.203125 55.90625 
L 12.203125 63.1875 
L 30.515625 74.21875 
L 45.90625 74.21875 
L 45.90625 5.90625 
L 59.625 5.90625 
L 59.625 0 
z
" id="DejaVuSerif-Bold-31"/>
      </defs>
      <g style="fill:#333333;" transform="translate(625.090937 407.936562)scale(0.22 -0.22)">
       <use xlink:href="#DejaVuSerif-Bold-31"/>
       <use x="69.580078" xlink:href="#DejaVuSerif-Bold-2e"/>
       <use x="104.394531" xlink:href="#DejaVuSerif-Bold-30"/>
      </g>
     </g>
    </g>
    <g id="text_7">
     <!-- $r/r_*$ -->
     <defs>
      <path d="M 53.71875 52.484375 
L 53.71875 37.015625 
L 48.1875 37.015625 
Q 47.90625 41.15625 45.953125 43.1875 
Q 44 45.21875 40.28125 45.21875 
Q 34.625 45.21875 31.34375 40.234375 
Q 28.078125 35.25 28.078125 26.421875 
L 28.078125 5.90625 
L 37.5 5.90625 
L 37.5 0 
L 3.421875 0 
L 3.421875 5.90625 
L 10.796875 5.90625 
L 10.796875 46 
L 2.875 46 
L 2.875 51.90625 
L 28.078125 51.90625 
L 28.078125 42.671875 
Q 30.609375 48.09375 34.78125 50.703125 
Q 38.96875 53.328125 45.015625 53.328125 
Q 46.53125 53.328125 48.703125 53.09375 
Q 50.875 52.875 53.71875 52.484375 
z
" id="DejaVuSerif-Bold-72"/>
      <path d="M 25.6875 72.90625 
L 36.53125 72.90625 
L 10.796875 -9.28125 
L 0 -9.28125 
z
" id="DejaVuSerif-Bold-2f"/>
      <path d="M 50.09375 59.1875 
L 32.515625 50.984375 
L 50.09375 42.671875 
L 45.3125 35.109375 
L 29.296875 46.78125 
L 30.609375 27.78125 
L 21.6875 27.78125 
L 23 46.78125 
L 6.984375 35.109375 
L 2.203125 42.671875 
L 19.828125 50.984375 
L 2.203125 59.1875 
L 6.984375 66.890625 
L 23 55.078125 
L 21.6875 74.21875 
L 30.609375 74.21875 
L 29.296875 55.078125 
L 45.3125 66.890625 
z
" id="DejaVuSerif-Bold-2a"/>
     </defs>
     <g transform="translate(339.7875 434.748125)scale(0.24 -0.24)">
      <use transform="translate(0 0.09375)" xlink:href="#DejaVuSerif-Bold-72"/>
      <use transform="translate(52.685547 0.09375)" xlink:href="#DejaVuSerif-Bold-2f"/>
      <use transform="translate(89.208984 0.09375)" xlink:href="#DejaVuSerif-Bold-72"/>
      <use transform="translate(157.616367 -15.478125)scale(0.7)" xlink:href="#DejaVuSerif-Bold-2a"/>
     </g>
    </g>
   </g>
   <g id="matplotlib.axis_2">
    <g id="ytick_1">
     <g id="line2d_7">
      <defs>
       <path d="M 0 0 
L 6 0 
" id="m801522e993" style="stroke:#333333;stroke-width:0.8;"/>
      </defs>
      <g>
       <use style="fill:#333333;stroke:#333333;stroke-width:0.8;" x="86.2275" xlink:href="#m801522e993" y="387.72"/>
      </g>
     </g>
     <g id="text_8">
      <!-- $\mathdefault{10^{-1}}$ -->
      <defs>
       <path d="M 10.59375 36.921875 
L 73.1875 36.921875 
L 73.1875 25.6875 
L 10.59375 25.6875 
z
" id="DejaVuSerif-Bold-2212"/>
      </defs>
      <g style="fill:#333333;" transform="translate(27.5075 396.078281)scale(0.22 -0.22)">
       <use transform="translate(0 0.7125)" xlink:href="#DejaVuSerif-Bold-31"/>
       <use transform="translate(69.580078 0.7125)" xlink:href="#DejaVuSerif-Bold-30"/>
       <use transform="translate(140.068516 37.046875)scale(0.7)" xlink:href="#DejaVuSerif-Bold-2212"/>
       <use transform="translate(198.720859 37.046875)scale(0.7)" xlink:href="#DejaVuSerif-Bold-31"/>
      </g>
     </g>
    </g>
    <g id="ytick_2">
     <g id="line2d_8">
      <g>
       <use style="fill:#333333;stroke:#333333;stroke-width:0.8;" x="86.2275" xlink:href="#m801522e993" y="95.244038"/>
      </g>
     </g>
     <g id="text_9">
      <!-- $\mathdefault{10^{0}}$ -->
      <g style="fill:#333333;" transform="translate(40.4875 103.602319)scale(0.22 -0.22)">
       <use transform="translate(0 0.7125)" xlink:href="#DejaVuSerif-Bold-31"/>
       <use transform="translate(69.580078 0.7125)" xlink:href="#DejaVuSerif-Bold-30"/>
       <use transform="translate(140.068516 37.046875)scale(0.7)" xlink:href="#DejaVuSerif-Bold-30"/>
      </g>
     </g>
    </g>
    <g id="ytick_3">
     <g id="line2d_9">
      <defs>
       <path d="M 0 0 
L 3 0 
" id="md3929ce1a1" style="stroke:#333333;stroke-width:0.6;"/>
      </defs>
      <g>
       <use style="fill:#333333;stroke:#333333;stroke-width:0.6;" x="86.2275" xlink:href="#md3929ce1a1" y="299.675962"/>
      </g>
     </g>
    </g>
    <g id="ytick_4">
     <g id="line2d_10">
      <g>
       <use style="fill:#333333;stroke:#333333;stroke-width:0.6;" x="86.2275" xlink:href="#md3929ce1a1" y="248.173502"/>
      </g>
     </g>
    </g>
    <g id="ytick_5">
     <g id="line2d_11">
      <g>
       <use style="fill:#333333;stroke:#333333;stroke-width:0.6;" x="86.2275" xlink:href="#md3929ce1a1" y="211.631925"/>
      </g>
     </g>
    </g>
    <g id="ytick_6">
     <g id="line2d_12">
      <g>
       <use style="fill:#333333;stroke:#333333;stroke-width:0.6;" x="86.2275" xlink:href="#md3929ce1a1" y="183.288075"/>
      </g>
     </g>
    </g>
    <g id="ytick_7">
     <g id="line2d_13">
      <g>
       <use style="fill:#333333;stroke:#333333;stroke-width:0.6;" x="86.2275" xlink:href="#md3929ce1a1" y="160.129464"/>
      </g>
     </g>
    </g>
    <g id="ytick_8">
     <g id="line2d_14">
      <g>
       <use style="fill:#333333;stroke:#333333;stroke-width:0.6;" x="86.2275" xlink:href="#md3929ce1a1" y="140.549137"/>
      </g>
     </g>
    </g>
    <g id="ytick_9">
     <g id="line2d_15">
      <g>
       <use style="fill:#333333;stroke:#333333;stroke-width:0.6;" x="86.2275" xlink:href="#md3929ce1a1" y="123.587887"/>
      </g>
     </g>
    </g>
    <g id="ytick_10">
     <g id="line2d_16">
      <g>
       <use style="fill:#333333;stroke:#333333;stroke-width:0.6;" x="86.2275" xlink:href="#md3929ce1a1" y="108.627004"/>
      </g>
     </g>
    </g>
    <g id="ytick_11">
     <g id="line2d_17">
      <g>
       <use style="fill:#333333;stroke:#333333;stroke-width:0.6;" x="86.2275" xlink:href="#md3929ce1a1" y="7.2"/>
      </g>
     </g>
    </g>
    <g id="text_10">
     <!-- $v/c_s$ -->
     <defs>
      <path d="M 22.3125 0 
L 3.90625 46 
L -1.8125 46 
L -1.8125 51.90625 
L 27.984375 51.90625 
L 27.984375 46 
L 21.6875 46 
L 34.8125 13.1875 
L 47.90625 46 
L 41.109375 46 
L 41.109375 51.90625 
L 60.59375 51.90625 
L 60.59375 46 
L 54.59375 46 
L 36.1875 0 
z
" id="DejaVuSerif-Bold-76"/>
      <path d="M 56.390625 16.21875 
Q 54.546875 7.328125 48.796875 2.953125 
Q 43.0625 -1.421875 33.203125 -1.421875 
Q 19.34375 -1.421875 11.71875 5.75 
Q 4.109375 12.9375 4.109375 25.984375 
Q 4.109375 38.875 11.625 46.09375 
Q 19.140625 53.328125 32.515625 53.328125 
Q 37.9375 53.328125 43.453125 52.296875 
Q 48.96875 51.265625 54.6875 49.21875 
L 54.6875 34.8125 
L 49.21875 34.8125 
Q 48.4375 41.40625 45.359375 44.59375 
Q 42.28125 47.796875 36.71875 47.796875 
Q 29.5 47.796875 26.4375 42.90625 
Q 23.390625 38.03125 23.390625 25.984375 
Q 23.390625 14.203125 26.359375 9.15625 
Q 29.34375 4.109375 36.078125 4.109375 
Q 41.3125 4.109375 44.453125 7.234375 
Q 47.609375 10.359375 48.296875 16.21875 
z
" id="DejaVuSerif-Bold-63"/>
      <path d="M 4.6875 1.515625 
L 4.6875 16.015625 
L 10.203125 16.015625 
Q 10.890625 10.203125 14.546875 7.15625 
Q 18.21875 4.109375 24.515625 4.109375 
Q 29.78125 4.109375 32.59375 5.9375 
Q 35.40625 7.765625 35.40625 11.1875 
Q 35.40625 14.3125 33.625 16.015625 
Q 31.84375 17.71875 26.703125 19 
L 19.578125 20.796875 
Q 11.53125 22.796875 7.90625 26.53125 
Q 4.296875 30.28125 4.296875 36.625 
Q 4.296875 45.0625 10.15625 49.1875 
Q 16.015625 53.328125 28.21875 53.328125 
Q 32.8125 53.328125 38.015625 52.5625 
Q 43.21875 51.8125 49.515625 50.203125 
L 49.515625 37.109375 
L 44 37.109375 
Q 43.5625 42.4375 40.203125 45.109375 
Q 36.859375 47.796875 30.609375 47.796875 
Q 25.34375 47.796875 22.625 46.109375 
Q 19.921875 44.4375 19.921875 41.21875 
Q 19.921875 38.578125 21.484375 37.0625 
Q 23.046875 35.546875 27.09375 34.515625 
L 34.1875 32.71875 
Q 44.390625 30.125 48.296875 26.3125 
Q 52.203125 22.515625 52.203125 15.71875 
Q 52.203125 6.9375 45.921875 2.75 
Q 39.65625 -1.421875 26.421875 -1.421875 
Q 21.578125 -1.421875 16.15625 -0.6875 
Q 10.75 0.046875 4.6875 1.515625 
z
" id="DejaVuSerif-Bold-73"/>
     </defs>
     <g style="fill:#ff0000;" transform="translate(25.43625 297.444)rotate(-90)scale(0.24 -0.24)">
      <use transform="translate(0 0.09375)" xlink:href="#DejaVuSerif-Bold-76"/>
      <use transform="translate(58.105469 0.09375)" xlink:href="#DejaVuSerif-Bold-2f"/>
      <use transform="translate(94.628906 0.09375)" xlink:href="#DejaVuSerif-Bold-63"/>
      <use transform="translate(156.425938 -15.478125)scale(0.7)" xlink:href="#DejaVuSerif-Bold-73"/>
     </g>
    </g>
   </g>
   <g id="line2d_18">
    <path clip-path="url(#p3d1d667b8f)" d="M 87.551962 200.459481 
L 115.607661 200.381676 
L 155.370245 200.190979 
L 168.843965 200.099294 
L 174.669546 199.950336 
L 180.303667 199.998182 
L 200.0401 199.754892 
L 204.449821 199.578223 
L 208.696343 199.614762 
L 216.763432 199.465188 
L 220.609674 199.278821 
L 224.344748 199.302808 
L 231.515765 199.130804 
L 238.334667 198.840334 
L 241.62637 198.847863 
L 247.998423 198.543434 
L 268.453514 197.738146 
L 286.682693 196.790505 
L 303.239242 195.702897 
L 318.473774 194.476711 
L 332.624537 193.118279 
L 345.862274 191.632528 
L 358.314211 190.026324 
L 370.078464 188.307785 
L 382.779278 186.217998 
L 394.774028 184.006729 
L 406.135948 181.688716 
L 416.926204 179.275693 
L 427.193679 176.793443 
L 432.144196 175.430099 
L 444.022967 172.210371 
L 455.240598 168.934737 
L 465.850483 165.628071 
L 477.35896 161.848227 
L 483.088095 159.77039 
L 486.807382 158.511899 
L 499.225844 153.946615 
L 512.348428 148.856852 
L 526.568975 143.069879 
L 532.823251 140.407943 
L 546.898601 134.274256 
L 561.482983 127.670939 
L 577.576177 120.131661 
L 595.431833 111.515493 
L 618.447393 100.13628 
L 638.0782 90.261281 
L 642.137734 88.053563 
L 644.2275 86.839241 
L 644.2275 86.839241 
" style="fill:none;stroke:#000000;stroke-linecap:square;stroke-width:2;"/>
   </g>
   <g id="line2d_19">
    <path clip-path="url(#p3d1d667b8f)" d="M 119.618851 447.939375 
L 123.354882 433.474394 
L 132.548309 404.959938 
L 137.836983 390.867593 
L 142.798624 378.887959 
L 147.036987 369.402236 
L 151.457952 360.163387 
L 155.370245 352.440041 
L 158.90187 345.803833 
L 162.135994 339.977837 
L 168.843965 328.58584 
L 177.56585 314.91721 
L 183.024315 306.92048 
L 188.186784 299.696596 
L 195.447988 290.023008 
L 200.0401 284.167839 
L 212.796288 268.802775 
L 216.763432 264.258773 
L 231.515765 248.163392 
L 238.334667 241.204613 
L 241.62637 237.74715 
L 244.846166 234.518846 
L 271.177967 209.521015 
L 284.191034 197.775516 
L 298.656416 185.090659 
L 314.240506 171.75872 
L 332.624537 156.341497 
L 358.314211 135.116017 
L 403.351269 97.946338 
L 423.402012 81.107617 
L 427.193679 77.880166 
L 429.683715 75.982152 
L 446.317547 61.597137 
L 459.554782 49.882029 
L 471.943829 38.652825 
L 477.35896 33.536558 
L 480.246374 31.189508 
L 483.088095 28.521623 
L 484.957562 26.52573 
L 495.770157 16.145536 
L 505.924203 6.096476 
L 512.899931 -1 
L 512.899931 -1 
" style="fill:none;stroke:#ff0000;stroke-linecap:square;stroke-width:2;"/>
   </g>
   <g id="line2d_20">
    <path clip-path="url(#p3d1d667b8f)" d="M 337.3275 95.244038 
L 644.2275 95.244038 
" style="fill:none;stroke:#808080;stroke-linecap:square;stroke-width:2;"/>
   </g>
   <g id="line2d_21">
    <path clip-path="url(#p3d1d667b8f)" d="M 597.494838 95.244038 
L 597.494838 72.085427 
" style="fill:none;stroke:#808080;stroke-linecap:square;stroke-width:2;"/>
   </g>
   <g id="line2d_22">
    <path clip-path="url(#p3d1d667b8f)" d="M 520.5974 95.244038 
L 520.5974 72.085427 
" style="fill:none;stroke:#808080;stroke-linecap:square;stroke-width:2;"/>
   </g>
   <g id="line2d_23">
    <path clip-path="url(#p3d1d667b8f)" d="M 379.264466 95.244038 
L 379.264466 72.085427 
" style="fill:none;stroke:#808080;stroke-linecap:square;stroke-width:2;"/>
   </g>
   <g id="patch_3">
    <path d="M 86.2275 387.72 
L 86.2275 7.2 
" style="fill:none;stroke:#333333;stroke-linecap:square;stroke-linejoin:miter;stroke-width:0.8;"/>
   </g>
   <g id="patch_4">
    <path d="M 644.2275 387.72 
L 644.2275 7.2 
" style="fill:none;stroke:#333333;stroke-linecap:square;stroke-linejoin:miter;stroke-width:0.8;"/>
   </g>
   <g id="patch_5">
    <path d="M 86.2275 387.72 
L 644.2275 387.72 
" style="fill:none;stroke:#333333;stroke-linecap:square;stroke-linejoin:miter;stroke-width:0.8;"/>
   </g>
   <g id="patch_6">
    <path d="M 86.2275 7.2 
L 644.2275 7.2 
" style="fill:none;stroke:#333333;stroke-linecap:square;stroke-linejoin:miter;stroke-width:0.8;"/>
   </g>
   <g id="text_11">
    <!-- $(v^2+c_s^2)^{1/2}/v_{esc}$ -->
    <defs>
     <path d="M 42.09375 -15.578125 
Q 25.640625 -9.46875 17.53125 1.90625 
Q 9.421875 13.28125 9.421875 30.171875 
Q 9.421875 47.078125 17.421875 58.296875 
Q 25.4375 69.53125 42.09375 75.984375 
L 42.09375 70.125 
Q 34.375 65.4375 30.984375 56.21875 
Q 27.59375 47.015625 27.59375 30.171875 
Q 27.59375 13.375 30.984375 4.171875 
Q 34.375 -5.03125 42.09375 -9.71875 
z
" id="DejaVuSerif-Bold-28"/>
     <path d="M 47.515625 62.703125 
L 47.515625 37.015625 
L 73.1875 37.015625 
L 73.1875 25.78125 
L 47.515625 25.78125 
L 47.515625 0.09375 
L 36.28125 0.09375 
L 36.28125 25.78125 
L 10.59375 25.78125 
L 10.59375 37.015625 
L 36.28125 37.015625 
L 36.28125 62.703125 
z
" id="DejaVuSerif-Bold-2b"/>
     <path d="M 5.078125 -15.578125 
L 5.078125 -9.71875 
Q 12.796875 -5.03125 16.1875 4.171875 
Q 19.578125 13.375 19.578125 30.171875 
Q 19.578125 47.015625 16.1875 56.21875 
Q 12.796875 65.4375 5.078125 70.125 
L 5.078125 75.984375 
Q 21.734375 69.53125 29.765625 58.296875 
Q 37.796875 47.078125 37.796875 30.171875 
Q 37.796875 13.28125 29.65625 1.90625 
Q 21.53125 -9.46875 5.078125 -15.578125 
z
" id="DejaVuSerif-Bold-29"/>
     <path d="M 40.09375 29.296875 
Q 40.09375 39.546875 38.1875 43.671875 
Q 36.28125 47.796875 31.6875 47.796875 
Q 27.25 47.796875 25.3125 43.75 
Q 23.390625 39.703125 23.390625 30.171875 
L 23.390625 29.296875 
z
M 59.078125 23.484375 
L 23.390625 23.484375 
L 23.390625 23.09375 
Q 23.390625 13.03125 26.40625 8.5625 
Q 29.4375 4.109375 36.1875 4.109375 
Q 41.796875 4.109375 45.265625 7.078125 
Q 48.734375 10.0625 49.703125 15.71875 
L 57.8125 15.71875 
Q 55.71875 6.890625 49.46875 2.734375 
Q 43.21875 -1.421875 31.984375 -1.421875 
Q 18.5 -1.421875 11.296875 5.6875 
Q 4.109375 12.796875 4.109375 25.984375 
Q 4.109375 38.875 11.46875 46.09375 
Q 18.84375 53.328125 31.984375 53.328125 
Q 44.875 53.328125 51.75 45.734375 
Q 58.640625 38.140625 59.078125 23.484375 
z
" id="DejaVuSerif-Bold-65"/>
    </defs>
    <g transform="translate(27.6875 208.0451)rotate(-90)scale(0.22 -0.22)">
     <use transform="translate(0 0.7125)" xlink:href="#DejaVuSerif-Bold-28"/>
     <use transform="translate(47.314453 0.7125)" xlink:href="#DejaVuSerif-Bold-76"/>
     <use transform="translate(106.328281 37.046875)scale(0.7)" xlink:href="#DejaVuSerif-Bold-32"/>
     <use transform="translate(178.791758 0.7125)" xlink:href="#DejaVuSerif-Bold-2b"/>
     <use transform="translate(283.74293 0.7125)" xlink:href="#DejaVuSerif-Bold-63"/>
     <use transform="translate(345.539961 37.046875)scale(0.7)" xlink:href="#DejaVuSerif-Bold-32"/>
     <use transform="translate(345.539961 -25.240625)scale(0.7)" xlink:href="#DejaVuSerif-Bold-73"/>
     <use transform="translate(396.841328 0.7125)" xlink:href="#DejaVuSerif-Bold-29"/>
     <use transform="translate(445.064141 37.046875)scale(0.7)" xlink:href="#DejaVuSerif-Bold-31"/>
     <use transform="translate(493.770195 37.046875)scale(0.7)" xlink:href="#DejaVuSerif-Bold-2f"/>
     <use transform="translate(519.336602 37.046875)scale(0.7)" xlink:href="#DejaVuSerif-Bold-32"/>
     <use transform="translate(570.637969 0.7125)" xlink:href="#DejaVuSerif-Bold-2f"/>
     <use transform="translate(607.161406 0.7125)" xlink:href="#DejaVuSerif-Bold-76"/>
     <use transform="translate(666.175234 -14.859375)scale(0.7)" xlink:href="#DejaVuSerif-Bold-65"/>
     <use transform="translate(710.711367 -14.859375)scale(0.7)" xlink:href="#DejaVuSerif-Bold-73"/>
     <use transform="translate(750.120547 -14.859375)scale(0.7)" xlink:href="#DejaVuSerif-Bold-63"/>
    </g>
   </g>
   <g id="text_12">
    <!-- $m_*=$0.3 $M_{\odot}$ -->
    <defs>
     <path d="M 60.6875 43.40625 
Q 64.3125 48.578125 68.5 50.953125 
Q 72.703125 53.328125 78.328125 53.328125 
Q 87.25 53.328125 91.671875 48.265625 
Q 96.09375 43.21875 96.09375 33.015625 
L 96.09375 5.90625 
L 103.515625 5.90625 
L 103.515625 0 
L 72.609375 0 
L 72.609375 5.90625 
L 78.8125 5.90625 
L 78.8125 30.421875 
Q 78.8125 40.140625 77.3125 42.671875 
Q 75.828125 45.21875 71.78125 45.21875 
Q 67.1875 45.21875 64.640625 41.671875 
Q 62.109375 38.140625 62.109375 31.59375 
L 62.109375 5.90625 
L 68.3125 5.90625 
L 68.3125 0 
L 38.625 0 
L 38.625 5.90625 
L 44.828125 5.90625 
L 44.828125 30.421875 
Q 44.828125 40.140625 43.3125 42.671875 
Q 41.796875 45.21875 37.796875 45.21875 
Q 33.15625 45.21875 30.609375 41.671875 
Q 28.078125 38.140625 28.078125 31.59375 
L 28.078125 5.90625 
L 34.28125 5.90625 
L 34.28125 0 
L 3.421875 0 
L 3.421875 5.90625 
L 10.796875 5.90625 
L 10.796875 46 
L 3.421875 46 
L 3.421875 51.90625 
L 28.078125 51.90625 
L 28.078125 44.578125 
Q 31.109375 49.125 35.015625 51.21875 
Q 38.921875 53.328125 44.28125 53.328125 
Q 50.640625 53.328125 54.59375 50.90625 
Q 58.546875 48.484375 60.6875 43.40625 
z
" id="DejaVuSerif-Bold-6d"/>
     <path d="M 10.59375 25.78125 
L 73.1875 25.78125 
L 73.1875 14.703125 
L 10.59375 14.703125 
z
M 10.59375 48 
L 73.1875 48 
L 73.1875 36.921875 
L 10.59375 36.921875 
z
" id="DejaVuSerif-Bold-3d"/>
     <path d="M 8.59375 70.796875 
Q 15.046875 72.515625 21.09375 73.359375 
Q 27.15625 74.21875 32.90625 74.21875 
Q 46.09375 74.21875 53.140625 69.5 
Q 60.203125 64.796875 60.203125 56 
Q 60.203125 49.421875 56.140625 45.3125 
Q 52.09375 41.21875 44.28125 39.796875 
Q 53.8125 38.28125 58.5 33.296875 
Q 63.1875 28.328125 63.1875 19.671875 
Q 63.1875 9.46875 55.09375 4.015625 
Q 47.015625 -1.421875 31.6875 -1.421875 
Q 25.921875 -1.421875 19.796875 -0.4375 
Q 13.671875 0.53125 6.984375 2.484375 
L 6.984375 18.5 
L 12.890625 18.5 
Q 13.421875 11.578125 17.234375 7.9375 
Q 21.046875 4.296875 27.78125 4.296875 
Q 35.203125 4.296875 39.25 8.421875 
Q 43.3125 12.546875 43.3125 20.125 
Q 43.3125 28.03125 39.078125 32.328125 
Q 34.859375 36.625 27.09375 36.625 
L 23.875 36.625 
L 23.875 42.484375 
L 26.421875 42.484375 
Q 33.59375 42.484375 37.203125 45.796875 
Q 40.828125 49.125 40.828125 55.71875 
Q 40.828125 61.921875 37.421875 65.203125 
Q 34.03125 68.5 27.6875 68.5 
Q 21.921875 68.5 18.546875 65.34375 
Q 15.1875 62.203125 14.5 56.203125 
L 8.59375 56.203125 
z
" id="DejaVuSerif-Bold-33"/>
     <path id="DejaVuSerif-Bold-20"/>
     <path d="M 4.203125 0 
L 4.203125 5.90625 
L 13.484375 5.90625 
L 13.484375 67 
L 4.203125 67 
L 4.203125 72.90625 
L 34.28125 72.90625 
L 55.078125 26.125 
L 75.984375 72.90625 
L 106 72.90625 
L 106 67 
L 96.6875 67 
L 96.6875 5.90625 
L 106 5.90625 
L 106 0 
L 68.5 0 
L 68.5 5.90625 
L 77.78125 5.90625 
L 77.78125 61.53125 
L 55.171875 10.6875 
L 42.828125 10.6875 
L 20.3125 61.53125 
L 20.3125 5.90625 
L 29.59375 5.90625 
L 29.59375 0 
z
" id="DejaVuSerif-Bold-4d"/>
     <path d="M 38.09375 22.125 
Q 32.625 27.546875 32.625 31.34375 
Q 32.625 35.15625 35.359375 37.890625 
Q 38.09375 40.625 41.890625 40.625 
Q 45.75 40.625 48.484375 37.890625 
Q 51.21875 35.15625 51.21875 31.34375 
Q 51.21875 27.546875 48.484375 24.828125 
Q 45.75 22.125 41.890625 22.125 
Q 38.09375 22.125 32.625 27.546875 
z
M 27.203125 46.046875 
Q 21.78125 36.765625 21.78125 31.34375 
Q 21.78125 25.921875 24.484375 21.28125 
Q 27.203125 16.65625 31.828125 13.9375 
Q 36.46875 11.234375 41.890625 11.234375 
Q 47.3125 11.234375 51.953125 13.9375 
Q 56.59375 16.65625 59.296875 21.28125 
Q 62.015625 25.921875 62.015625 31.34375 
Q 62.015625 36.765625 59.296875 41.40625 
Q 56.59375 46.046875 51.953125 48.75 
Q 47.3125 51.46875 41.890625 51.46875 
Q 36.46875 51.46875 31.828125 48.75 
Q 27.203125 46.046875 21.78125 36.765625 
z
M 18.953125 8.40625 
Q 10.546875 22.859375 10.546875 31.34375 
Q 10.546875 39.84375 14.75 47.0625 
Q 18.953125 54.296875 26.171875 58.5 
Q 33.40625 62.703125 41.890625 62.703125 
Q 50.390625 62.703125 57.609375 58.5 
Q 64.84375 54.296875 69.046875 47.0625 
Q 73.25 39.84375 73.25 31.34375 
Q 73.25 22.859375 69.046875 15.625 
Q 64.84375 8.40625 57.609375 4.203125 
Q 50.390625 0 41.890625 0 
Q 33.40625 0 26.171875 4.203125 
Q 18.953125 8.40625 10.546875 22.859375 
z
" id="DejaVuSerif-Bold-2299"/>
    </defs>
    <g transform="translate(114.1275 28.265725)scale(0.2 -0.2)">
     <use transform="translate(0 0.78125)" xlink:href="#DejaVuSerif-Bold-6d"/>
     <use transform="translate(121.532383 -14.790625)scale(0.7)" xlink:href="#DejaVuSerif-Bold-2a"/>
     <use transform="translate(196.709727 0.78125)" xlink:href="#DejaVuSerif-Bold-3d"/>
     <use transform="translate(301.660898 0.78125)" xlink:href="#DejaVuSerif-Bold-30"/>
     <use transform="translate(371.240977 0.78125)" xlink:href="#DejaVuSerif-Bold-2e"/>
     <use transform="translate(406.05543 0.78125)" xlink:href="#DejaVuSerif-Bold-33"/>
     <use transform="translate(475.635508 0.78125)" xlink:href="#DejaVuSerif-Bold-20"/>
     <use transform="translate(510.449961 0.78125)" xlink:href="#DejaVuSerif-Bold-4d"/>
     <use transform="translate(622.05168 -14.790625)scale(0.7)" xlink:href="#DejaVuSerif-Bold-2299"/>
    </g>
    <!-- $r_p=1.5 r_t$ -->
    <defs>
     <path d="M 27 28.515625 
L 27 23.390625 
Q 27 14.3125 29.3125 10.25 
Q 31.640625 6.203125 36.8125 6.203125 
Q 42.140625 6.203125 44.3125 10.5 
Q 46.484375 14.796875 46.484375 25.984375 
Q 46.484375 37.15625 44.3125 41.421875 
Q 42.140625 45.703125 36.8125 45.703125 
Q 31.640625 45.703125 29.3125 41.640625 
Q 27 37.59375 27 28.515625 
z
M 9.71875 46 
L 2.296875 46 
L 2.296875 51.90625 
L 27 51.90625 
L 27 45.3125 
Q 29.203125 49.359375 32.90625 51.34375 
Q 36.625 53.328125 42.09375 53.328125 
Q 53.171875 53.328125 59.546875 46.015625 
Q 65.921875 38.71875 65.921875 25.984375 
Q 65.921875 13.234375 59.546875 5.90625 
Q 53.171875 -1.421875 42.09375 -1.421875 
Q 36.625 -1.421875 32.90625 0.5625 
Q 29.203125 2.546875 27 6.59375 
L 27 -14.890625 
L 35.015625 -14.890625 
L 35.015625 -20.796875 
L 2.296875 -20.796875 
L 2.296875 -14.890625 
L 9.71875 -14.890625 
z
" id="DejaVuSerif-Bold-70"/>
     <path d="M 56.390625 72.90625 
L 56.390625 60.109375 
L 17.390625 60.109375 
L 17.390625 44.09375 
Q 20.609375 46.578125 24.5625 47.84375 
Q 28.515625 49.125 32.90625 49.125 
Q 46.390625 49.125 54.203125 42.3125 
Q 62.015625 35.5 62.015625 23.78125 
Q 62.015625 11.859375 54.203125 5.21875 
Q 46.390625 -1.421875 32.328125 -1.421875 
Q 26.375 -1.421875 20.484375 -0.4375 
Q 14.59375 0.53125 8.203125 2.59375 
L 8.203125 18.5 
L 14.0625 18.5 
Q 14.359375 11.328125 17.796875 7.8125 
Q 21.234375 4.296875 27.984375 4.296875 
Q 35.15625 4.296875 38.625 9.109375 
Q 42.09375 13.921875 42.09375 23.78125 
Q 42.09375 33.5 38.6875 38.296875 
Q 35.296875 43.109375 28.421875 43.109375 
Q 24.703125 43.109375 21.796875 41.578125 
Q 18.890625 40.046875 16.40625 36.8125 
L 11.53125 36.8125 
L 11.53125 72.90625 
z
" id="DejaVuSerif-Bold-35"/>
     <path d="M 9.90625 46 
L 2.390625 46 
L 2.390625 51.90625 
L 9.90625 51.90625 
L 9.90625 68.015625 
L 27.203125 68.015625 
L 27.203125 51.90625 
L 41.609375 51.90625 
L 41.609375 46 
L 27.203125 46 
L 27.203125 14.203125 
Q 27.203125 7.421875 28.265625 5.765625 
Q 29.34375 4.109375 32.171875 4.109375 
Q 35.296875 4.109375 36.8125 6.203125 
Q 38.328125 8.296875 38.421875 12.703125 
L 45.703125 12.703125 
Q 45.265625 4.890625 41.421875 1.734375 
Q 37.59375 -1.421875 28.21875 -1.421875 
Q 17.53125 -1.421875 13.71875 1.921875 
Q 9.90625 5.28125 9.90625 14.203125 
z
" id="DejaVuSerif-Bold-74"/>
    </defs>
    <g transform="translate(114.1275 50.66135)scale(0.2 -0.2)">
     <use transform="translate(0 0.78125)" xlink:href="#DejaVuSerif-Bold-72"/>
     <use transform="translate(53.593906 -14.790625)scale(0.7)" xlink:href="#DejaVuSerif-Bold-70"/>
     <use transform="translate(126.296641 0.78125)" xlink:href="#DejaVuSerif-Bold-3d"/>
     <use transform="translate(231.247813 0.78125)" xlink:href="#DejaVuSerif-Bold-31"/>
     <use transform="translate(300.827891 0.78125)" xlink:href="#DejaVuSerif-Bold-2e"/>
     <use transform="translate(335.642344 0.78125)" xlink:href="#DejaVuSerif-Bold-35"/>
     <use transform="translate(405.222422 0.78125)" xlink:href="#DejaVuSerif-Bold-72"/>
     <use transform="translate(458.816328 -14.790625)scale(0.7)" xlink:href="#DejaVuSerif-Bold-74"/>
    </g>
   </g>
   <g id="text_13">
    <!-- 0.99 $m_*$ -->
    <defs>
     <path d="M 34.078125 68.5 
Q 29.046875 68.5 26.921875 64.234375 
Q 24.8125 59.96875 24.8125 49.421875 
Q 24.8125 38.875 26.921875 34.59375 
Q 29.046875 30.328125 34.078125 30.328125 
Q 39.109375 30.328125 41.25 34.59375 
Q 43.40625 38.875 43.40625 49.421875 
Q 43.40625 59.96875 41.25 64.234375 
Q 39.109375 68.5 34.078125 68.5 
z
M 44.96875 29.6875 
Q 41.75 27.09375 37.8125 25.796875 
Q 33.890625 24.515625 29.296875 24.515625 
Q 18.171875 24.515625 11.796875 31.03125 
Q 5.421875 37.546875 5.421875 49.03125 
Q 5.421875 61.140625 12.546875 67.671875 
Q 19.671875 74.21875 32.90625 74.21875 
Q 47.859375 74.21875 55.5625 65.1875 
Q 63.28125 56.15625 63.28125 38.71875 
Q 63.28125 18.84375 54.734375 8.703125 
Q 46.1875 -1.421875 29.390625 -1.421875 
Q 25 -1.421875 19.96875 -0.6875 
Q 14.9375 0.046875 9.1875 1.515625 
L 9.1875 14.40625 
L 15.09375 14.40625 
Q 16.3125 9.421875 19.703125 6.859375 
Q 23.09375 4.296875 28.515625 4.296875 
Q 37.109375 4.296875 41.015625 10.28125 
Q 44.921875 16.265625 44.96875 29.6875 
z
" id="DejaVuSerif-Bold-39"/>
    </defs>
    <g style="fill:#808080;" transform="translate(561.706125 61.918346)scale(0.16 -0.16)">
     <use transform="translate(0 0.78125)" xlink:href="#DejaVuSerif-Bold-30"/>
     <use transform="translate(69.580078 0.78125)" xlink:href="#DejaVuSerif-Bold-2e"/>
     <use transform="translate(104.394531 0.78125)" xlink:href="#DejaVuSerif-Bold-39"/>
     <use transform="translate(173.974609 0.78125)" xlink:href="#DejaVuSerif-Bold-39"/>
     <use transform="translate(243.554688 0.78125)" xlink:href="#DejaVuSerif-Bold-20"/>
     <use transform="translate(278.369141 0.78125)" xlink:href="#DejaVuSerif-Bold-6d"/>
     <use transform="translate(399.901523 -14.790625)scale(0.7)" xlink:href="#DejaVuSerif-Bold-2a"/>
    </g>
   </g>
   <g id="text_14">
    <!-- 0.9 $m_*$ -->
    <g style="fill:#808080;" transform="translate(490.191507 61.918346)scale(0.16 -0.16)">
     <use transform="translate(0 0.78125)" xlink:href="#DejaVuSerif-Bold-30"/>
     <use transform="translate(69.580078 0.78125)" xlink:href="#DejaVuSerif-Bold-2e"/>
     <use transform="translate(104.394531 0.78125)" xlink:href="#DejaVuSerif-Bold-39"/>
     <use transform="translate(173.974609 0.78125)" xlink:href="#DejaVuSerif-Bold-20"/>
     <use transform="translate(208.789062 0.78125)" xlink:href="#DejaVuSerif-Bold-6d"/>
     <use transform="translate(330.321445 -14.790625)scale(0.7)" xlink:href="#DejaVuSerif-Bold-2a"/>
    </g>
   </g>
   <g id="text_15">
    <!-- 0.5 $m_*$ -->
    <g style="fill:#808080;" transform="translate(358.751879 61.918346)scale(0.16 -0.16)">
     <use transform="translate(0 0.78125)" xlink:href="#DejaVuSerif-Bold-30"/>
     <use transform="translate(69.580078 0.78125)" xlink:href="#DejaVuSerif-Bold-2e"/>
     <use transform="translate(104.394531 0.78125)" xlink:href="#DejaVuSerif-Bold-35"/>
     <use transform="translate(173.974609 0.78125)" xlink:href="#DejaVuSerif-Bold-20"/>
     <use transform="translate(208.789062 0.78125)" xlink:href="#DejaVuSerif-Bold-6d"/>
     <use transform="translate(330.321445 -14.790625)scale(0.7)" xlink:href="#DejaVuSerif-Bold-2a"/>
    </g>
   </g>
   <g id="text_16">
    <!-- Also direct dynamical stripping  -->
    <defs>
     <path d="M -7.8125 0 
L -6.6875 5.90625 
L -0.734375 5.90625 
L 39.75 72.90625 
L 51.421875 72.90625 
L 65.875 5.90625 
L 72.796875 5.90625 
L 71.6875 0 
L 37.546875 0 
L 38.671875 5.90625 
L 45.796875 5.90625 
L 42.71875 20.796875 
L 15.328125 20.796875 
L 6.296875 5.90625 
L 14.984375 5.90625 
L 13.875 0 
z
M 18.84375 26.703125 
L 41.453125 26.703125 
L 35.640625 54.59375 
z
" id="DejaVuSerif-BoldItalic-41"/>
     <path d="M 21.828125 5.90625 
L 29.25 5.90625 
L 28.125 0 
L 3.421875 0 
L 17.046875 70.125 
L 9.671875 70.125 
L 10.796875 75.984375 
L 35.453125 75.984375 
z
" id="DejaVuSerif-BoldItalic-6c"/>
     <path d="M 2.734375 16.015625 
L 8.25 16.015625 
Q 8.203125 15.28125 8.203125 14.59375 
Q 8.203125 9.8125 11.078125 6.953125 
Q 13.96875 4.109375 19.78125 4.109375 
Q 31.15625 4.109375 32.515625 11.1875 
Q 32.71875 12.109375 32.71875 13.484375 
Q 32.71875 14.796875 31.46875 16.25 
Q 30.21875 17.71875 25.34375 19 
L 18.5625 20.796875 
Q 10.890625 22.796875 8.4375 25.96875 
Q 6 29.15625 6 33.0625 
Q 6 34.71875 6.34375 36.625 
Q 8.015625 45.0625 14.671875 49.1875 
Q 21.34375 53.328125 31.984375 53.328125 
Q 42.625 53.328125 54.25 50.203125 
L 51.65625 37.109375 
L 46.140625 37.109375 
Q 46.296875 38.03125 46.296875 38.875 
Q 46.296875 47.796875 35.25 47.796875 
Q 24.171875 47.796875 22.90625 41.21875 
Q 22.75 40.4375 22.75 39.3125 
Q 22.75 36.140625 28.765625 34.515625 
L 35.5 32.71875 
Q 45.21875 30.125 47.90625 26.875 
Q 50.59375 23.640625 50.59375 19.4375 
Q 50.59375 17.71875 50.203125 15.71875 
Q 48.484375 6.9375 41.40625 2.75 
Q 34.328125 -1.421875 21.09375 -1.421875 
Q 11.46875 -1.421875 -0.046875 1.515625 
z
" id="DejaVuSerif-BoldItalic-73"/>
     <path d="M 29.15625 4.109375 
Q 34.625 4.109375 37.75 8.796875 
Q 40.875 13.484375 43.3125 25.984375 
Q 44.921875 34.125 44.921875 38.96875 
Q 44.921875 41.5 44.4375 43.171875 
Q 43.171875 47.796875 37.640625 47.796875 
Q 32.125 47.796875 28.953125 43.078125 
Q 25.78125 38.375 23.390625 25.984375 
Q 21.828125 17.96875 21.828125 13.1875 
Q 21.828125 10.5 22.3125 8.84375 
Q 23.640625 4.109375 29.15625 4.109375 
z
M 60.203125 13.1875 
Q 41.796875 -1.421875 28.078125 -1.421875 
Q 14.359375 -1.421875 8.015625 5.859375 
Q 3.421875 11.140625 3.421875 19.234375 
Q 3.421875 22.359375 4.109375 25.984375 
Q 6.59375 38.8125 15.796875 46.0625 
Q 25 53.328125 38.71875 53.328125 
Q 52.484375 53.328125 58.84375 46.09375 
Q 63.421875 40.875 63.421875 32.765625 
Q 63.421875 29.59375 62.703125 25.984375 
Q 60.203125 13.1875 41.796875 -1.421875 
z
" id="DejaVuSerif-BoldItalic-6f"/>
     <path id="DejaVuSerif-BoldItalic-20"/>
     <path d="M 40.234375 23.390625 
L 41.21875 28.515625 
Q 42.140625 33.34375 42.140625 36.765625 
Q 42.140625 39.75 41.40625 41.65625 
Q 39.890625 45.703125 34.765625 45.703125 
Q 29.390625 45.703125 26.390625 41.421875 
Q 23.390625 37.15625 21.1875 25.984375 
Q 19.875 19.09375 19.875 14.84375 
Q 19.875 12.15625 20.359375 10.5 
Q 21.734375 6.203125 27.046875 6.203125 
Q 32.171875 6.203125 35.328125 10.25 
Q 38.484375 14.3125 40.234375 23.390625 
z
M 67.71875 75.984375 
L 52.984375 0 
L 35.6875 0 
L 36.96875 6.59375 
Q 33.984375 2.546875 29.859375 0.5625 
Q 25.734375 -1.421875 20.265625 -1.421875 
Q 9.234375 -1.421875 4.34375 5.90625 
Q 1.078125 10.796875 1.078125 18.015625 
Q 1.078125 21.6875 1.90625 25.984375 
Q 4.390625 38.765625 12.125 46.046875 
Q 19.875 53.328125 30.90625 53.328125 
Q 36.375 53.328125 39.71875 51.34375 
Q 43.0625 49.359375 44.484375 45.3125 
L 49.3125 70.125 
L 41.890625 70.125 
L 43.015625 75.984375 
z
" id="DejaVuSerif-BoldItalic-64"/>
     <path d="M 14.75 66.609375 
Q 15.53125 70.5625 18.765625 73.265625 
Q 22.015625 75.984375 25.984375 75.984375 
Q 29.828125 75.984375 32.03125 73.25 
Q 33.640625 71.234375 33.640625 68.5625 
Q 33.640625 67.625 33.453125 66.609375 
Q 32.71875 62.75 29.46875 60.03125 
Q 26.21875 57.328125 22.359375 57.328125 
Q 18.40625 57.328125 16.21875 60.015625 
Q 14.546875 62.015625 14.546875 64.703125 
Q 14.546875 65.625 14.75 66.609375 
z
M 21.828125 5.90625 
L 29.25 5.90625 
L 28.125 0 
L 3.421875 0 
L 12.359375 46 
L 4.984375 46 
L 6.109375 51.90625 
L 30.765625 51.90625 
z
" id="DejaVuSerif-BoldItalic-69"/>
     <path d="M 58.734375 52.484375 
L 55.71875 37.015625 
L 50.203125 37.015625 
Q 50.34375 38.03125 50.34375 38.921875 
Q 50.34375 41.65625 49.171875 43.171875 
Q 47.609375 45.21875 43.890625 45.21875 
Q 38.234375 45.21875 33.984375 40.234375 
Q 29.734375 35.25 28.03125 26.421875 
L 22.90625 0 
L 5.609375 0 
L 14.546875 46 
L 6.640625 46 
L 7.765625 51.90625 
L 32.953125 51.90625 
L 31.203125 42.671875 
Q 34.765625 48.09375 39.453125 50.703125 
Q 44.140625 53.328125 50.203125 53.328125 
Q 51.703125 53.328125 53.828125 53.09375 
Q 55.953125 52.875 58.734375 52.484375 
z
" id="DejaVuSerif-BoldItalic-72"/>
     <path d="M 42 40.625 
Q 42 47.796875 35.9375 47.796875 
Q 31.296875 47.796875 28.5625 43.421875 
Q 25.828125 39.0625 23.34375 25.34375 
Q 23.34375 25.34375 24.421875 25.34375 
Q 39.359375 25.34375 41.65625 37.203125 
Q 42 39.0625 42 40.625 
z
M 22.171875 19.53125 
Q 21.875 17.875 21.875 14.40625 
Q 21.921875 4.109375 31.9375 4.109375 
Q 37.546875 4.109375 41.59375 7.078125 
Q 45.65625 10.0625 47.703125 15.71875 
L 55.8125 15.71875 
Q 52 6.890625 44.9375 2.734375 
Q 37.890625 -1.421875 26.65625 -1.421875 
Q 13.1875 -1.421875 7.375 5.671875 
Q 3.328125 10.640625 3.328125 18.5 
Q 3.328125 21.875 4.109375 25.828125 
Q 6.59375 38.875 15.375 46.09375 
Q 24.171875 53.328125 37.0625 53.328125 
Q 46.390625 53.328125 52.859375 49.6875 
Q 59.328125 46.046875 59.328125 39.453125 
Q 59.328125 38.140625 59.03125 36.71875 
Q 55.953125 20.90625 22.171875 19.53125 
z
" id="DejaVuSerif-BoldItalic-65"/>
     <path d="M 54.5 16.21875 
Q 50.921875 7.328125 44.328125 2.953125 
Q 37.75 -1.421875 27.875 -1.421875 
Q 14.015625 -1.421875 7.8125 5.765625 
Q 3.375 10.84375 3.375 18.953125 
Q 3.375 22.21875 4.109375 25.984375 
Q 6.59375 38.875 15.53125 46.09375 
Q 24.46875 53.328125 37.84375 53.328125 
Q 43.265625 53.328125 48.578125 52.296875 
Q 53.90625 51.265625 59.234375 49.21875 
L 56.390625 34.8125 
L 50.921875 34.8125 
Q 51.03125 35.9375 51.03125 36.96875 
Q 51.03125 41.9375 48.96875 44.625 
Q 46.53125 47.796875 40.96875 47.796875 
Q 33.734375 47.796875 29.734375 42.90625 
Q 25.734375 38.03125 23.390625 25.984375 
Q 22.171875 19.671875 22.171875 15.328125 
Q 22.171875 11.53125 23.09375 9.1875 
Q 25.09375 4.109375 31.84375 4.109375 
Q 37.0625 4.109375 40.8125 7.234375 
Q 44.578125 10.359375 46.390625 16.21875 
z
" id="DejaVuSerif-BoldItalic-63"/>
     <path d="M 12.40625 46 
L 4.890625 46 
L 6 51.90625 
L 13.53125 51.90625 
L 16.65625 68.015625 
L 33.9375 68.015625 
L 30.8125 51.90625 
L 45.21875 51.90625 
L 44.09375 46 
L 29.6875 46 
L 23.484375 14.203125 
Q 22.65625 9.859375 22.65625 7.671875 
Q 22.65625 6.34375 22.90625 5.765625 
Q 23.6875 4.109375 26.515625 4.109375 
Q 29.640625 4.109375 31.546875 6.203125 
Q 33.453125 8.296875 34.421875 12.703125 
L 41.703125 12.703125 
Q 39.75 4.890625 35.296875 1.734375 
Q 30.859375 -1.421875 21.484375 -1.421875 
Q 10.796875 -1.421875 7.625 1.953125 
Q 5.5625 4.109375 5.5625 8.59375 
Q 5.5625 11.03125 6.203125 14.203125 
z
" id="DejaVuSerif-BoldItalic-74"/>
     <path d="M 24.265625 -13.328125 
L 10.40625 46 
L 4.78125 46 
L 5.953125 51.90625 
L 27.15625 51.90625 
L 38.765625 1.703125 
Q 44.390625 9.8125 48.140625 18.96875 
Q 51.90625 28.125 55.609375 45.90625 
L 48.6875 45.953125 
L 49.8125 51.859375 
L 63.8125 51.90625 
Q 62.59375 45.65625 60.84375 37.59375 
Q 56.5 17.78125 51.078125 8.59375 
Q 36.765625 -15.328125 25.296875 -19.734375 
Q 18.796875 -22.21875 9.421875 -22.21875 
Q 4.828125 -22.21875 -1.859375 -20.125 
L 0.25 -9.28125 
L 5.765625 -9.328125 
Q 5.5625 -10.5 5.5625 -11.46875 
Q 5.5625 -14.84375 7.859375 -15.921875 
Q 8.890625 -16.40625 10.984375 -16.703125 
Q 12.15625 -16.84375 13.328125 -16.84375 
Q 18.75 -16.84375 24.265625 -13.328125 
z
" id="DejaVuSerif-BoldItalic-79"/>
     <path d="M 5.609375 0 
L 14.546875 46 
L 7.171875 46 
L 8.296875 51.90625 
L 32.953125 51.90625 
L 31.546875 44.578125 
Q 35.59375 49.21875 39.984375 51.265625 
Q 44.390625 53.328125 50.484375 53.328125 
Q 59.234375 53.328125 62.703125 48.140625 
Q 64.9375 44.875 64.9375 39.59375 
Q 64.9375 36.625 64.203125 33.015625 
L 58.9375 5.90625 
L 66.359375 5.90625 
L 65.234375 0 
L 40.53125 0 
L 47.015625 33.5 
Q 47.703125 36.921875 47.703125 39.265625 
Q 47.703125 41.40625 47.125 42.671875 
Q 45.953125 45.21875 41.796875 45.21875 
Q 36.578125 45.21875 33.375 41.375 
Q 30.171875 37.546875 28.5625 29.203125 
L 22.90625 0 
z
" id="DejaVuSerif-BoldItalic-6e"/>
     <path d="M 41.0625 42.78125 
Q 40.921875 45.703125 38.140625 45.703125 
Q 31.59375 45.703125 25.203125 37.890625 
Q 22.21875 34.28125 19.875 22.21875 
Q 18.109375 13.1875 19.375 9.6875 
Q 20.65625 6.203125 25.296875 6.203125 
Q 29.828125 6.203125 32.6875 10.25 
Q 35.546875 14.3125 37.3125 23.390625 
z
M 57.671875 50.34375 
L 49.125 5.90625 
L 55.609375 6 
L 54.4375 0 
L 32.765625 0 
L 34.03125 6.59375 
Q 28.65625 -1.421875 19.140625 -1.421875 
Q 9.71875 -1.421875 5.515625 4.796875 
Q 1.3125 11.03125 3.46875 21.875 
Q 5.5625 32.765625 14.9375 42.1875 
Q 26.03125 53.328125 40.875 53.328125 
Q 55.515625 53.328125 57.671875 50.34375 
z
" id="DejaVuSerif-BoldItalic-61"/>
     <path d="M 63.96875 43.40625 
Q 68.5625 48.578125 73.21875 50.953125 
Q 77.875 53.328125 83.5 53.328125 
Q 92.4375 53.328125 95.90625 48.25 
Q 98.046875 45.0625 98.046875 39.796875 
Q 98.046875 36.71875 97.3125 33.015625 
L 92.046875 5.90625 
L 99.46875 5.90625 
L 98.34375 0 
L 73.640625 0 
L 79.546875 30.421875 
Q 80.765625 36.765625 80.765625 40.09375 
Q 80.765625 41.796875 80.421875 42.671875 
Q 79.4375 45.21875 75.390625 45.21875 
Q 70.796875 45.21875 67.578125 41.671875 
Q 64.359375 38.140625 63.09375 31.59375 
L 56.9375 0 
L 39.65625 0 
L 45.5625 30.421875 
Q 46.78125 36.71875 46.78125 39.984375 
Q 46.78125 41.796875 46.4375 42.671875 
Q 45.40625 45.21875 41.40625 45.21875 
Q 36.765625 45.21875 33.546875 41.671875 
Q 30.328125 38.140625 29.046875 31.59375 
L 22.90625 0 
L 5.609375 0 
L 14.546875 46 
L 7.171875 46 
L 8.296875 51.90625 
L 32.953125 51.90625 
L 31.546875 44.578125 
Q 35.453125 49.125 39.765625 51.21875 
Q 44.09375 53.328125 49.46875 53.328125 
Q 55.8125 53.328125 59.296875 50.90625 
Q 62.796875 48.484375 63.96875 43.40625 
z
" id="DejaVuSerif-BoldItalic-6d"/>
     <path d="M 29.390625 28.515625 
L 28.375 23.390625 
Q 27.4375 18.5 27.4375 15.09375 
Q 27.4375 12.15625 28.171875 10.25 
Q 29.6875 6.203125 34.859375 6.203125 
Q 40.1875 6.203125 43.1875 10.5 
Q 46.1875 14.796875 48.390625 25.984375 
Q 49.703125 32.90625 49.703125 37.15625 
Q 49.703125 39.796875 49.21875 41.40625 
Q 47.859375 45.703125 42.53125 45.703125 
Q 37.359375 45.703125 34.25 41.640625 
Q 31.15625 37.59375 29.390625 28.515625 
z
M 15.484375 46 
L 8.0625 46 
L 9.234375 51.90625 
L 33.9375 51.90625 
L 32.671875 45.3125 
Q 35.640625 49.359375 39.734375 51.34375 
Q 43.84375 53.328125 49.3125 53.328125 
Q 60.40625 53.328125 65.328125 46 
Q 68.65625 41.15625 68.65625 33.890625 
Q 68.65625 30.21875 67.828125 25.984375 
Q 65.328125 13.234375 57.53125 5.90625 
Q 49.75 -1.421875 38.671875 -1.421875 
Q 33.203125 -1.421875 29.859375 0.5625 
Q 26.515625 2.546875 25.140625 6.59375 
L 19.78125 -20.796875 
L 2.484375 -20.796875 
z
" id="DejaVuSerif-BoldItalic-70"/>
     <path d="M 48.1875 42.78125 
Q 47.953125 45.703125 44.828125 45.703125 
Q 35.9375 45.703125 30.375 37.890625 
Q 26.90625 32.953125 24.8125 22.21875 
Q 23.046875 13.1875 24.53125 9.6875 
Q 26.03125 6.203125 31.34375 6.203125 
Q 36.421875 6.203125 39.546875 10.25 
Q 42.671875 14.3125 44.4375 23.390625 
z
M 66.65625 48.640625 
L 57.328125 0.6875 
Q 54.984375 -11.328125 46.234375 -16.21875 
Q 35.59375 -22.21875 23.09375 -22.21875 
Q 17.921875 -22.21875 12.734375 -21.40625 
Q 7.5625 -20.609375 2.25 -19 
L 4.6875 -6.59375 
L 10.203125 -6.59375 
Q 10.15625 -7.03125 10.15625 -7.421875 
Q 10.15625 -11.921875 12.84375 -14.203125 
Q 15.765625 -16.703125 22.078125 -16.703125 
Q 30.078125 -16.703125 34.109375 -12.859375 
Q 38.140625 -9.03125 40.046875 0.6875 
L 41.15625 6.59375 
Q 35.203125 -1.421875 24.21875 -1.421875 
Q 13.328125 -1.421875 8.296875 4.796875 
Q 3.265625 11.03125 5.375 21.875 
Q 7.953125 35.15625 20.3125 44.734375 
Q 31.390625 53.328125 47.65625 53.328125 
Q 60.796875 53.328125 66.65625 48.640625 
z
" id="DejaVuSerif-BoldItalic-67"/>
    </defs>
    <g transform="translate(281.5275 254.884712)scale(0.2 -0.2)">
     <use xlink:href="#DejaVuSerif-BoldItalic-41"/>
     <use x="77.587891" xlink:href="#DejaVuSerif-BoldItalic-6c"/>
     <use x="115.576172" xlink:href="#DejaVuSerif-BoldItalic-73"/>
     <use x="171.875" xlink:href="#DejaVuSerif-BoldItalic-6f"/>
     <use x="238.574219" xlink:href="#DejaVuSerif-BoldItalic-20"/>
     <use x="273.388672" xlink:href="#DejaVuSerif-BoldItalic-64"/>
     <use x="343.310547" xlink:href="#DejaVuSerif-BoldItalic-69"/>
     <use x="381.298828" xlink:href="#DejaVuSerif-BoldItalic-72"/>
     <use x="433.984375" xlink:href="#DejaVuSerif-BoldItalic-65"/>
     <use x="497.607422" xlink:href="#DejaVuSerif-BoldItalic-63"/>
     <use x="558.496094" xlink:href="#DejaVuSerif-BoldItalic-74"/>
     <use x="604.6875" xlink:href="#DejaVuSerif-BoldItalic-20"/>
     <use x="639.501953" xlink:href="#DejaVuSerif-BoldItalic-64"/>
     <use x="709.423828" xlink:href="#DejaVuSerif-BoldItalic-79"/>
     <use x="767.529297" xlink:href="#DejaVuSerif-BoldItalic-6e"/>
     <use x="840.234375" xlink:href="#DejaVuSerif-BoldItalic-61"/>
     <use x="905.029297" xlink:href="#DejaVuSerif-BoldItalic-6d"/>
     <use x="1010.839844" xlink:href="#DejaVuSerif-BoldItalic-69"/>
     <use x="1048.828125" xlink:href="#DejaVuSerif-BoldItalic-63"/>
     <use x="1109.716797" xlink:href="#DejaVuSerif-BoldItalic-61"/>
     <use x="1174.511719" xlink:href="#DejaVuSerif-BoldItalic-6c"/>
     <use x="1212.5" xlink:href="#DejaVuSerif-BoldItalic-20"/>
     <use x="1247.314453" xlink:href="#DejaVuSerif-BoldItalic-73"/>
     <use x="1303.613281" xlink:href="#DejaVuSerif-BoldItalic-74"/>
     <use x="1349.804688" xlink:href="#DejaVuSerif-BoldItalic-72"/>
     <use x="1402.490234" xlink:href="#DejaVuSerif-BoldItalic-69"/>
     <use x="1440.478516" xlink:href="#DejaVuSerif-BoldItalic-70"/>
     <use x="1510.400391" xlink:href="#DejaVuSerif-BoldItalic-70"/>
     <use x="1580.322266" xlink:href="#DejaVuSerif-BoldItalic-69"/>
     <use x="1618.310547" xlink:href="#DejaVuSerif-BoldItalic-6e"/>
     <use x="1691.015625" xlink:href="#DejaVuSerif-BoldItalic-67"/>
     <use x="1760.9375" xlink:href="#DejaVuSerif-BoldItalic-20"/>
    </g>
    <!--  Ivanov&amp;Novikov 2001  -->
    <defs>
     <path d="M -2.34375 0 
L -1.21875 5.90625 
L 8.109375 5.90625 
L 20.015625 67 
L 10.6875 67 
L 11.8125 72.90625 
L 49.3125 72.90625 
L 48.1875 67 
L 38.8125 67 
L 26.90625 5.90625 
L 36.28125 5.90625 
L 35.15625 0 
z
" id="DejaVuSerif-BoldItalic-49"/>
     <path d="M 31.15625 0 
L 17.28125 0 
L 7.8125 46 
L 2.09375 46 
L 3.21875 51.90625 
L 24.359375 51.90625 
L 32.328125 13.1875 
Q 33.59375 13.1875 41.453125 23.640625 
Q 48.640625 33.59375 51.8125 46 
L 46.09375 46 
L 47.265625 52 
L 58.84375 51.90625 
Q 58.984375 39.75 49.125 23.4375 
Q 39.84375 8.015625 31.15625 0 
z
" id="DejaVuSerif-BoldItalic-76"/>
     <path d="M 81.390625 0 
L 58.015625 0 
L 53.078125 6.390625 
Q 47.40625 2.484375 41.109375 0.53125 
Q 34.8125 -1.421875 27.828125 -1.421875 
Q 13.1875 -1.421875 6.15625 4.828125 
Q 0.734375 9.625 0.734375 17.1875 
Q 0.734375 19.484375 1.21875 22.015625 
Q 2.734375 29.984375 8.046875 35.625 
Q 13.375 41.265625 23.1875 45.3125 
Q 21.390625 48.578125 20.703125 51.5625 
Q 20.3125 53.21875 20.3125 54.78125 
Q 20.3125 56.0625 20.5625 57.328125 
Q 22.125 65.328125 29.71875 69.765625 
Q 37.3125 74.21875 49.46875 74.21875 
Q 53.078125 74.21875 57.765625 73.625 
Q 62.453125 73.046875 68.265625 71.921875 
L 65.328125 56.6875 
L 59.03125 56.6875 
Q 59.03125 57.375 59.03125 58.0625 
Q 59.03125 63.09375 57.03125 65.53125 
Q 54.734375 68.3125 49.515625 68.3125 
Q 44.578125 68.3125 41.28125 65.96875 
Q 37.984375 63.625 37.203125 59.625 
Q 37.109375 59.078125 37.109375 58.5 
Q 37.109375 54 43.359375 46.234375 
Q 44.140625 45.265625 44.578125 44.828125 
L 62.453125 21.296875 
Q 66.015625 24.609375 68.53125 28.953125 
Q 71.046875 33.296875 72.5625 38.8125 
L 73.6875 44.671875 
L 89.203125 44.671875 
L 88.09375 38.8125 
L 79.5 38.8125 
Q 77.25 31.6875 73.953125 26.171875 
Q 70.65625 20.65625 66.21875 16.40625 
L 74.265625 5.90625 
L 82.5625 5.90625 
z
M 49.421875 11.1875 
L 27.390625 39.890625 
Q 24.078125 36.625 22 32.9375 
Q 19.921875 29.25 19.09375 25.203125 
Q 18.65625 22.90625 18.65625 20.84375 
Q 18.65625 15.484375 21.6875 11.625 
Q 25.828125 6.296875 33.84375 6.296875 
Q 37.640625 6.296875 41.46875 7.484375 
Q 45.3125 8.6875 49.421875 11.1875 
z
" id="DejaVuSerif-BoldItalic-26"/>
     <path d="M -2.640625 0 
L -1.515625 5.90625 
L 7.8125 5.90625 
L 19.734375 67 
L 10.40625 67 
L 11.53125 72.90625 
L 34.328125 72.90625 
L 68.3125 21.296875 
L 77.203125 67 
L 67.921875 67 
L 69.046875 72.90625 
L 94.53125 72.90625 
L 93.40625 67 
L 84.078125 67 
L 71.046875 0 
L 58.25 0 
L 23.828125 52.6875 
L 14.703125 5.90625 
L 23.96875 5.90625 
L 22.859375 0 
z
" id="DejaVuSerif-BoldItalic-4e"/>
     <path d="M 20.703125 0 
L 3.421875 0 
L 17.046875 70.125 
L 9.671875 70.125 
L 10.796875 75.984375 
L 35.453125 75.984375 
L 25.984375 27.203125 
L 50.59375 46 
L 44.390625 46 
L 45.515625 51.90625 
L 59.578125 51.90625 
L 58.453125 46 
L 42.71875 33.984375 
L 59.125 5.90625 
L 64.75 5.90625 
L 63.625 0 
L 44.53125 0 
L 30.28125 24.421875 
L 24.609375 20.125 
z
" id="DejaVuSerif-BoldItalic-6b"/>
     <path d="M 16.703125 54.890625 
L 10.84375 54.890625 
L 13.875 70.609375 
Q 20.21875 72.40625 26.21875 73.3125 
Q 32.234375 74.21875 38.1875 74.21875 
Q 52.09375 74.21875 58.765625 68.53125 
Q 65.4375 62.84375 63.484375 52.6875 
Q 62.0625 45.453125 56.65625 39.71875 
Q 51.265625 33.984375 37.59375 26.125 
L 14.703125 12.796875 
L 49.21875 12.796875 
L 50.875 21.390625 
L 57.5625 21.390625 
L 53.421875 0 
L -0.484375 0 
L 1.859375 11.921875 
L 14.0625 19.390625 
Q 29.734375 28.90625 35.640625 35.59375 
Q 41.546875 42.28125 43.265625 51.21875 
Q 44.921875 59.671875 42.28125 64.078125 
Q 39.65625 68.5 32.953125 68.5 
Q 27.203125 68.5 23.046875 65.015625 
Q 18.890625 61.53125 16.703125 54.890625 
z
" id="DejaVuSerif-BoldItalic-32"/>
     <path d="M 20.453125 14.9375 
Q 22.703125 4.296875 28.5625 4.296875 
Q 34.421875 4.296875 37.640625 9.609375 
Q 40.875 14.9375 45.015625 36.375 
Q 49.171875 57.671875 48.046875 63.078125 
Q 46.921875 68.5 41.0625 68.5 
Q 35.203125 68.5 31.984375 63.171875 
Q 28.765625 57.859375 24.609375 36.375 
Q 20.453125 14.9375 22.703125 4.296875 
z
M 27.4375 -1.421875 
Q 12.84375 -1.421875 6.984375 8.3125 
Q 1.125 18.0625 4.6875 36.375 
Q 8.25 54.6875 17.921875 64.453125 
Q 27.59375 74.21875 42.1875 74.21875 
Q 56.734375 74.21875 62.59375 64.453125 
Q 68.453125 54.6875 64.890625 36.375 
Q 61.328125 18.0625 51.65625 8.3125 
Q 42 -1.421875 27.4375 -1.421875 
z
" id="DejaVuSerif-BoldItalic-30"/>
     <path d="M 6.5 0 
L 7.671875 5.90625 
L 21.34375 5.90625 
L 32.8125 64.890625 
L 15.875 55.90625 
L 17.28125 63.1875 
L 37.75 74.21875 
L 53.125 74.21875 
L 39.84375 5.90625 
L 53.5625 5.90625 
L 52.390625 0 
z
" id="DejaVuSerif-BoldItalic-31"/>
    </defs>
    <g transform="translate(281.5275 277.564712)scale(0.2 -0.2)">
     <use xlink:href="#DejaVuSerif-BoldItalic-20"/>
     <use x="34.814453" xlink:href="#DejaVuSerif-BoldItalic-49"/>
     <use x="81.591797" xlink:href="#DejaVuSerif-BoldItalic-76"/>
     <use x="139.697266" xlink:href="#DejaVuSerif-BoldItalic-61"/>
     <use x="204.492188" xlink:href="#DejaVuSerif-BoldItalic-6e"/>
     <use x="277.197266" xlink:href="#DejaVuSerif-BoldItalic-6f"/>
     <use x="343.896484" xlink:href="#DejaVuSerif-BoldItalic-76"/>
     <use x="402.001953" xlink:href="#DejaVuSerif-BoldItalic-26"/>
     <use x="492.285156" xlink:href="#DejaVuSerif-BoldItalic-4e"/>
     <use x="583.691406" xlink:href="#DejaVuSerif-BoldItalic-6f"/>
     <use x="650.390625" xlink:href="#DejaVuSerif-BoldItalic-76"/>
     <use x="708.496094" xlink:href="#DejaVuSerif-BoldItalic-69"/>
     <use x="746.484375" xlink:href="#DejaVuSerif-BoldItalic-6b"/>
     <use x="815.771484" xlink:href="#DejaVuSerif-BoldItalic-6f"/>
     <use x="882.470703" xlink:href="#DejaVuSerif-BoldItalic-76"/>
     <use x="940.576172" xlink:href="#DejaVuSerif-BoldItalic-20"/>
     <use x="975.390625" xlink:href="#DejaVuSerif-BoldItalic-32"/>
     <use x="1044.970703" xlink:href="#DejaVuSerif-BoldItalic-30"/>
     <use x="1114.550781" xlink:href="#DejaVuSerif-BoldItalic-30"/>
     <use x="1184.130859" xlink:href="#DejaVuSerif-BoldItalic-31"/>
     <use x="1253.710938" xlink:href="#DejaVuSerif-BoldItalic-20"/>
    </g>
    <!--  Guillochon&amp;Ramirez-Ruiz 2013 -->
    <defs>
     <path d="M 71.4375 50 
Q 71.140625 59.671875 66.84375 63.984375 
Q 62.546875 68.3125 53.21875 68.3125 
Q 41.890625 68.3125 35.109375 60.625 
Q 28.328125 52.9375 25.09375 36.375 
Q 21.921875 19.96875 25.484375 12.234375 
Q 29.046875 4.5 39.796875 4.5 
Q 43.890625 4.5 47.578125 5.421875 
Q 51.265625 6.34375 54.546875 8.203125 
L 58.40625 28.21875 
L 49.609375 28.21875 
L 50.78125 34.078125 
L 77.046875 34.078125 
L 71.578125 6.109375 
Q 62.640625 2.296875 54.09375 0.4375 
Q 45.5625 -1.421875 37.015625 -1.421875 
Q 18.265625 -1.421875 9.515625 8.6875 
Q 0.78125 18.796875 4.203125 36.375 
Q 7.625 54 20.3125 64.109375 
Q 33.015625 74.21875 51.765625 74.21875 
Q 59.578125 74.21875 66.828125 72.65625 
Q 74.078125 71.09375 81.109375 67.921875 
L 77.640625 50 
z
" id="DejaVuSerif-BoldItalic-47"/>
     <path d="M 67.09375 51.90625 
L 58.15625 5.90625 
L 65.53125 5.90625 
L 64.40625 0 
L 39.703125 0 
L 41.109375 7.328125 
Q 37.109375 2.6875 32.71875 0.625 
Q 28.328125 -1.421875 22.21875 -1.421875 
Q 13.484375 -1.421875 10.015625 3.71875 
Q 7.765625 7.03125 7.765625 12.3125 
Q 7.765625 15.28125 8.5 18.890625 
L 13.765625 46 
L 6.34375 46 
L 7.46875 51.90625 
L 32.171875 51.90625 
L 26.265625 21.578125 
Q 25.09375 15.484375 25.09375 12.203125 
Q 25.09375 10.25 25.53125 9.28125 
Q 26.609375 6.6875 30.90625 6.6875 
Q 36.140625 6.6875 39.3125 10.546875 
Q 42.484375 14.40625 44.09375 22.796875 
L 49.75 51.90625 
z
" id="DejaVuSerif-BoldItalic-75"/>
     <path d="M 3.421875 0 
L 17.046875 70.125 
L 9.328125 70.125 
L 10.453125 75.984375 
L 35.453125 75.984375 
L 29.34375 44.578125 
Q 33.40625 49.21875 37.796875 51.265625 
Q 42.1875 53.328125 48.296875 53.328125 
Q 57.03125 53.328125 60.5 48.140625 
Q 62.703125 44.875 62.703125 39.59375 
Q 62.703125 36.625 62.015625 33.015625 
L 56.734375 5.90625 
L 64.15625 5.90625 
L 63.03125 0 
L 38.328125 0 
L 44.828125 33.5 
Q 45.515625 36.921875 45.515625 39.265625 
Q 45.515625 41.40625 44.921875 42.671875 
Q 43.75 45.21875 39.59375 45.21875 
Q 34.375 45.21875 31.171875 41.375 
Q 27.984375 37.546875 26.375 29.203125 
L 20.703125 0 
z
" id="DejaVuSerif-BoldItalic-68"/>
     <path d="M 52.984375 35.59375 
Q 57.171875 34.96875 59.703125 32.71875 
Q 62.25 30.46875 63.625 26.21875 
L 70.3125 5.90625 
L 77.78125 5.90625 
L 76.65625 0 
L 52.6875 0 
L 45.359375 22.015625 
Q 43.3125 28.859375 41.3125 30.734375 
Q 39.3125 32.625 35.109375 32.625 
L 32.125 32.625 
L 26.90625 5.90625 
L 36.28125 5.90625 
L 35.15625 0 
L -2.34375 0 
L -1.21875 5.90625 
L 8.109375 5.90625 
L 20.015625 67 
L 10.6875 67 
L 11.8125 72.90625 
L 53.421875 72.90625 
Q 66.109375 72.90625 72.015625 67.796875 
Q 77.9375 62.703125 76.125 53.328125 
Q 74.65625 45.703125 68.890625 41.28125 
Q 63.140625 36.859375 52.984375 35.59375 
z
M 33.25 38.484375 
L 39.65625 38.484375 
Q 46.484375 38.484375 50.90625 42.1875 
Q 55.328125 45.90625 56.640625 52.78125 
Q 57.953125 59.671875 55 63.328125 
Q 52.046875 67 45.21875 67 
L 38.8125 67 
z
" id="DejaVuSerif-BoldItalic-52"/>
     <path d="M 57.375 46.09375 
L 23.1875 9.515625 
Q 24.8125 8.9375 26.21875 8.109375 
Q 32.421875 4.78125 36.28125 4.78125 
Q 42.140625 4.78125 50.921875 11.859375 
L 49.421875 4.15625 
Q 40.765625 -4.046875 32.953125 -4.046875 
Q 28.90625 -3.859375 22.65625 -0.734375 
Q 15.671875 2.828125 12.9375 2.828125 
Q 10.203125 2.828125 7.375 1.703125 
Q 4.546875 0.59375 3.375 -0.09375 
L -1.46875 0 
L -0.34375 5.90625 
L 33.734375 42.4375 
Q 32.171875 42.96875 30.8125 43.796875 
Q 24.609375 47.125 20.75 47.125 
Q 14.890625 47.125 6.109375 40.046875 
L 7.625 47.75 
Q 16.265625 55.953125 24.078125 55.953125 
Q 28.125 55.765625 34.375 52.640625 
Q 41.359375 49.078125 44.09375 49.078125 
Q 46.828125 49.078125 49.65625 50.1875 
Q 52.484375 51.3125 53.65625 52 
L 58.5 51.90625 
z
" id="DejaVuSerif-BoldItalic-7a"/>
     <path d="M 6.6875 33.40625 
L 37.359375 33.40625 
L 34.8125 20.21875 
L 4.15625 20.21875 
z
" id="DejaVuSerif-BoldItalic-2d"/>
     <path d="M 15.28125 70.796875 
Q 22.078125 72.515625 28.296875 73.359375 
Q 34.515625 74.21875 40.28125 74.21875 
Q 53.46875 74.21875 59.59375 69.5 
Q 65.71875 64.796875 64.015625 56 
Q 62.75 49.421875 57.890625 45.3125 
Q 53.03125 41.21875 44.96875 39.796875 
Q 54.15625 38.28125 57.890625 33.296875 
Q 61.625 28.328125 59.90625 19.671875 
Q 57.953125 9.46875 48.796875 4.015625 
Q 39.65625 -1.421875 24.3125 -1.421875 
Q 18.5625 -1.421875 12.625 -0.4375 
Q 6.6875 0.53125 0.390625 2.484375 
L 3.515625 18.5 
L 9.421875 18.5 
Q 8.59375 11.578125 11.6875 7.9375 
Q 14.796875 4.296875 21.53125 4.296875 
Q 28.953125 4.296875 33.8125 8.421875 
Q 38.671875 12.546875 40.140625 20.125 
Q 41.703125 28.03125 38.296875 32.328125 
Q 34.90625 36.625 27.15625 36.625 
L 23.921875 36.625 
L 25.046875 42.484375 
L 27.59375 42.484375 
Q 34.765625 42.484375 39.03125 45.796875 
Q 43.3125 49.125 44.578125 55.71875 
Q 45.796875 61.921875 43.03125 65.203125 
Q 40.28125 68.5 33.9375 68.5 
Q 28.171875 68.5 24.1875 65.34375 
Q 20.21875 62.203125 18.359375 56.203125 
L 12.453125 56.203125 
z
" id="DejaVuSerif-BoldItalic-33"/>
    </defs>
    <g transform="translate(281.5275 299.960337)scale(0.2 -0.2)">
     <use xlink:href="#DejaVuSerif-BoldItalic-20"/>
     <use x="34.814453" xlink:href="#DejaVuSerif-BoldItalic-47"/>
     <use x="120.214844" xlink:href="#DejaVuSerif-BoldItalic-75"/>
     <use x="192.919922" xlink:href="#DejaVuSerif-BoldItalic-69"/>
     <use x="230.908203" xlink:href="#DejaVuSerif-BoldItalic-6c"/>
     <use x="268.896484" xlink:href="#DejaVuSerif-BoldItalic-6c"/>
     <use x="306.884766" xlink:href="#DejaVuSerif-BoldItalic-6f"/>
     <use x="373.583984" xlink:href="#DejaVuSerif-BoldItalic-63"/>
     <use x="434.472656" xlink:href="#DejaVuSerif-BoldItalic-68"/>
     <use x="507.177734" xlink:href="#DejaVuSerif-BoldItalic-6f"/>
     <use x="573.876953" xlink:href="#DejaVuSerif-BoldItalic-6e"/>
     <use x="646.582031" xlink:href="#DejaVuSerif-BoldItalic-26"/>
     <use x="736.865234" xlink:href="#DejaVuSerif-BoldItalic-52"/>
     <use x="820.001953" xlink:href="#DejaVuSerif-BoldItalic-61"/>
     <use x="884.796875" xlink:href="#DejaVuSerif-BoldItalic-6d"/>
     <use x="990.607422" xlink:href="#DejaVuSerif-BoldItalic-69"/>
     <use x="1028.595703" xlink:href="#DejaVuSerif-BoldItalic-72"/>
     <use x="1081.28125" xlink:href="#DejaVuSerif-BoldItalic-65"/>
     <use x="1144.904297" xlink:href="#DejaVuSerif-BoldItalic-7a"/>
     <use x="1201.691406" xlink:href="#DejaVuSerif-BoldItalic-2d"/>
     <use x="1243.195312" xlink:href="#DejaVuSerif-BoldItalic-52"/>
     <use x="1326.300781" xlink:href="#DejaVuSerif-BoldItalic-75"/>
     <use x="1399.005859" xlink:href="#DejaVuSerif-BoldItalic-69"/>
     <use x="1436.994141" xlink:href="#DejaVuSerif-BoldItalic-7a"/>
     <use x="1493.78125" xlink:href="#DejaVuSerif-BoldItalic-20"/>
     <use x="1528.595703" xlink:href="#DejaVuSerif-BoldItalic-32"/>
     <use x="1598.175781" xlink:href="#DejaVuSerif-BoldItalic-30"/>
     <use x="1667.755859" xlink:href="#DejaVuSerif-BoldItalic-31"/>
     <use x="1737.335938" xlink:href="#DejaVuSerif-BoldItalic-33"/>
    </g>
   </g>
  </g>
 </g>
 <defs>
  <clipPath id="p3d1d667b8f">
   <rect height="380.52" width="558" x="86.2275" y="7.2"/>
  </clipPath>
 </defs>
</svg>
