<?xml version="1.0" encoding="utf-8" standalone="no"?>
<!DOCTYPE svg PUBLIC "-//W3C//DTD SVG 1.1//EN"
  "http://www.w3.org/Graphics/SVG/1.1/DTD/svg11.dtd">
<!-- Created with matplotlib (http://matplotlib.org/) -->
<svg height="380pt" version="1.1" viewBox="0 0 664 380" width="664pt" xmlns="http://www.w3.org/2000/svg" xmlns:xlink="http://www.w3.org/1999/xlink">
 <defs>
  <style type="text/css">
*{stroke-linecap:butt;stroke-linejoin:round;}
  </style>
 </defs>
 <g id="figure_1">
  <g id="patch_1">
   <path d="M 0 380.038906 
L 664.504062 380.038906 
L 664.504062 0 
L 0 0 
z
" style="fill:#ffffff;"/>
  </g>
  <g id="axes_1">
   <g id="patch_2">
    <path d="M 80.1675 320.478281 
L 638.1675 320.478281 
L 638.1675 15.558281 
L 80.1675 15.558281 
z
" style="fill:#ffffff;"/>
   </g>
   <g id="patch_3">
    <path clip-path="url(#p0f11a6c272)" d="M 101.0925 381.038906 
L 101.0925 292.671789 
L 149.22 292.671789 
L 149.22 248.59954 
L 197.3475 248.59954 
L 197.3475 237.058803 
L 245.475 237.058803 
L 245.475 237.058803 
L 293.6025 237.058803 
L 293.6025 228.107112 
L 341.73 228.107112 
L 341.73 214.609095 
L 389.8575 214.609095 
L 389.8575 209.252311 
L 437.985 209.252311 
L 437.985 200.300619 
L 486.1125 200.300619 
L 486.1125 200.300619 
L 534.24 200.300619 
L 534.24 192.986555 
L 582.3675 192.986555 
L 582.3675 381.038906 
" style="fill:none;stroke:#1a1a1a;stroke-linejoin:miter;stroke-width:3;"/>
   </g>
   <g id="patch_4">
    <path clip-path="url(#p0f11a6c272)" d="M 101.0925 381.038906 
L 101.0925 228.107112 
L 149.22 228.107112 
L 149.22 184.034864 
L 197.3475 184.034864 
L 197.3475 172.494127 
L 245.475 172.494127 
L 245.475 172.494127 
L 293.6025 172.494127 
L 293.6025 163.542436 
L 341.73 163.542436 
L 341.73 150.044418 
L 389.8575 150.044418 
L 389.8575 144.687634 
L 437.985 144.687634 
L 437.985 135.735943 
L 486.1125 135.735943 
L 486.1125 135.735943 
L 534.24 135.735943 
L 534.24 128.421879 
L 582.3675 128.421879 
L 582.3675 381.038906 
" style="fill:none;stroke:#000000;stroke-dasharray:11.1,4.8;stroke-dashoffset:0;stroke-linejoin:miter;stroke-width:3;"/>
   </g>
   <g id="matplotlib.axis_1">
    <g id="xtick_1">
     <g id="line2d_1">
      <defs>
       <path d="M 0 0 
L 0 -6 
" id="ma54bd0b8fd" style="stroke:#333333;stroke-width:0.8;"/>
      </defs>
      <g>
       <use style="fill:#333333;stroke:#333333;stroke-width:0.8;" x="80.1675" xlink:href="#ma54bd0b8fd" y="320.478281"/>
      </g>
     </g>
     <g id="text_1">
      <!-- 0.2 -->
      <defs>
       <path d="M 34.8125 4.296875 
Q 40.671875 4.296875 42.84375 9.609375 
Q 45.015625 14.9375 45.015625 36.375 
Q 45.015625 57.671875 42.84375 63.078125 
Q 40.671875 68.5 34.8125 68.5 
Q 28.953125 68.5 26.78125 63.171875 
Q 24.609375 57.859375 24.609375 36.375 
Q 24.609375 14.9375 26.78125 9.609375 
Q 28.953125 4.296875 34.8125 4.296875 
z
M 34.8125 -1.421875 
Q 20.21875 -1.421875 12.453125 8.3125 
Q 4.6875 18.0625 4.6875 36.375 
Q 4.6875 54.6875 12.453125 64.453125 
Q 20.21875 74.21875 34.8125 74.21875 
Q 49.359375 74.21875 57.125 64.453125 
Q 64.890625 54.6875 64.890625 36.375 
Q 64.890625 18.0625 57.125 8.3125 
Q 49.359375 -1.421875 34.8125 -1.421875 
z
" id="DejaVuSerif-Bold-30"/>
       <path d="M 8.109375 7.90625 
Q 8.109375 11.71875 10.84375 14.453125 
Q 13.578125 17.1875 17.390625 17.1875 
Q 21.234375 17.1875 23.96875 14.453125 
Q 26.703125 11.71875 26.703125 7.90625 
Q 26.703125 4.046875 23.96875 1.3125 
Q 21.234375 -1.421875 17.390625 -1.421875 
Q 13.578125 -1.421875 10.84375 1.3125 
Q 8.109375 4.046875 8.109375 7.90625 
z
" id="DejaVuSerif-Bold-2e"/>
       <path d="M 13.1875 54.890625 
L 7.328125 54.890625 
L 7.328125 70.609375 
Q 13.28125 72.40625 19.109375 73.3125 
Q 24.953125 74.21875 30.90625 74.21875 
Q 44.828125 74.21875 52.609375 68.53125 
Q 60.40625 62.84375 60.40625 52.6875 
Q 60.40625 45.453125 56.109375 39.71875 
Q 51.8125 33.984375 39.703125 26.125 
L 19.390625 12.796875 
L 53.90625 12.796875 
L 53.90625 21.390625 
L 60.59375 21.390625 
L 60.59375 0 
L 6.6875 0 
L 6.6875 11.921875 
L 17.484375 19.390625 
Q 31.296875 28.90625 35.890625 35.59375 
Q 40.484375 42.28125 40.484375 51.21875 
Q 40.484375 59.671875 36.984375 64.078125 
Q 33.5 68.5 26.8125 68.5 
Q 21.046875 68.5 17.578125 65.015625 
Q 14.109375 61.53125 13.1875 54.890625 
z
" id="DejaVuSerif-Bold-32"/>
      </defs>
      <g style="fill:#333333;" transform="translate(61.030938 340.694844)scale(0.22 -0.22)">
       <use xlink:href="#DejaVuSerif-Bold-30"/>
       <use x="69.580078" xlink:href="#DejaVuSerif-Bold-2e"/>
       <use x="104.394531" xlink:href="#DejaVuSerif-Bold-32"/>
      </g>
     </g>
    </g>
    <g id="xtick_2">
     <g id="line2d_2">
      <g>
       <use style="fill:#333333;stroke:#333333;stroke-width:0.8;" x="149.9175" xlink:href="#ma54bd0b8fd" y="320.478281"/>
      </g>
     </g>
     <g id="text_2">
      <!-- 0.3 -->
      <defs>
       <path d="M 8.59375 70.796875 
Q 15.046875 72.515625 21.09375 73.359375 
Q 27.15625 74.21875 32.90625 74.21875 
Q 46.09375 74.21875 53.140625 69.5 
Q 60.203125 64.796875 60.203125 56 
Q 60.203125 49.421875 56.140625 45.3125 
Q 52.09375 41.21875 44.28125 39.796875 
Q 53.8125 38.28125 58.5 33.296875 
Q 63.1875 28.328125 63.1875 19.671875 
Q 63.1875 9.46875 55.09375 4.015625 
Q 47.015625 -1.421875 31.6875 -1.421875 
Q 25.921875 -1.421875 19.796875 -0.4375 
Q 13.671875 0.53125 6.984375 2.484375 
L 6.984375 18.5 
L 12.890625 18.5 
Q 13.421875 11.578125 17.234375 7.9375 
Q 21.046875 4.296875 27.78125 4.296875 
Q 35.203125 4.296875 39.25 8.421875 
Q 43.3125 12.546875 43.3125 20.125 
Q 43.3125 28.03125 39.078125 32.328125 
Q 34.859375 36.625 27.09375 36.625 
L 23.875 36.625 
L 23.875 42.484375 
L 26.421875 42.484375 
Q 33.59375 42.484375 37.203125 45.796875 
Q 40.828125 49.125 40.828125 55.71875 
Q 40.828125 61.921875 37.421875 65.203125 
Q 34.03125 68.5 27.6875 68.5 
Q 21.921875 68.5 18.546875 65.34375 
Q 15.1875 62.203125 14.5 56.203125 
L 8.59375 56.203125 
z
" id="DejaVuSerif-Bold-33"/>
      </defs>
      <g style="fill:#333333;" transform="translate(130.780938 340.694844)scale(0.22 -0.22)">
       <use xlink:href="#DejaVuSerif-Bold-30"/>
       <use x="69.580078" xlink:href="#DejaVuSerif-Bold-2e"/>
       <use x="104.394531" xlink:href="#DejaVuSerif-Bold-33"/>
      </g>
     </g>
    </g>
    <g id="xtick_3">
     <g id="line2d_3">
      <g>
       <use style="fill:#333333;stroke:#333333;stroke-width:0.8;" x="219.6675" xlink:href="#ma54bd0b8fd" y="320.478281"/>
      </g>
     </g>
     <g id="text_3">
      <!-- 0.4 -->
      <defs>
       <path d="M 63.8125 0 
L 23.6875 0 
L 23.6875 5.90625 
L 34.515625 5.90625 
L 34.515625 19.1875 
L 4.109375 19.1875 
L 4.109375 24.8125 
L 34.625 74.21875 
L 52.984375 74.21875 
L 52.984375 25.484375 
L 65.484375 25.484375 
L 65.484375 19.1875 
L 52.984375 19.1875 
L 52.984375 5.90625 
L 63.8125 5.90625 
z
M 34.515625 25.484375 
L 34.515625 60.890625 
L 12.796875 25.484375 
z
" id="DejaVuSerif-Bold-34"/>
      </defs>
      <g style="fill:#333333;" transform="translate(200.530938 340.694844)scale(0.22 -0.22)">
       <use xlink:href="#DejaVuSerif-Bold-30"/>
       <use x="69.580078" xlink:href="#DejaVuSerif-Bold-2e"/>
       <use x="104.394531" xlink:href="#DejaVuSerif-Bold-34"/>
      </g>
     </g>
    </g>
    <g id="xtick_4">
     <g id="line2d_4">
      <g>
       <use style="fill:#333333;stroke:#333333;stroke-width:0.8;" x="289.4175" xlink:href="#ma54bd0b8fd" y="320.478281"/>
      </g>
     </g>
     <g id="text_4">
      <!-- 0.5 -->
      <defs>
       <path d="M 56.390625 72.90625 
L 56.390625 60.109375 
L 17.390625 60.109375 
L 17.390625 44.09375 
Q 20.609375 46.578125 24.5625 47.84375 
Q 28.515625 49.125 32.90625 49.125 
Q 46.390625 49.125 54.203125 42.3125 
Q 62.015625 35.5 62.015625 23.78125 
Q 62.015625 11.859375 54.203125 5.21875 
Q 46.390625 -1.421875 32.328125 -1.421875 
Q 26.375 -1.421875 20.484375 -0.4375 
Q 14.59375 0.53125 8.203125 2.59375 
L 8.203125 18.5 
L 14.0625 18.5 
Q 14.359375 11.328125 17.796875 7.8125 
Q 21.234375 4.296875 27.984375 4.296875 
Q 35.15625 4.296875 38.625 9.109375 
Q 42.09375 13.921875 42.09375 23.78125 
Q 42.09375 33.5 38.6875 38.296875 
Q 35.296875 43.109375 28.421875 43.109375 
Q 24.703125 43.109375 21.796875 41.578125 
Q 18.890625 40.046875 16.40625 36.8125 
L 11.53125 36.8125 
L 11.53125 72.90625 
z
" id="DejaVuSerif-Bold-35"/>
      </defs>
      <g style="fill:#333333;" transform="translate(270.280937 340.694844)scale(0.22 -0.22)">
       <use xlink:href="#DejaVuSerif-Bold-30"/>
       <use x="69.580078" xlink:href="#DejaVuSerif-Bold-2e"/>
       <use x="104.394531" xlink:href="#DejaVuSerif-Bold-35"/>
      </g>
     </g>
    </g>
    <g id="xtick_5">
     <g id="line2d_5">
      <g>
       <use style="fill:#333333;stroke:#333333;stroke-width:0.8;" x="359.1675" xlink:href="#ma54bd0b8fd" y="320.478281"/>
      </g>
     </g>
     <g id="text_5">
      <!-- 0.6 -->
      <defs>
       <path d="M 24.609375 43.21875 
Q 27.78125 45.75 31.703125 47.015625 
Q 35.640625 48.296875 40.28125 48.296875 
Q 51.46875 48.296875 57.828125 41.75 
Q 64.203125 35.203125 64.203125 23.78125 
Q 64.203125 11.71875 57.03125 5.140625 
Q 49.859375 -1.421875 36.625 -1.421875 
Q 21.6875 -1.421875 13.984375 7.59375 
Q 6.296875 16.609375 6.296875 34.078125 
Q 6.296875 53.953125 14.84375 64.078125 
Q 23.390625 74.21875 40.1875 74.21875 
Q 44.578125 74.21875 49.609375 73.484375 
Q 54.640625 72.75 60.40625 71.296875 
L 60.40625 58.40625 
L 54.5 58.40625 
Q 53.265625 63.375 49.875 65.9375 
Q 46.484375 68.5 41.109375 68.5 
Q 32.421875 68.5 28.53125 62.546875 
Q 24.65625 56.59375 24.609375 43.21875 
z
M 35.5 4.296875 
Q 40.53125 4.296875 42.671875 8.5625 
Q 44.828125 12.84375 44.828125 23.390625 
Q 44.828125 33.9375 42.671875 38.203125 
Q 40.53125 42.484375 35.5 42.484375 
Q 30.46875 42.484375 28.34375 38.203125 
Q 26.21875 33.9375 26.21875 23.390625 
Q 26.21875 12.84375 28.34375 8.5625 
Q 30.46875 4.296875 35.5 4.296875 
z
" id="DejaVuSerif-Bold-36"/>
      </defs>
      <g style="fill:#333333;" transform="translate(340.030938 340.694844)scale(0.22 -0.22)">
       <use xlink:href="#DejaVuSerif-Bold-30"/>
       <use x="69.580078" xlink:href="#DejaVuSerif-Bold-2e"/>
       <use x="104.394531" xlink:href="#DejaVuSerif-Bold-36"/>
      </g>
     </g>
    </g>
    <g id="xtick_6">
     <g id="line2d_6">
      <g>
       <use style="fill:#333333;stroke:#333333;stroke-width:0.8;" x="428.9175" xlink:href="#ma54bd0b8fd" y="320.478281"/>
      </g>
     </g>
     <g id="text_6">
      <!-- 0.7 -->
      <defs>
       <path d="M 61.28125 60.5 
L 31.203125 0 
L 21.296875 0 
L 50.59375 59.078125 
L 14.59375 59.078125 
L 14.59375 49.21875 
L 7.90625 49.21875 
L 7.90625 72.90625 
L 61.28125 72.90625 
z
" id="DejaVuSerif-Bold-37"/>
      </defs>
      <g style="fill:#333333;" transform="translate(409.780937 340.694844)scale(0.22 -0.22)">
       <use xlink:href="#DejaVuSerif-Bold-30"/>
       <use x="69.580078" xlink:href="#DejaVuSerif-Bold-2e"/>
       <use x="104.394531" xlink:href="#DejaVuSerif-Bold-37"/>
      </g>
     </g>
    </g>
    <g id="xtick_7">
     <g id="line2d_7">
      <g>
       <use style="fill:#333333;stroke:#333333;stroke-width:0.8;" x="498.6675" xlink:href="#ma54bd0b8fd" y="320.478281"/>
      </g>
     </g>
     <g id="text_7">
      <!-- 0.8 -->
      <defs>
       <path d="M 46.484375 38.8125 
Q 55.171875 37.40625 59.6875 32.421875 
Q 64.203125 27.4375 64.203125 19.390625 
Q 64.203125 9.328125 56.609375 3.953125 
Q 49.03125 -1.421875 34.71875 -1.421875 
Q 20.40625 -1.421875 12.78125 3.953125 
Q 5.171875 9.328125 5.171875 19.390625 
Q 5.171875 27.4375 9.71875 32.421875 
Q 14.265625 37.40625 22.90625 38.8125 
Q 15.234375 40.578125 11.421875 44.703125 
Q 7.625 48.828125 7.625 55.171875 
Q 7.625 64.453125 14.546875 69.328125 
Q 21.484375 74.21875 34.71875 74.21875 
Q 47.90625 74.21875 54.859375 69.328125 
Q 61.8125 64.453125 61.8125 55.171875 
Q 61.8125 48.828125 57.984375 44.703125 
Q 54.15625 40.578125 46.484375 38.8125 
z
M 42.921875 54.984375 
Q 42.921875 62.703125 41.0625 65.59375 
Q 39.203125 68.5 34.71875 68.5 
Q 30.171875 68.5 28.34375 65.59375 
Q 26.515625 62.703125 26.515625 54.984375 
Q 26.515625 47.3125 28.34375 44.453125 
Q 30.171875 41.609375 34.71875 41.609375 
Q 39.265625 41.609375 41.09375 44.453125 
Q 42.921875 47.3125 42.921875 54.984375 
z
M 44.828125 20.21875 
Q 44.828125 29.15625 42.546875 32.515625 
Q 40.28125 35.890625 34.71875 35.890625 
Q 29.109375 35.890625 26.859375 32.515625 
Q 24.609375 29.15625 24.609375 20.21875 
Q 24.609375 11.1875 26.875 7.734375 
Q 29.15625 4.296875 34.71875 4.296875 
Q 40.234375 4.296875 42.53125 7.734375 
Q 44.828125 11.1875 44.828125 20.21875 
z
" id="DejaVuSerif-Bold-38"/>
      </defs>
      <g style="fill:#333333;" transform="translate(479.530937 340.694844)scale(0.22 -0.22)">
       <use xlink:href="#DejaVuSerif-Bold-30"/>
       <use x="69.580078" xlink:href="#DejaVuSerif-Bold-2e"/>
       <use x="104.394531" xlink:href="#DejaVuSerif-Bold-38"/>
      </g>
     </g>
    </g>
    <g id="xtick_8">
     <g id="line2d_8">
      <g>
       <use style="fill:#333333;stroke:#333333;stroke-width:0.8;" x="568.4175" xlink:href="#ma54bd0b8fd" y="320.478281"/>
      </g>
     </g>
     <g id="text_8">
      <!-- 0.9 -->
      <defs>
       <path d="M 34.078125 68.5 
Q 29.046875 68.5 26.921875 64.234375 
Q 24.8125 59.96875 24.8125 49.421875 
Q 24.8125 38.875 26.921875 34.59375 
Q 29.046875 30.328125 34.078125 30.328125 
Q 39.109375 30.328125 41.25 34.59375 
Q 43.40625 38.875 43.40625 49.421875 
Q 43.40625 59.96875 41.25 64.234375 
Q 39.109375 68.5 34.078125 68.5 
z
M 44.96875 29.6875 
Q 41.75 27.09375 37.8125 25.796875 
Q 33.890625 24.515625 29.296875 24.515625 
Q 18.171875 24.515625 11.796875 31.03125 
Q 5.421875 37.546875 5.421875 49.03125 
Q 5.421875 61.140625 12.546875 67.671875 
Q 19.671875 74.21875 32.90625 74.21875 
Q 47.859375 74.21875 55.5625 65.1875 
Q 63.28125 56.15625 63.28125 38.71875 
Q 63.28125 18.84375 54.734375 8.703125 
Q 46.1875 -1.421875 29.390625 -1.421875 
Q 25 -1.421875 19.96875 -0.6875 
Q 14.9375 0.046875 9.1875 1.515625 
L 9.1875 14.40625 
L 15.09375 14.40625 
Q 16.3125 9.421875 19.703125 6.859375 
Q 23.09375 4.296875 28.515625 4.296875 
Q 37.109375 4.296875 41.015625 10.28125 
Q 44.921875 16.265625 44.96875 29.6875 
z
" id="DejaVuSerif-Bold-39"/>
      </defs>
      <g style="fill:#333333;" transform="translate(549.280938 340.694844)scale(0.22 -0.22)">
       <use xlink:href="#DejaVuSerif-Bold-30"/>
       <use x="69.580078" xlink:href="#DejaVuSerif-Bold-2e"/>
       <use x="104.394531" xlink:href="#DejaVuSerif-Bold-39"/>
      </g>
     </g>
    </g>
    <g id="xtick_9">
     <g id="line2d_9">
      <g>
       <use style="fill:#333333;stroke:#333333;stroke-width:0.8;" x="638.1675" xlink:href="#ma54bd0b8fd" y="320.478281"/>
      </g>
     </g>
     <g id="text_9">
      <!-- 1.0 -->
      <defs>
       <path d="M 13.71875 0 
L 13.71875 5.90625 
L 27.390625 5.90625 
L 27.390625 64.890625 
L 12.203125 55.90625 
L 12.203125 63.1875 
L 30.515625 74.21875 
L 45.90625 74.21875 
L 45.90625 5.90625 
L 59.625 5.90625 
L 59.625 0 
z
" id="DejaVuSerif-Bold-31"/>
      </defs>
      <g style="fill:#333333;" transform="translate(619.030938 340.694844)scale(0.22 -0.22)">
       <use xlink:href="#DejaVuSerif-Bold-31"/>
       <use x="69.580078" xlink:href="#DejaVuSerif-Bold-2e"/>
       <use x="104.394531" xlink:href="#DejaVuSerif-Bold-30"/>
      </g>
     </g>
    </g>
    <g id="text_10">
     <!-- Projected Radius [pc] -->
     <defs>
      <path d="M 4.6875 0 
L 4.6875 5.90625 
L 14.015625 5.90625 
L 14.015625 67 
L 4.6875 67 
L 4.6875 72.90625 
L 46.1875 72.90625 
Q 58.34375 72.90625 65.515625 67.109375 
Q 72.703125 61.328125 72.703125 51.609375 
Q 72.703125 41.84375 65.5 36 
Q 58.296875 30.171875 46.1875 30.171875 
L 32.8125 30.171875 
L 32.8125 5.90625 
L 44.578125 5.90625 
L 44.578125 0 
z
M 32.8125 36.078125 
L 38.28125 36.078125 
Q 44.625 36.078125 48.40625 40.296875 
Q 52.203125 44.53125 52.203125 51.609375 
Q 52.203125 58.640625 48.4375 62.8125 
Q 44.671875 67 38.28125 67 
L 32.8125 67 
z
" id="DejaVuSerif-Bold-50"/>
      <path d="M 53.71875 52.484375 
L 53.71875 37.015625 
L 48.1875 37.015625 
Q 47.90625 41.15625 45.953125 43.1875 
Q 44 45.21875 40.28125 45.21875 
Q 34.625 45.21875 31.34375 40.234375 
Q 28.078125 35.25 28.078125 26.421875 
L 28.078125 5.90625 
L 37.5 5.90625 
L 37.5 0 
L 3.421875 0 
L 3.421875 5.90625 
L 10.796875 5.90625 
L 10.796875 46 
L 2.875 46 
L 2.875 51.90625 
L 28.078125 51.90625 
L 28.078125 42.671875 
Q 30.609375 48.09375 34.78125 50.703125 
Q 38.96875 53.328125 45.015625 53.328125 
Q 46.53125 53.328125 48.703125 53.09375 
Q 50.875 52.875 53.71875 52.484375 
z
" id="DejaVuSerif-Bold-72"/>
      <path d="M 33.40625 4.109375 
Q 38.875 4.109375 41.09375 8.796875 
Q 43.3125 13.484375 43.3125 25.984375 
Q 43.3125 38.484375 41.109375 43.140625 
Q 38.921875 47.796875 33.40625 47.796875 
Q 27.875 47.796875 25.625 43.078125 
Q 23.390625 38.375 23.390625 25.984375 
Q 23.390625 13.578125 25.625 8.84375 
Q 27.875 4.109375 33.40625 4.109375 
z
M 33.40625 -1.421875 
Q 19.671875 -1.421875 11.890625 5.875 
Q 4.109375 13.1875 4.109375 25.984375 
Q 4.109375 38.8125 11.890625 46.0625 
Q 19.671875 53.328125 33.40625 53.328125 
Q 47.171875 53.328125 54.9375 46.0625 
Q 62.703125 38.8125 62.703125 25.984375 
Q 62.703125 13.1875 54.90625 5.875 
Q 47.125 -1.421875 33.40625 -1.421875 
z
" id="DejaVuSerif-Bold-6f"/>
      <path d="M 8.6875 66.609375 
Q 8.6875 70.5625 11.390625 73.265625 
Q 14.109375 75.984375 18.109375 75.984375 
Q 21.921875 75.984375 24.65625 73.25 
Q 27.390625 70.515625 27.390625 66.609375 
Q 27.390625 62.75 24.671875 60.03125 
Q 21.96875 57.328125 18.109375 57.328125 
Q 14.15625 57.328125 11.421875 60.015625 
Q 8.6875 62.703125 8.6875 66.609375 
z
M 10.6875 46 
L 3.328125 46 
L 3.328125 51.90625 
L 27.984375 51.90625 
L 27.984375 -6.109375 
Q 27.984375 -14.0625 22.34375 -18.140625 
Q 16.703125 -22.21875 5.71875 -22.21875 
Q 2.78125 -22.21875 -0.53125 -21.71875 
Q -3.859375 -21.234375 -7.421875 -20.3125 
L -7.421875 -9.28125 
L -1.90625 -9.328125 
Q -1.8125 -13.234375 -0.359375 -14.96875 
Q 1.078125 -16.703125 4.296875 -16.703125 
Q 7.859375 -16.703125 9.265625 -14.40625 
Q 10.6875 -12.109375 10.6875 -6.109375 
z
" id="DejaVuSerif-Bold-6a"/>
      <path d="M 40.09375 29.296875 
Q 40.09375 39.546875 38.1875 43.671875 
Q 36.28125 47.796875 31.6875 47.796875 
Q 27.25 47.796875 25.3125 43.75 
Q 23.390625 39.703125 23.390625 30.171875 
L 23.390625 29.296875 
z
M 59.078125 23.484375 
L 23.390625 23.484375 
L 23.390625 23.09375 
Q 23.390625 13.03125 26.40625 8.5625 
Q 29.4375 4.109375 36.1875 4.109375 
Q 41.796875 4.109375 45.265625 7.078125 
Q 48.734375 10.0625 49.703125 15.71875 
L 57.8125 15.71875 
Q 55.71875 6.890625 49.46875 2.734375 
Q 43.21875 -1.421875 31.984375 -1.421875 
Q 18.5 -1.421875 11.296875 5.6875 
Q 4.109375 12.796875 4.109375 25.984375 
Q 4.109375 38.875 11.46875 46.09375 
Q 18.84375 53.328125 31.984375 53.328125 
Q 44.875 53.328125 51.75 45.734375 
Q 58.640625 38.140625 59.078125 23.484375 
z
" id="DejaVuSerif-Bold-65"/>
      <path d="M 56.390625 16.21875 
Q 54.546875 7.328125 48.796875 2.953125 
Q 43.0625 -1.421875 33.203125 -1.421875 
Q 19.34375 -1.421875 11.71875 5.75 
Q 4.109375 12.9375 4.109375 25.984375 
Q 4.109375 38.875 11.625 46.09375 
Q 19.140625 53.328125 32.515625 53.328125 
Q 37.9375 53.328125 43.453125 52.296875 
Q 48.96875 51.265625 54.6875 49.21875 
L 54.6875 34.8125 
L 49.21875 34.8125 
Q 48.4375 41.40625 45.359375 44.59375 
Q 42.28125 47.796875 36.71875 47.796875 
Q 29.5 47.796875 26.4375 42.90625 
Q 23.390625 38.03125 23.390625 25.984375 
Q 23.390625 14.203125 26.359375 9.15625 
Q 29.34375 4.109375 36.078125 4.109375 
Q 41.3125 4.109375 44.453125 7.234375 
Q 47.609375 10.359375 48.296875 16.21875 
z
" id="DejaVuSerif-Bold-63"/>
      <path d="M 9.90625 46 
L 2.390625 46 
L 2.390625 51.90625 
L 9.90625 51.90625 
L 9.90625 68.015625 
L 27.203125 68.015625 
L 27.203125 51.90625 
L 41.609375 51.90625 
L 41.609375 46 
L 27.203125 46 
L 27.203125 14.203125 
Q 27.203125 7.421875 28.265625 5.765625 
Q 29.34375 4.109375 32.171875 4.109375 
Q 35.296875 4.109375 36.8125 6.203125 
Q 38.328125 8.296875 38.421875 12.703125 
L 45.703125 12.703125 
Q 45.265625 4.890625 41.421875 1.734375 
Q 37.59375 -1.421875 28.21875 -1.421875 
Q 17.53125 -1.421875 13.71875 1.921875 
Q 9.90625 5.28125 9.90625 14.203125 
z
" id="DejaVuSerif-Bold-74"/>
      <path d="M 42.921875 23.390625 
L 42.921875 28.515625 
Q 42.921875 37.59375 40.578125 41.640625 
Q 38.234375 45.703125 33.109375 45.703125 
Q 27.734375 45.703125 25.5625 41.421875 
Q 23.390625 37.15625 23.390625 25.984375 
Q 23.390625 14.796875 25.578125 10.5 
Q 27.78125 6.203125 33.109375 6.203125 
Q 38.234375 6.203125 40.578125 10.25 
Q 42.921875 14.3125 42.921875 23.390625 
z
M 60.203125 5.90625 
L 67.578125 5.90625 
L 67.578125 0 
L 42.921875 0 
L 42.921875 6.59375 
Q 40.71875 2.546875 36.984375 0.5625 
Q 33.25 -1.421875 27.78125 -1.421875 
Q 16.75 -1.421875 10.421875 5.90625 
Q 4.109375 13.234375 4.109375 25.984375 
Q 4.109375 38.765625 10.421875 46.046875 
Q 16.75 53.328125 27.78125 53.328125 
Q 33.25 53.328125 36.984375 51.34375 
Q 40.71875 49.359375 42.921875 45.3125 
L 42.921875 70.125 
L 35.5 70.125 
L 35.5 75.984375 
L 60.203125 75.984375 
z
" id="DejaVuSerif-Bold-64"/>
      <path id="DejaVuSerif-Bold-20"/>
      <path d="M 53.078125 35.59375 
Q 57.421875 34.96875 60.390625 32.71875 
Q 63.375 30.46875 65.578125 26.21875 
L 76.21875 5.90625 
L 83.6875 5.90625 
L 83.6875 0 
L 59.71875 0 
L 48.09375 22.015625 
Q 44.734375 28.859375 42.359375 30.734375 
Q 39.984375 32.625 35.796875 32.625 
L 32.8125 32.625 
L 32.8125 5.90625 
L 42.1875 5.90625 
L 42.1875 0 
L 4.6875 0 
L 4.6875 5.90625 
L 14.015625 5.90625 
L 14.015625 67 
L 4.6875 67 
L 4.6875 72.90625 
L 46.296875 72.90625 
Q 58.984375 72.90625 65.890625 67.796875 
Q 72.796875 62.703125 72.796875 53.328125 
Q 72.796875 45.703125 67.890625 41.28125 
Q 62.984375 36.859375 53.078125 35.59375 
z
M 32.8125 38.484375 
L 39.203125 38.484375 
Q 46.046875 38.484375 49.734375 42.1875 
Q 53.421875 45.90625 53.421875 52.78125 
Q 53.421875 59.671875 49.734375 63.328125 
Q 46.046875 67 39.203125 67 
L 32.8125 67 
z
" id="DejaVuSerif-Bold-52"/>
      <path d="M 55.078125 31.890625 
L 55.078125 5.90625 
L 62.5 5.90625 
L 62.5 0 
L 37.796875 0 
L 37.796875 6.59375 
Q 34.375 2.484375 30.171875 0.53125 
Q 25.984375 -1.421875 20.609375 -1.421875 
Q 12.640625 -1.421875 8.375 2.84375 
Q 4.109375 7.125 4.109375 15.09375 
Q 4.109375 23.828125 10.234375 28.171875 
Q 16.359375 32.515625 28.71875 32.515625 
L 37.796875 32.515625 
L 37.796875 35.59375 
Q 37.796875 41.890625 34.8125 44.890625 
Q 31.84375 47.90625 25.59375 47.90625 
Q 20.40625 47.90625 17.59375 45.78125 
Q 14.796875 43.65625 13.625 38.8125 
L 8.109375 38.8125 
L 8.109375 50 
Q 12.75 51.65625 17.71875 52.484375 
Q 22.703125 53.328125 28.21875 53.328125 
Q 42.140625 53.328125 48.609375 48.140625 
Q 55.078125 42.96875 55.078125 31.890625 
z
M 37.796875 16.3125 
L 37.796875 26.703125 
L 31.296875 26.703125 
Q 26.46875 26.703125 23.875 24.0625 
Q 21.296875 21.4375 21.296875 16.5 
Q 21.296875 11.578125 23.171875 9.125 
Q 25.046875 6.6875 28.90625 6.6875 
Q 32.90625 6.6875 35.34375 9.328125 
Q 37.796875 11.96875 37.796875 16.3125 
z
" id="DejaVuSerif-Bold-61"/>
      <path d="M 9.1875 66.609375 
Q 9.1875 70.5625 11.921875 73.265625 
Q 14.65625 75.984375 18.609375 75.984375 
Q 22.46875 75.984375 25.171875 73.265625 
Q 27.875 70.5625 27.875 66.609375 
Q 27.875 62.75 25.171875 60.03125 
Q 22.46875 57.328125 18.609375 57.328125 
Q 14.65625 57.328125 11.921875 60.015625 
Q 9.1875 62.703125 9.1875 66.609375 
z
M 28.078125 5.90625 
L 35.5 5.90625 
L 35.5 0 
L 3.421875 0 
L 3.421875 5.90625 
L 10.796875 5.90625 
L 10.796875 46 
L 3.421875 46 
L 3.421875 51.90625 
L 28.078125 51.90625 
z
" id="DejaVuSerif-Bold-69"/>
      <path d="M 61.921875 51.90625 
L 61.921875 5.90625 
L 69.28125 5.90625 
L 69.28125 0 
L 44.578125 0 
L 44.578125 7.328125 
Q 41.5 2.6875 37.5 0.625 
Q 33.5 -1.421875 27.390625 -1.421875 
Q 18.65625 -1.421875 14.1875 3.734375 
Q 9.71875 8.890625 9.71875 18.890625 
L 9.71875 46 
L 2.296875 46 
L 2.296875 51.90625 
L 27 51.90625 
L 27 21.578125 
Q 27 11.921875 28.609375 9.296875 
Q 30.21875 6.6875 34.515625 6.6875 
Q 39.75 6.6875 42.15625 10.546875 
Q 44.578125 14.40625 44.578125 22.796875 
L 44.578125 46 
L 38.28125 46 
L 38.28125 51.90625 
z
" id="DejaVuSerif-Bold-75"/>
      <path d="M 4.6875 1.515625 
L 4.6875 16.015625 
L 10.203125 16.015625 
Q 10.890625 10.203125 14.546875 7.15625 
Q 18.21875 4.109375 24.515625 4.109375 
Q 29.78125 4.109375 32.59375 5.9375 
Q 35.40625 7.765625 35.40625 11.1875 
Q 35.40625 14.3125 33.625 16.015625 
Q 31.84375 17.71875 26.703125 19 
L 19.578125 20.796875 
Q 11.53125 22.796875 7.90625 26.53125 
Q 4.296875 30.28125 4.296875 36.625 
Q 4.296875 45.0625 10.15625 49.1875 
Q 16.015625 53.328125 28.21875 53.328125 
Q 32.8125 53.328125 38.015625 52.5625 
Q 43.21875 51.8125 49.515625 50.203125 
L 49.515625 37.109375 
L 44 37.109375 
Q 43.5625 42.4375 40.203125 45.109375 
Q 36.859375 47.796875 30.609375 47.796875 
Q 25.34375 47.796875 22.625 46.109375 
Q 19.921875 44.4375 19.921875 41.21875 
Q 19.921875 38.578125 21.484375 37.0625 
Q 23.046875 35.546875 27.09375 34.515625 
L 34.1875 32.71875 
Q 44.390625 30.125 48.296875 26.3125 
Q 52.203125 22.515625 52.203125 15.71875 
Q 52.203125 6.9375 45.921875 2.75 
Q 39.65625 -1.421875 26.421875 -1.421875 
Q 21.578125 -1.421875 16.15625 -0.6875 
Q 10.75 0.046875 4.6875 1.515625 
z
" id="DejaVuSerif-Bold-73"/>
      <path d="M 12.5 75.984375 
L 40.1875 75.984375 
L 40.1875 70.125 
L 29.78125 70.125 
L 29.78125 -7.328125 
L 40.1875 -7.328125 
L 40.1875 -13.1875 
L 12.5 -13.1875 
z
" id="DejaVuSerif-Bold-5b"/>
      <path d="M 27 28.515625 
L 27 23.390625 
Q 27 14.3125 29.3125 10.25 
Q 31.640625 6.203125 36.8125 6.203125 
Q 42.140625 6.203125 44.3125 10.5 
Q 46.484375 14.796875 46.484375 25.984375 
Q 46.484375 37.15625 44.3125 41.421875 
Q 42.140625 45.703125 36.8125 45.703125 
Q 31.640625 45.703125 29.3125 41.640625 
Q 27 37.59375 27 28.515625 
z
M 9.71875 46 
L 2.296875 46 
L 2.296875 51.90625 
L 27 51.90625 
L 27 45.3125 
Q 29.203125 49.359375 32.90625 51.34375 
Q 36.625 53.328125 42.09375 53.328125 
Q 53.171875 53.328125 59.546875 46.015625 
Q 65.921875 38.71875 65.921875 25.984375 
Q 65.921875 13.234375 59.546875 5.90625 
Q 53.171875 -1.421875 42.09375 -1.421875 
Q 36.625 -1.421875 32.90625 0.5625 
Q 29.203125 2.546875 27 6.59375 
L 27 -14.890625 
L 35.015625 -14.890625 
L 35.015625 -20.796875 
L 2.296875 -20.796875 
L 2.296875 -14.890625 
L 9.71875 -14.890625 
z
" id="DejaVuSerif-Bold-70"/>
      <path d="M 34.8125 75.984375 
L 34.8125 -13.1875 
L 7.078125 -13.1875 
L 7.078125 -7.328125 
L 17.484375 -7.328125 
L 17.484375 70.125 
L 7.078125 70.125 
L 7.078125 75.984375 
z
" id="DejaVuSerif-Bold-5d"/>
     </defs>
     <g transform="translate(213.375 367.506406)scale(0.24 -0.24)">
      <use xlink:href="#DejaVuSerif-Bold-50"/>
      <use x="75.195312" xlink:href="#DejaVuSerif-Bold-72"/>
      <use x="127.880859" xlink:href="#DejaVuSerif-Bold-6f"/>
      <use x="194.580078" xlink:href="#DejaVuSerif-Bold-6a"/>
      <use x="230.761719" xlink:href="#DejaVuSerif-Bold-65"/>
      <use x="294.384766" xlink:href="#DejaVuSerif-Bold-63"/>
      <use x="355.273438" xlink:href="#DejaVuSerif-Bold-74"/>
      <use x="401.464844" xlink:href="#DejaVuSerif-Bold-65"/>
      <use x="465.087891" xlink:href="#DejaVuSerif-Bold-64"/>
      <use x="535.009766" xlink:href="#DejaVuSerif-Bold-20"/>
      <use x="569.824219" xlink:href="#DejaVuSerif-Bold-52"/>
      <use x="652.960938" xlink:href="#DejaVuSerif-Bold-61"/>
      <use x="717.755859" xlink:href="#DejaVuSerif-Bold-64"/>
      <use x="787.677734" xlink:href="#DejaVuSerif-Bold-69"/>
      <use x="825.666016" xlink:href="#DejaVuSerif-Bold-75"/>
      <use x="898.371094" xlink:href="#DejaVuSerif-Bold-73"/>
      <use x="954.669922" xlink:href="#DejaVuSerif-Bold-20"/>
      <use x="989.484375" xlink:href="#DejaVuSerif-Bold-5b"/>
      <use x="1036.798828" xlink:href="#DejaVuSerif-Bold-70"/>
      <use x="1106.720703" xlink:href="#DejaVuSerif-Bold-63"/>
      <use x="1167.609375" xlink:href="#DejaVuSerif-Bold-5d"/>
     </g>
    </g>
   </g>
   <g id="matplotlib.axis_2">
    <g id="ytick_1">
     <g id="line2d_10">
      <defs>
       <path d="M 0 0 
L 6 0 
" id="maa55b6fc4d" style="stroke:#333333;stroke-width:0.8;"/>
      </defs>
      <g>
       <use style="fill:#333333;stroke:#333333;stroke-width:0.8;" x="80.1675" xlink:href="#maa55b6fc4d" y="292.671789"/>
      </g>
     </g>
     <g id="text_11">
      <!-- $\mathdefault{10^{0}}$ -->
      <g style="fill:#333333;" transform="translate(34.4275 301.03007)scale(0.22 -0.22)">
       <use transform="translate(0 0.7125)" xlink:href="#DejaVuSerif-Bold-31"/>
       <use transform="translate(69.580078 0.7125)" xlink:href="#DejaVuSerif-Bold-30"/>
       <use transform="translate(140.068516 37.046875)scale(0.7)" xlink:href="#DejaVuSerif-Bold-30"/>
      </g>
     </g>
    </g>
    <g id="ytick_2">
     <g id="line2d_11">
      <g>
       <use style="fill:#333333;stroke:#333333;stroke-width:0.8;" x="80.1675" xlink:href="#maa55b6fc4d" y="200.300619"/>
      </g>
     </g>
     <g id="text_12">
      <!-- $\mathdefault{10^{1}}$ -->
      <g style="fill:#333333;" transform="translate(34.4275 208.658901)scale(0.22 -0.22)">
       <use transform="translate(0 0.7125)" xlink:href="#DejaVuSerif-Bold-31"/>
       <use transform="translate(69.580078 0.7125)" xlink:href="#DejaVuSerif-Bold-30"/>
       <use transform="translate(140.068516 37.046875)scale(0.7)" xlink:href="#DejaVuSerif-Bold-31"/>
      </g>
     </g>
    </g>
    <g id="ytick_3">
     <g id="line2d_12">
      <g>
       <use style="fill:#333333;stroke:#333333;stroke-width:0.8;" x="80.1675" xlink:href="#maa55b6fc4d" y="107.92945"/>
      </g>
     </g>
     <g id="text_13">
      <!-- $\mathdefault{10^{2}}$ -->
      <g style="fill:#333333;" transform="translate(34.4275 116.287732)scale(0.22 -0.22)">
       <use transform="translate(0 0.7125)" xlink:href="#DejaVuSerif-Bold-31"/>
       <use transform="translate(69.580078 0.7125)" xlink:href="#DejaVuSerif-Bold-30"/>
       <use transform="translate(140.068516 37.046875)scale(0.7)" xlink:href="#DejaVuSerif-Bold-32"/>
      </g>
     </g>
    </g>
    <g id="ytick_4">
     <g id="line2d_13">
      <g>
       <use style="fill:#333333;stroke:#333333;stroke-width:0.8;" x="80.1675" xlink:href="#maa55b6fc4d" y="15.558281"/>
      </g>
     </g>
     <g id="text_14">
      <!-- $\mathdefault{10^{3}}$ -->
      <g style="fill:#333333;" transform="translate(34.4275 23.916562)scale(0.22 -0.22)">
       <use transform="translate(0 0.7125)" xlink:href="#DejaVuSerif-Bold-31"/>
       <use transform="translate(69.580078 0.7125)" xlink:href="#DejaVuSerif-Bold-30"/>
       <use transform="translate(140.068516 37.046875)scale(0.7)" xlink:href="#DejaVuSerif-Bold-33"/>
      </g>
     </g>
    </g>
    <g id="ytick_5">
     <g id="line2d_14">
      <defs>
       <path d="M 0 0 
L 3 0 
" id="me503ca1b05" style="stroke:#333333;stroke-width:0.6;"/>
      </defs>
      <g>
       <use style="fill:#333333;stroke:#333333;stroke-width:0.6;" x="80.1675" xlink:href="#me503ca1b05" y="320.478281"/>
      </g>
     </g>
    </g>
    <g id="ytick_6">
     <g id="line2d_15">
      <g>
       <use style="fill:#333333;stroke:#333333;stroke-width:0.6;" x="80.1675" xlink:href="#me503ca1b05" y="313.164217"/>
      </g>
     </g>
    </g>
    <g id="ytick_7">
     <g id="line2d_16">
      <g>
       <use style="fill:#333333;stroke:#333333;stroke-width:0.6;" x="80.1675" xlink:href="#me503ca1b05" y="306.980264"/>
      </g>
     </g>
    </g>
    <g id="ytick_8">
     <g id="line2d_17">
      <g>
       <use style="fill:#333333;stroke:#333333;stroke-width:0.6;" x="80.1675" xlink:href="#me503ca1b05" y="301.62348"/>
      </g>
     </g>
    </g>
    <g id="ytick_9">
     <g id="line2d_18">
      <g>
       <use style="fill:#333333;stroke:#333333;stroke-width:0.6;" x="80.1675" xlink:href="#me503ca1b05" y="296.898462"/>
      </g>
     </g>
    </g>
    <g id="ytick_10">
     <g id="line2d_19">
      <g>
       <use style="fill:#333333;stroke:#333333;stroke-width:0.6;" x="80.1675" xlink:href="#me503ca1b05" y="264.865296"/>
      </g>
     </g>
    </g>
    <g id="ytick_11">
     <g id="line2d_20">
      <g>
       <use style="fill:#333333;stroke:#333333;stroke-width:0.6;" x="80.1675" xlink:href="#me503ca1b05" y="248.59954"/>
      </g>
     </g>
    </g>
    <g id="ytick_12">
     <g id="line2d_21">
      <g>
       <use style="fill:#333333;stroke:#333333;stroke-width:0.6;" x="80.1675" xlink:href="#me503ca1b05" y="237.058803"/>
      </g>
     </g>
    </g>
    <g id="ytick_13">
     <g id="line2d_22">
      <g>
       <use style="fill:#333333;stroke:#333333;stroke-width:0.6;" x="80.1675" xlink:href="#me503ca1b05" y="228.107112"/>
      </g>
     </g>
    </g>
    <g id="ytick_14">
     <g id="line2d_23">
      <g>
       <use style="fill:#333333;stroke:#333333;stroke-width:0.6;" x="80.1675" xlink:href="#me503ca1b05" y="220.793048"/>
      </g>
     </g>
    </g>
    <g id="ytick_15">
     <g id="line2d_24">
      <g>
       <use style="fill:#333333;stroke:#333333;stroke-width:0.6;" x="80.1675" xlink:href="#me503ca1b05" y="214.609095"/>
      </g>
     </g>
    </g>
    <g id="ytick_16">
     <g id="line2d_25">
      <g>
       <use style="fill:#333333;stroke:#333333;stroke-width:0.6;" x="80.1675" xlink:href="#me503ca1b05" y="209.252311"/>
      </g>
     </g>
    </g>
    <g id="ytick_17">
     <g id="line2d_26">
      <g>
       <use style="fill:#333333;stroke:#333333;stroke-width:0.6;" x="80.1675" xlink:href="#me503ca1b05" y="204.527292"/>
      </g>
     </g>
    </g>
    <g id="ytick_18">
     <g id="line2d_27">
      <g>
       <use style="fill:#333333;stroke:#333333;stroke-width:0.6;" x="80.1675" xlink:href="#me503ca1b05" y="172.494127"/>
      </g>
     </g>
    </g>
    <g id="ytick_19">
     <g id="line2d_28">
      <g>
       <use style="fill:#333333;stroke:#333333;stroke-width:0.6;" x="80.1675" xlink:href="#me503ca1b05" y="156.228371"/>
      </g>
     </g>
    </g>
    <g id="ytick_20">
     <g id="line2d_29">
      <g>
       <use style="fill:#333333;stroke:#333333;stroke-width:0.6;" x="80.1675" xlink:href="#me503ca1b05" y="144.687634"/>
      </g>
     </g>
    </g>
    <g id="ytick_21">
     <g id="line2d_30">
      <g>
       <use style="fill:#333333;stroke:#333333;stroke-width:0.6;" x="80.1675" xlink:href="#me503ca1b05" y="135.735943"/>
      </g>
     </g>
    </g>
    <g id="ytick_22">
     <g id="line2d_31">
      <g>
       <use style="fill:#333333;stroke:#333333;stroke-width:0.6;" x="80.1675" xlink:href="#me503ca1b05" y="128.421879"/>
      </g>
     </g>
    </g>
    <g id="ytick_23">
     <g id="line2d_32">
      <g>
       <use style="fill:#333333;stroke:#333333;stroke-width:0.6;" x="80.1675" xlink:href="#me503ca1b05" y="122.237926"/>
      </g>
     </g>
    </g>
    <g id="ytick_24">
     <g id="line2d_33">
      <g>
       <use style="fill:#333333;stroke:#333333;stroke-width:0.6;" x="80.1675" xlink:href="#me503ca1b05" y="116.881142"/>
      </g>
     </g>
    </g>
    <g id="ytick_25">
     <g id="line2d_34">
      <g>
       <use style="fill:#333333;stroke:#333333;stroke-width:0.6;" x="80.1675" xlink:href="#me503ca1b05" y="112.156123"/>
      </g>
     </g>
    </g>
    <g id="ytick_26">
     <g id="line2d_35">
      <g>
       <use style="fill:#333333;stroke:#333333;stroke-width:0.6;" x="80.1675" xlink:href="#me503ca1b05" y="80.122958"/>
      </g>
     </g>
    </g>
    <g id="ytick_27">
     <g id="line2d_36">
      <g>
       <use style="fill:#333333;stroke:#333333;stroke-width:0.6;" x="80.1675" xlink:href="#me503ca1b05" y="63.857202"/>
      </g>
     </g>
    </g>
    <g id="ytick_28">
     <g id="line2d_37">
      <g>
       <use style="fill:#333333;stroke:#333333;stroke-width:0.6;" x="80.1675" xlink:href="#me503ca1b05" y="52.316465"/>
      </g>
     </g>
    </g>
    <g id="ytick_29">
     <g id="line2d_38">
      <g>
       <use style="fill:#333333;stroke:#333333;stroke-width:0.6;" x="80.1675" xlink:href="#me503ca1b05" y="43.364774"/>
      </g>
     </g>
    </g>
    <g id="ytick_30">
     <g id="line2d_39">
      <g>
       <use style="fill:#333333;stroke:#333333;stroke-width:0.6;" x="80.1675" xlink:href="#me503ca1b05" y="36.05071"/>
      </g>
     </g>
    </g>
    <g id="ytick_31">
     <g id="line2d_40">
      <g>
       <use style="fill:#333333;stroke:#333333;stroke-width:0.6;" x="80.1675" xlink:href="#me503ca1b05" y="29.866756"/>
      </g>
     </g>
    </g>
    <g id="ytick_32">
     <g id="line2d_41">
      <g>
       <use style="fill:#333333;stroke:#333333;stroke-width:0.6;" x="80.1675" xlink:href="#me503ca1b05" y="24.509972"/>
      </g>
     </g>
    </g>
    <g id="ytick_33">
     <g id="line2d_42">
      <g>
       <use style="fill:#333333;stroke:#333333;stroke-width:0.6;" x="80.1675" xlink:href="#me503ca1b05" y="19.784954"/>
      </g>
     </g>
    </g>
    <g id="text_15">
     <!-- N(&lt;r) -->
     <defs>
      <path d="M 4.390625 0 
L 4.390625 5.90625 
L 13.71875 5.90625 
L 13.71875 67 
L 4.390625 67 
L 4.390625 72.90625 
L 27.203125 72.90625 
L 71.1875 21.296875 
L 71.1875 67 
L 61.921875 67 
L 61.921875 72.90625 
L 87.40625 72.90625 
L 87.40625 67 
L 78.078125 67 
L 78.078125 0 
L 65.28125 0 
L 20.609375 52.6875 
L 20.609375 5.90625 
L 29.890625 5.90625 
L 29.890625 0 
z
" id="DejaVuSerif-Bold-4e"/>
      <path d="M 42.09375 -15.578125 
Q 25.640625 -9.46875 17.53125 1.90625 
Q 9.421875 13.28125 9.421875 30.171875 
Q 9.421875 47.078125 17.421875 58.296875 
Q 25.4375 69.53125 42.09375 75.984375 
L 42.09375 70.125 
Q 34.375 65.4375 30.984375 56.21875 
Q 27.59375 47.015625 27.59375 30.171875 
Q 27.59375 13.375 30.984375 4.171875 
Q 34.375 -5.03125 42.09375 -9.71875 
z
" id="DejaVuSerif-Bold-28"/>
      <path d="M 73.1875 47.796875 
L 25.390625 31.296875 
L 73.1875 14.890625 
L 73.1875 3.21875 
L 10.59375 25.875 
L 10.59375 36.921875 
L 73.1875 59.515625 
z
" id="DejaVuSerif-Bold-3c"/>
      <path d="M 5.078125 -15.578125 
L 5.078125 -9.71875 
Q 12.796875 -5.03125 16.1875 4.171875 
Q 19.578125 13.375 19.578125 30.171875 
Q 19.578125 47.015625 16.1875 56.21875 
Q 12.796875 65.4375 5.078125 70.125 
L 5.078125 75.984375 
Q 21.734375 69.53125 29.765625 58.296875 
Q 37.796875 47.078125 37.796875 30.171875 
Q 37.796875 13.28125 29.65625 1.90625 
Q 21.53125 -9.46875 5.078125 -15.578125 
z
" id="DejaVuSerif-Bold-29"/>
     </defs>
     <g transform="translate(25.43625 206.720156)rotate(-90)scale(0.24 -0.24)">
      <use xlink:href="#DejaVuSerif-Bold-4e"/>
      <use x="91.40625" xlink:href="#DejaVuSerif-Bold-28"/>
      <use x="138.720703" xlink:href="#DejaVuSerif-Bold-3c"/>
      <use x="222.509766" xlink:href="#DejaVuSerif-Bold-72"/>
      <use x="275.195312" xlink:href="#DejaVuSerif-Bold-29"/>
     </g>
    </g>
   </g>
   <g id="line2d_43">
    <path clip-path="url(#p0f11a6c272)" d="M 81.465026 381.038906 
L 82.261815 336.765669 
L 84.216631 310.371256 
L 86.171446 294.622063 
L 88.126261 283.36816 
L 90.081077 274.610406 
L 92.035892 267.443524 
L 93.990707 261.379904 
L 95.945523 256.126601 
L 97.900338 251.493784 
L 99.855153 247.351383 
L 101.809968 243.60637 
L 103.764784 240.189908 
L 105.719599 237.049625 
L 107.674414 234.144751 
L 111.584045 228.918025 
L 115.493676 224.317141 
L 119.403306 220.210371 
L 123.312937 216.503631 
L 127.222568 213.127376 
L 131.132198 210.028748 
L 135.041829 207.166625 
L 138.951459 204.508393 
L 144.815905 200.847129 
L 150.680351 197.516766 
L 156.544797 194.464287 
L 162.409243 191.648465 
L 168.273689 189.036605 
L 176.09295 185.826546 
L 183.912212 182.883023 
L 191.731473 180.167158 
L 201.50555 177.045889 
L 211.279626 174.184496 
L 221.053703 171.545443 
L 232.782595 168.630294 
L 244.511486 165.951188 
L 258.195194 163.080623 
L 271.878901 160.445819 
L 287.517423 157.681667 
L 303.155946 155.144129 
L 320.749284 152.522038 
L 340.297437 149.856742 
L 359.84559 147.415857 
L 381.348559 144.953854 
L 404.806342 142.497671 
L 430.218941 140.069448 
L 457.586356 137.687049 
L 486.908586 135.364639 
L 518.185631 133.113249 
L 551.417491 130.941296 
L 588.558982 128.744973 
L 627.655288 126.660047 
L 665.504062 124.833494 
L 665.504062 124.833494 
" style="fill:none;stroke:#2166ac;stroke-linecap:square;stroke-width:2;"/>
   </g>
   <g id="line2d_44">
    <path clip-path="url(#p0f11a6c272)" d="M 80.920486 381.038906 
L 82.261815 306.437575 
L 84.216631 279.940258 
L 86.171446 264.088768 
L 88.126261 252.733167 
L 90.081077 243.874305 
L 92.035892 236.606894 
L 93.990707 230.443318 
L 95.945523 225.090622 
L 97.900338 220.358966 
L 99.855153 216.118273 
L 101.809968 212.275507 
L 103.764784 208.761822 
L 105.719599 205.52484 
L 109.62923 199.72628 
L 113.53886 194.64218 
L 117.448491 190.114177 
L 121.358122 186.031422 
L 125.267752 182.313287 
L 129.177383 178.899285 
L 133.087014 175.742873 
L 136.996644 172.807467 
L 142.86109 168.756234 
L 148.725536 165.060613 
L 154.589982 161.66254 
L 160.454428 158.517166 
L 166.318874 155.589128 
L 174.138135 151.974879 
L 181.957396 148.643828 
L 189.776658 145.554483 
L 197.595919 142.673916 
L 207.369995 139.326793 
L 217.144072 136.223082 
L 226.918149 133.329734 
L 238.647041 130.098187 
L 250.375932 127.094259 
L 264.05964 123.837992 
L 277.743347 120.813377 
L 293.381869 117.601699 
L 309.020392 114.616808 
L 326.61373 111.493747 
L 344.207068 108.587353 
L 363.755221 105.579332 
L 385.258189 102.505027 
L 408.715973 99.394749 
L 432.173757 96.505732 
L 457.586356 93.593929 
L 484.95377 90.680079 
L 514.276 87.781636 
L 545.553045 84.913146 
L 578.784905 82.086632 
L 613.971581 79.311961 
L 653.067887 76.459871 
L 665.504062 75.598799 
L 665.504062 75.598799 
" style="fill:none;stroke:#006837;stroke-linecap:square;stroke-width:2;"/>
   </g>
   <g id="text_16">
    <g id="patch_5">
     <path d="M 356.81432 145.286909 
L 582.821128 118.351289 
L 579.583706 91.187277 
L 353.576898 118.122898 
z
" style="fill:#ffffff;opacity:0.5;"/>
    </g>
    <!-- BH XRBs (Fiducial) -->
    <defs>
     <path d="M 4.6875 0 
L 4.6875 5.90625 
L 14.015625 5.90625 
L 14.015625 67 
L 4.6875 67 
L 4.6875 72.90625 
L 47.90625 72.90625 
Q 61.234375 72.90625 67.921875 68.40625 
Q 74.609375 63.921875 74.609375 54.890625 
Q 74.609375 48.390625 69.984375 44.578125 
Q 65.375 40.765625 56.296875 39.796875 
Q 67.28125 38.765625 73.140625 33.9375 
Q 79 29.109375 79 21.09375 
Q 79 10.25 70.8125 5.125 
Q 62.640625 0 45.21875 0 
z
M 32.8125 42.484375 
L 39.203125 42.484375 
Q 47.609375 42.484375 51.65625 45.53125 
Q 55.71875 48.578125 55.71875 54.890625 
Q 55.71875 61.234375 51.78125 64.109375 
Q 47.859375 67 39.203125 67 
L 32.8125 67 
z
M 32.8125 5.90625 
L 39.796875 5.90625 
Q 49.125 5.90625 53.609375 9.609375 
Q 58.109375 13.328125 58.109375 21.09375 
Q 58.109375 28.90625 53.5625 32.765625 
Q 49.03125 36.625 39.796875 36.625 
L 32.8125 36.625 
z
" id="DejaVuSerif-Bold-42"/>
     <path d="M 4.6875 0 
L 4.6875 5.90625 
L 14.015625 5.90625 
L 14.015625 67 
L 4.6875 67 
L 4.6875 72.90625 
L 42.1875 72.90625 
L 42.1875 67 
L 32.8125 67 
L 32.8125 42.484375 
L 61.8125 42.484375 
L 61.8125 67 
L 52.484375 67 
L 52.484375 72.90625 
L 89.984375 72.90625 
L 89.984375 67 
L 80.609375 67 
L 80.609375 5.90625 
L 89.984375 5.90625 
L 89.984375 0 
L 52.484375 0 
L 52.484375 5.90625 
L 61.8125 5.90625 
L 61.8125 35.796875 
L 32.8125 35.796875 
L 32.8125 5.90625 
L 42.1875 5.90625 
L 42.1875 0 
z
" id="DejaVuSerif-Bold-48"/>
     <path d="M 33.890625 28.078125 
L 18.703125 5.90625 
L 27.6875 5.90625 
L 27.6875 0 
L 1.8125 0 
L 1.8125 5.90625 
L 10.796875 5.90625 
L 29.984375 33.796875 
L 7.171875 67 
L 0.484375 67 
L 0.484375 72.90625 
L 36.71875 72.90625 
L 36.71875 67 
L 28.71875 67 
L 42.828125 46.484375 
L 56.78125 67 
L 48.296875 67 
L 48.296875 72.90625 
L 73.6875 72.90625 
L 73.6875 67 
L 64.703125 67 
L 46.6875 40.828125 
L 70.609375 5.90625 
L 77.484375 5.90625 
L 77.484375 0 
L 41.109375 0 
L 41.109375 5.90625 
L 49.21875 5.90625 
z
" id="DejaVuSerif-Bold-58"/>
     <path d="M 4.6875 0 
L 4.6875 5.90625 
L 14.015625 5.90625 
L 14.015625 67 
L 4.6875 67 
L 4.6875 72.90625 
L 69.671875 72.90625 
L 69.671875 55.71875 
L 62.984375 55.71875 
L 62.984375 66.21875 
L 32.90625 66.21875 
L 32.90625 42.828125 
L 51.421875 42.828125 
L 51.421875 52.09375 
L 58.109375 52.09375 
L 58.109375 26.90625 
L 51.421875 26.90625 
L 51.421875 36.1875 
L 32.90625 36.1875 
L 32.90625 5.90625 
L 44.390625 5.90625 
L 44.390625 0 
z
" id="DejaVuSerif-Bold-46"/>
     <path d="M 28.078125 5.90625 
L 35.5 5.90625 
L 35.5 0 
L 3.421875 0 
L 3.421875 5.90625 
L 10.796875 5.90625 
L 10.796875 70.125 
L 3.421875 70.125 
L 3.421875 75.984375 
L 28.078125 75.984375 
z
" id="DejaVuSerif-Bold-6c"/>
    </defs>
    <g style="fill:#2166ac;" transform="translate(359.820606 136.7115)rotate(-6.796486)scale(0.2 -0.2)">
     <use xlink:href="#DejaVuSerif-Bold-42"/>
     <use x="84.521484" xlink:href="#DejaVuSerif-Bold-48"/>
     <use x="179.003906" xlink:href="#DejaVuSerif-Bold-20"/>
     <use x="213.818359" xlink:href="#DejaVuSerif-Bold-58"/>
     <use x="291.40625" xlink:href="#DejaVuSerif-Bold-52"/>
     <use x="374.511719" xlink:href="#DejaVuSerif-Bold-42"/>
     <use x="459.033203" xlink:href="#DejaVuSerif-Bold-73"/>
     <use x="515.332031" xlink:href="#DejaVuSerif-Bold-20"/>
     <use x="550.146484" xlink:href="#DejaVuSerif-Bold-28"/>
     <use x="597.460938" xlink:href="#DejaVuSerif-Bold-46"/>
     <use x="668.457031" xlink:href="#DejaVuSerif-Bold-69"/>
     <use x="706.445312" xlink:href="#DejaVuSerif-Bold-64"/>
     <use x="776.367188" xlink:href="#DejaVuSerif-Bold-75"/>
     <use x="849.072266" xlink:href="#DejaVuSerif-Bold-63"/>
     <use x="909.960938" xlink:href="#DejaVuSerif-Bold-69"/>
     <use x="947.949219" xlink:href="#DejaVuSerif-Bold-61"/>
     <use x="1012.744141" xlink:href="#DejaVuSerif-Bold-6c"/>
     <use x="1050.732422" xlink:href="#DejaVuSerif-Bold-29"/>
    </g>
   </g>
   <g id="text_17">
    <g id="patch_6">
     <path d="M 357.240889 104.12035 
L 621.645061 64.457522 
L 617.586803 37.403965 
L 353.18263 77.066793 
z
" style="fill:#ffffff;opacity:0.5;"/>
    </g>
    <!-- BH XRBs (Fiducialx10) -->
    <defs>
     <path d="M 35.109375 33.109375 
L 44.28125 46 
L 37.890625 46 
L 37.890625 51.90625 
L 58.109375 51.90625 
L 58.109375 46 
L 51.21875 46 
L 37.984375 27.484375 
L 53.421875 5.90625 
L 60.296875 5.90625 
L 60.296875 0 
L 27.296875 0 
L 27.296875 5.90625 
L 33.984375 5.90625 
L 24.21875 19.578125 
L 14.40625 5.90625 
L 21.390625 5.90625 
L 21.390625 0 
L 0 0 
L 0 5.90625 
L 7.421875 5.90625 
L 21.1875 25.296875 
L 6.296875 46 
L 0.484375 46 
L 0.484375 51.90625 
L 32.171875 51.90625 
L 32.171875 46 
L 25.875 46 
z
" id="DejaVuSerif-Bold-78"/>
    </defs>
    <g style="fill:#006837;" transform="translate(359.986198 95.457863)rotate(-8.531232)scale(0.2 -0.2)">
     <use xlink:href="#DejaVuSerif-Bold-42"/>
     <use x="84.521484" xlink:href="#DejaVuSerif-Bold-48"/>
     <use x="179.003906" xlink:href="#DejaVuSerif-Bold-20"/>
     <use x="213.818359" xlink:href="#DejaVuSerif-Bold-58"/>
     <use x="291.40625" xlink:href="#DejaVuSerif-Bold-52"/>
     <use x="374.511719" xlink:href="#DejaVuSerif-Bold-42"/>
     <use x="459.033203" xlink:href="#DejaVuSerif-Bold-73"/>
     <use x="515.332031" xlink:href="#DejaVuSerif-Bold-20"/>
     <use x="550.146484" xlink:href="#DejaVuSerif-Bold-28"/>
     <use x="597.460938" xlink:href="#DejaVuSerif-Bold-46"/>
     <use x="668.457031" xlink:href="#DejaVuSerif-Bold-69"/>
     <use x="706.445312" xlink:href="#DejaVuSerif-Bold-64"/>
     <use x="776.367188" xlink:href="#DejaVuSerif-Bold-75"/>
     <use x="849.072266" xlink:href="#DejaVuSerif-Bold-63"/>
     <use x="909.960938" xlink:href="#DejaVuSerif-Bold-69"/>
     <use x="947.949219" xlink:href="#DejaVuSerif-Bold-61"/>
     <use x="1012.744141" xlink:href="#DejaVuSerif-Bold-6c"/>
     <use x="1050.732422" xlink:href="#DejaVuSerif-Bold-78"/>
     <use x="1110.351562" xlink:href="#DejaVuSerif-Bold-31"/>
     <use x="1179.931641" xlink:href="#DejaVuSerif-Bold-30"/>
     <use x="1249.511719" xlink:href="#DejaVuSerif-Bold-29"/>
    </g>
   </g>
   <g id="patch_7">
    <path d="M 80.1675 320.478281 
L 80.1675 15.558281 
" style="fill:none;stroke:#333333;stroke-linecap:square;stroke-linejoin:miter;stroke-width:0.8;"/>
   </g>
   <g id="patch_8">
    <path d="M 638.1675 320.478281 
L 638.1675 15.558281 
" style="fill:none;stroke:#333333;stroke-linecap:square;stroke-linejoin:miter;stroke-width:0.8;"/>
   </g>
   <g id="patch_9">
    <path d="M 80.1675 320.478281 
L 638.1675 320.478281 
" style="fill:none;stroke:#333333;stroke-linecap:square;stroke-linejoin:miter;stroke-width:0.8;"/>
   </g>
   <g id="patch_10">
    <path d="M 80.1675 15.558281 
L 638.1675 15.558281 
" style="fill:none;stroke:#333333;stroke-linecap:square;stroke-linejoin:miter;stroke-width:0.8;"/>
   </g>
   <g id="text_18">
    <!-- Hailey+2018 -->
    <defs>
     <path d="M 31.203125 -11.71875 
Q 28.859375 -17.4375 25.53125 -19.828125 
Q 22.21875 -22.21875 16.609375 -22.21875 
Q 14.203125 -22.21875 11.265625 -21.671875 
Q 8.34375 -21.140625 4.890625 -20.125 
L 4.890625 -9.28125 
L 10.40625 -9.328125 
Q 10.546875 -13.09375 12.171875 -14.890625 
Q 13.8125 -16.703125 17.09375 -16.703125 
Q 20.265625 -16.703125 22.21875 -14.96875 
Q 24.171875 -13.234375 26.125 -8.40625 
L 26.90625 -6.59375 
L 4.296875 46 
L -1.3125 46 
L -1.3125 51.90625 
L 28.609375 51.90625 
L 28.609375 46 
L 22.40625 46 
L 35.59375 15.28125 
L 47.90625 46 
L 41.015625 46 
L 41.015625 51.90625 
L 60.5 51.90625 
L 60.5 46 
L 54.203125 46 
z
" id="DejaVuSerif-Bold-79"/>
     <path d="M 47.515625 62.703125 
L 47.515625 37.015625 
L 73.1875 37.015625 
L 73.1875 25.78125 
L 47.515625 25.78125 
L 47.515625 0.09375 
L 36.28125 0.09375 
L 36.28125 25.78125 
L 10.59375 25.78125 
L 10.59375 37.015625 
L 36.28125 37.015625 
L 36.28125 62.703125 
z
" id="DejaVuSerif-Bold-2b"/>
    </defs>
    <g transform="translate(354.84875 242.469671)scale(0.2 -0.2)">
     <use xlink:href="#DejaVuSerif-Bold-48"/>
     <use x="94.482422" xlink:href="#DejaVuSerif-Bold-61"/>
     <use x="159.277344" xlink:href="#DejaVuSerif-Bold-69"/>
     <use x="197.265625" xlink:href="#DejaVuSerif-Bold-6c"/>
     <use x="235.253906" xlink:href="#DejaVuSerif-Bold-65"/>
     <use x="298.876953" xlink:href="#DejaVuSerif-Bold-79"/>
     <use x="356.982422" xlink:href="#DejaVuSerif-Bold-2b"/>
     <use x="440.771484" xlink:href="#DejaVuSerif-Bold-32"/>
     <use x="510.351562" xlink:href="#DejaVuSerif-Bold-30"/>
     <use x="579.931641" xlink:href="#DejaVuSerif-Bold-31"/>
     <use x="649.511719" xlink:href="#DejaVuSerif-Bold-38"/>
    </g>
    <!--  (Nonthermal sources) -->
    <defs>
     <path d="M 3.421875 0 
L 3.421875 5.90625 
L 10.796875 5.90625 
L 10.796875 46 
L 3.421875 46 
L 3.421875 51.90625 
L 28.078125 51.90625 
L 28.078125 44.578125 
Q 31.203125 49.21875 35.203125 51.265625 
Q 39.203125 53.328125 45.3125 53.328125 
Q 54.046875 53.328125 58.515625 48.171875 
Q 62.984375 43.015625 62.984375 33.015625 
L 62.984375 5.90625 
L 70.40625 5.90625 
L 70.40625 0 
L 39.40625 0 
L 39.40625 5.90625 
L 45.703125 5.90625 
L 45.703125 33.5 
Q 45.703125 40.09375 44.015625 42.65625 
Q 42.328125 45.21875 38.1875 45.21875 
Q 32.953125 45.21875 30.515625 41.375 
Q 28.078125 37.546875 28.078125 29.203125 
L 28.078125 5.90625 
L 34.421875 5.90625 
L 34.421875 0 
z
" id="DejaVuSerif-Bold-6e"/>
     <path d="M 3.421875 0 
L 3.421875 5.90625 
L 10.796875 5.90625 
L 10.796875 70.125 
L 3.078125 70.125 
L 3.078125 75.984375 
L 28.078125 75.984375 
L 28.078125 44.578125 
Q 31.203125 49.21875 35.203125 51.265625 
Q 39.203125 53.328125 45.3125 53.328125 
Q 54.046875 53.328125 58.515625 48.171875 
Q 62.984375 43.015625 62.984375 33.015625 
L 62.984375 5.90625 
L 70.40625 5.90625 
L 70.40625 0 
L 39.40625 0 
L 39.40625 5.90625 
L 45.703125 5.90625 
L 45.703125 33.5 
Q 45.703125 40.09375 44.015625 42.65625 
Q 42.328125 45.21875 38.1875 45.21875 
Q 32.953125 45.21875 30.515625 41.375 
Q 28.078125 37.546875 28.078125 29.203125 
L 28.078125 5.90625 
L 34.421875 5.90625 
L 34.421875 0 
z
" id="DejaVuSerif-Bold-68"/>
     <path d="M 60.6875 43.40625 
Q 64.3125 48.578125 68.5 50.953125 
Q 72.703125 53.328125 78.328125 53.328125 
Q 87.25 53.328125 91.671875 48.265625 
Q 96.09375 43.21875 96.09375 33.015625 
L 96.09375 5.90625 
L 103.515625 5.90625 
L 103.515625 0 
L 72.609375 0 
L 72.609375 5.90625 
L 78.8125 5.90625 
L 78.8125 30.421875 
Q 78.8125 40.140625 77.3125 42.671875 
Q 75.828125 45.21875 71.78125 45.21875 
Q 67.1875 45.21875 64.640625 41.671875 
Q 62.109375 38.140625 62.109375 31.59375 
L 62.109375 5.90625 
L 68.3125 5.90625 
L 68.3125 0 
L 38.625 0 
L 38.625 5.90625 
L 44.828125 5.90625 
L 44.828125 30.421875 
Q 44.828125 40.140625 43.3125 42.671875 
Q 41.796875 45.21875 37.796875 45.21875 
Q 33.15625 45.21875 30.609375 41.671875 
Q 28.078125 38.140625 28.078125 31.59375 
L 28.078125 5.90625 
L 34.28125 5.90625 
L 34.28125 0 
L 3.421875 0 
L 3.421875 5.90625 
L 10.796875 5.90625 
L 10.796875 46 
L 3.421875 46 
L 3.421875 51.90625 
L 28.078125 51.90625 
L 28.078125 44.578125 
Q 31.109375 49.125 35.015625 51.21875 
Q 38.921875 53.328125 44.28125 53.328125 
Q 50.640625 53.328125 54.59375 50.90625 
Q 58.546875 48.484375 60.6875 43.40625 
z
" id="DejaVuSerif-Bold-6d"/>
    </defs>
    <g transform="translate(245.055 265.149671)scale(0.2 -0.2)">
     <use xlink:href="#DejaVuSerif-Bold-20"/>
     <use x="34.814453" xlink:href="#DejaVuSerif-Bold-28"/>
     <use x="82.128906" xlink:href="#DejaVuSerif-Bold-4e"/>
     <use x="173.535156" xlink:href="#DejaVuSerif-Bold-6f"/>
     <use x="240.234375" xlink:href="#DejaVuSerif-Bold-6e"/>
     <use x="312.939453" xlink:href="#DejaVuSerif-Bold-74"/>
     <use x="359.130859" xlink:href="#DejaVuSerif-Bold-68"/>
     <use x="431.835938" xlink:href="#DejaVuSerif-Bold-65"/>
     <use x="495.458984" xlink:href="#DejaVuSerif-Bold-72"/>
     <use x="548.144531" xlink:href="#DejaVuSerif-Bold-6d"/>
     <use x="653.955078" xlink:href="#DejaVuSerif-Bold-61"/>
     <use x="718.75" xlink:href="#DejaVuSerif-Bold-6c"/>
     <use x="756.738281" xlink:href="#DejaVuSerif-Bold-20"/>
     <use x="791.552734" xlink:href="#DejaVuSerif-Bold-73"/>
     <use x="847.851562" xlink:href="#DejaVuSerif-Bold-6f"/>
     <use x="914.550781" xlink:href="#DejaVuSerif-Bold-75"/>
     <use x="987.255859" xlink:href="#DejaVuSerif-Bold-72"/>
     <use x="1039.941406" xlink:href="#DejaVuSerif-Bold-63"/>
     <use x="1100.830078" xlink:href="#DejaVuSerif-Bold-65"/>
     <use x="1164.453125" xlink:href="#DejaVuSerif-Bold-73"/>
     <use x="1220.751953" xlink:href="#DejaVuSerif-Bold-29"/>
    </g>
   </g>
   <g id="text_19">
    <!-- Hailey+2018x5 -->
    <g transform="translate(329.008125 182.131667)scale(0.2 -0.2)">
     <use xlink:href="#DejaVuSerif-Bold-48"/>
     <use x="94.482422" xlink:href="#DejaVuSerif-Bold-61"/>
     <use x="159.277344" xlink:href="#DejaVuSerif-Bold-69"/>
     <use x="197.265625" xlink:href="#DejaVuSerif-Bold-6c"/>
     <use x="235.253906" xlink:href="#DejaVuSerif-Bold-65"/>
     <use x="298.876953" xlink:href="#DejaVuSerif-Bold-79"/>
     <use x="356.982422" xlink:href="#DejaVuSerif-Bold-2b"/>
     <use x="440.771484" xlink:href="#DejaVuSerif-Bold-32"/>
     <use x="510.351562" xlink:href="#DejaVuSerif-Bold-30"/>
     <use x="579.931641" xlink:href="#DejaVuSerif-Bold-31"/>
     <use x="649.511719" xlink:href="#DejaVuSerif-Bold-38"/>
     <use x="719.091797" xlink:href="#DejaVuSerif-Bold-78"/>
     <use x="778.710938" xlink:href="#DejaVuSerif-Bold-35"/>
    </g>
    <!--  -->
    <g transform="translate(498.6675 204.811667)scale(0.2 -0.2)"/>
   </g>
  </g>
 </g>
 <defs>
  <clipPath id="p0f11a6c272">
   <rect height="304.92" width="558" x="80.1675" y="15.558281"/>
  </clipPath>
 </defs>
</svg>
